Gentium-ExtraBoldItalic.ufo
<glyph name="NumSgn" format="2">
  <advance width="968"/>
  <unicode hex="0023"/>
  <outline>
    <contour>
      <point x="1028" y="956" type="curve"/>
      <point x="1008" y="981" type="line"/>
      <point x="252" y="981" type="line"/>
      <point x="239" y="954"/>
      <point x="196" y="879"/>
      <point x="187" y="850" type="curve"/>
      <point x="207" y="826" type="line"/>
      <point x="963" y="826" type="line"/>
      <point x="976" y="848"/>
      <point x="1018" y="927"/>
    </contour>
    <contour>
      <point x="980" y="1270" type="line"/>
      <point x="957" y="1292" type="line"/>
      <point x="928" y="1280"/>
      <point x="861" y="1272"/>
      <point x="832" y="1251" type="curve"/>
      <point x="388" y="147" type="line"/>
      <point x="409" y="127" type="line"/>
      <point x="443" y="139"/>
      <point x="512" y="152"/>
      <point x="537" y="170" type="curve"/>
    </contour>
    <contour>
      <point x="683" y="1270" type="line"/>
      <point x="659" y="1292" type="line"/>
      <point x="631" y="1280"/>
      <point x="565" y="1272"/>
      <point x="535" y="1251" type="curve"/>
      <point x="91" y="147" type="line"/>
      <point x="112" y="127" type="line"/>
      <point x="147" y="139"/>
      <point x="214" y="152"/>
      <point x="239" y="170" type="curve"/>
    </contour>
    <contour>
      <point x="875" y="583" type="curve"/>
      <point x="859" y="610" type="line"/>
      <point x="102" y="610" type="line"/>
      <point x="87" y="583"/>
      <point x="47" y="506"/>
      <point x="37" y="480" type="curve"/>
      <point x="55" y="455" type="line"/>
      <point x="814" y="455" type="line"/>
      <point x="826" y="478"/>
      <point x="867" y="557"/>
    </contour>
  </outline>
</glyph>
<glyph name="DollarSgn" format="2">
  <advance width="968"/>
  <unicode hex="0024"/>
  <outline>
    <contour>
      <point x="654" y="1364" type="line"/>
      <point x="622" y="1396" type="line"/>
      <point x="587" y="1385"/>
      <point x="559" y="1359"/>
      <point x="524" y="1338" type="curve"/>
      <point x="314" y="-147" type="line"/>
      <point x="344" y="-178" type="line"/>
      <point x="376" y="-170"/>
      <point x="421" y="-148"/>
      <point x="445" y="-128" type="curve"/>
    </contour>
    <contour>
      <point x="943" y="1144" type="curve" smooth="yes"/>
      <point x="872" y="1188"/>
      <point x="757" y="1231"/>
      <point x="639" y="1231" type="curve" smooth="yes"/>
      <point x="249" y="1231"/>
      <point x="103" y="1044"/>
      <point x="103" y="875" type="curve" smooth="yes"/>
      <point x="103" y="720"/>
      <point x="207" y="646"/>
      <point x="375" y="581" type="curve" smooth="yes"/>
      <point x="572" y="505"/>
      <point x="654" y="447"/>
      <point x="654" y="343" type="curve" smooth="yes"/>
      <point x="654" y="201"/>
      <point x="572" y="120"/>
      <point x="418" y="120" type="curve" smooth="yes"/>
      <point x="212" y="120"/>
      <point x="171" y="371"/>
      <point x="129" y="371" type="curve" smooth="yes"/>
      <point x="87" y="371"/>
      <point x="-6" y="184"/>
      <point x="-6" y="138" type="curve" smooth="yes"/>
      <point x="-6" y="67"/>
      <point x="190" y="-31"/>
      <point x="322" y="-31" type="curve" smooth="yes"/>
      <point x="705" y="-31"/>
      <point x="879" y="180"/>
      <point x="879" y="418" type="curve" smooth="yes"/>
      <point x="879" y="591"/>
      <point x="746" y="672"/>
      <point x="534" y="754" type="curve" smooth="yes"/>
      <point x="364" y="820"/>
      <point x="329" y="871"/>
      <point x="329" y="950" type="curve" smooth="yes"/>
      <point x="329" y="1034"/>
      <point x="416" y="1103"/>
      <point x="532" y="1103" type="curve" smooth="yes"/>
      <point x="679" y="1103"/>
      <point x="748" y="1016"/>
      <point x="768" y="911" type="curve"/>
      <point x="836" y="901" type="line"/>
      <point x="861" y="916"/>
      <point x="959" y="1134"/>
    </contour>
  </outline>
</glyph>
<glyph name="Apos" format="2">
  <advance width="500"/>
  <unicode hex="0027"/>
  <outline>
    <contour>
      <point x="507" y="1399" type="line"/>
      <point x="460" y="1430" type="line"/>
      <point x="431" y="1423"/>
      <point x="242" y="1359"/>
      <point x="211" y="1342" type="curve"/>
      <point x="228" y="828" type="line"/>
      <point x="257" y="828"/>
      <point x="320" y="837"/>
      <point x="342" y="849" type="curve"/>
    </contour>
  </outline>
</glyph>
<glyph name="RtParen" format="2">
  <advance width="641"/>
  <unicode hex="0029"/>
  <outline>
    <contour>
      <point x="559" y="638" type="curve" smooth="yes"/>
      <point x="620" y="1062"/>
      <point x="482" y="1435"/>
      <point x="212" y="1604" type="curve"/>
      <point x="145" y="1519" type="line"/>
      <point x="308" y="1309"/>
      <point x="334" y="996"/>
      <point x="279" y="607" type="curve" smooth="yes"/>
      <point x="219" y="179"/>
      <point x="76" y="-78"/>
      <point x="-101" y="-230" type="curve"/>
      <point x="-58" y="-315" type="line"/>
      <point x="261" y="-154"/>
      <point x="497" y="200"/>
    </contour>
  </outline>
</glyph>
<glyph name="Solidus" format="2">
  <advance width="911"/>
  <unicode hex="002F"/>
  <outline>
    <contour>
      <point x="1014" y="1567" type="line"/>
      <point x="973" y="1599" type="line"/>
      <point x="934" y="1589"/>
      <point x="821" y="1553"/>
      <point x="785" y="1530" type="curve"/>
      <point x="-111" y="-301" type="line"/>
      <point x="-72" y="-336" type="line"/>
      <point x="-39" y="-326"/>
      <point x="94" y="-283"/>
      <point x="121" y="-265" type="curve"/>
    </contour>
  </outline>
</glyph>
<glyph name="DigitZero" format="2">
  <advance width="968"/>
  <unicode hex="0030"/>
  <anchor x="416" y="-100" name="L"/>
  <anchor x="616" y="1320" name="U"/>
  <outline>
    <contour>
      <point x="959" y="784" type="curve" smooth="yes"/>
      <point x="959" y="1064"/>
      <point x="801" y="1235"/>
      <point x="614" y="1235" type="curve" smooth="yes"/>
      <point x="425" y="1235"/>
      <point x="273" y="1114"/>
      <point x="189" y="961" type="curve"/>
      <point x="95" y="784"/>
      <point x="58" y="648"/>
      <point x="58" y="422" type="curve" smooth="yes"/>
      <point x="58" y="184"/>
      <point x="199" y="-31"/>
      <point x="405" y="-31" type="curve" smooth="yes"/>
      <point x="591" y="-31"/>
      <point x="734" y="88"/>
      <point x="822" y="236" type="curve" smooth="yes"/>
      <point x="924" y="408"/>
      <point x="959" y="572"/>
    </contour>
    <contour>
      <point x="691" y="816" type="curve" smooth="yes"/>
      <point x="691" y="536"/>
      <point x="630" y="106"/>
      <point x="459" y="106" type="curve" smooth="yes"/>
      <point x="364" y="106"/>
      <point x="325" y="187"/>
      <point x="325" y="380" type="curve" smooth="yes"/>
      <point x="325" y="567"/>
      <point x="358" y="1100"/>
      <point x="563" y="1100" type="curve" smooth="yes"/>
      <point x="637" y="1100"/>
      <point x="691" y="1026"/>
    </contour>
  </outline>
</glyph>
<glyph name="DigitFour" format="2">
  <advance width="968"/>
  <unicode hex="0034"/>
  <anchor x="385" y="-100" name="L"/>
  <anchor x="585" y="1320" name="U"/>
  <outline>
    <contour>
      <point x="911" y="450" type="curve"/>
      <point x="891" y="481" type="line"/>
      <point x="757" y="481" type="line"/>
      <point x="856" y="1200" type="line"/>
      <point x="819" y="1245" type="line"/>
      <point x="756" y="1222"/>
      <point x="642" y="1186"/>
      <point x="578" y="1164" type="curve"/>
      <point x="27" y="373" type="line"/>
      <point x="61" y="330" type="line"/>
      <point x="496" y="330" type="line"/>
      <point x="472" y="155" type="line" smooth="yes"/>
      <point x="469" y="132"/>
      <point x="432" y="112"/>
      <point x="266" y="83" type="curve"/>
      <point x="255" y="0" type="line"/>
      <point x="822" y="0" type="line"/>
      <point x="833" y="83" type="line"/>
      <point x="733" y="108"/>
      <point x="708" y="124"/>
      <point x="711" y="144" type="curve" smooth="yes"/>
      <point x="737" y="330" type="line"/>
      <point x="794" y="330" type="line"/>
      <point x="825" y="353"/>
      <point x="879" y="407"/>
    </contour>
    <contour>
      <point x="582" y="960" type="line"/>
      <point x="516" y="481" type="line"/>
      <point x="255" y="481" type="line"/>
    </contour>
  </outline>
</glyph>
<glyph name="LTSgn" format="2">
  <advance width="900"/>
  <unicode hex="003C"/>
  <outline>
    <contour>
      <point x="674" y="236" type="line"/>
      <point x="714" y="261"/>
      <point x="761" y="309"/>
      <point x="791" y="336" type="curve"/>
      <point x="773" y="382" type="line"/>
      <point x="321" y="569" type="line"/>
      <point x="813" y="754" type="line"/>
      <point x="823" y="779"/>
      <point x="857" y="864"/>
      <point x="867" y="892" type="curve"/>
      <point x="839" y="927" type="line"/>
      <point x="115" y="654" type="line"/>
      <point x="99" y="621"/>
      <point x="73" y="560"/>
      <point x="60" y="525" type="curve"/>
      <point x="85" y="480" type="line"/>
    </contour>
  </outline>
</glyph>
<glyph name="GTSgn" format="2">
  <advance width="900"/>
  <unicode hex="003E"/>
  <outline>
    <contour>
      <point x="805" y="683" type="line"/>
      <point x="217" y="927" type="line"/>
      <point x="177" y="902"/>
      <point x="130" y="854"/>
      <point x="101" y="827" type="curve"/>
      <point x="118" y="781" type="line"/>
      <point x="570" y="594" type="line"/>
      <point x="79" y="409" type="line"/>
      <point x="68" y="384"/>
      <point x="34" y="299"/>
      <point x="25" y="271" type="curve"/>
      <point x="51" y="236" type="line"/>
      <point x="776" y="509" type="line"/>
      <point x="793" y="542"/>
      <point x="817" y="600"/>
      <point x="831" y="638" type="curve"/>
    </contour>
  </outline>
</glyph>
<glyph name="LtnCapA" format="2">
  <advance width="1210"/>
  <unicode hex="0041"/>
  <anchor x="546" y="0" name="H"/>
  <anchor x="533" y="-100" name="L"/>
  <anchor x="877" y="0" name="O"/>
  <anchor x="717" y="1320" name="U"/>
  <outline>
    <contour>
      <point x="429" y="555" type="line"/>
      <point x="623" y="1003" type="line"/>
      <point x="712" y="555" type="line"/>
    </contour>
    <contour>
      <point x="737" y="424" type="line"/>
      <point x="790" y="151" type="line" smooth="yes"/>
      <point x="798" y="107"/>
      <point x="765" y="89"/>
      <point x="668" y="83" type="curve"/>
      <point x="657" y="0" type="line"/>
      <point x="1143" y="0" type="line"/>
      <point x="1154" y="83" type="line"/>
      <point x="1075" y="93"/>
      <point x="1057" y="114"/>
      <point x="1050" y="151" type="curve" smooth="yes"/>
      <point x="820" y="1317" type="line"/>
      <point x="742" y="1296"/>
      <point x="641" y="1258"/>
      <point x="564" y="1197" type="curve"/>
      <point x="103" y="151" type="line" smooth="yes"/>
      <point x="85" y="111"/>
      <point x="42" y="99"/>
      <point x="-44" y="83" type="curve"/>
      <point x="-55" y="0" type="line"/>
      <point x="358" y="0" type="line"/>
      <point x="369" y="83" type="line"/>
      <point x="270" y="95"/>
      <point x="231" y="111"/>
      <point x="249" y="151" type="curve" smooth="yes"/>
      <point x="371" y="424" type="line"/>
    </contour>
  </outline>
</glyph>
<glyph name="LtnCapB" format="2">
  <advance width="1114"/>
  <unicode hex="0042"/>
  <anchor x="469" y="-100" name="L"/>
  <anchor x="654" y="1320" name="U"/>
  <outline>
    <contour>
      <point x="1055" y="410" type="curve" smooth="yes"/>
      <point x="1055" y="569"/>
      <point x="944" y="705"/>
      <point x="788" y="723" type="curve"/>
      <point x="961" y="784"/>
      <point x="1049" y="901"/>
      <point x="1049" y="1040" type="curve" smooth="yes"/>
      <point x="1049" y="1196"/>
      <point x="912" y="1290"/>
      <point x="619" y="1290" type="curve" smooth="yes"/>
      <point x="434" y="1290"/>
      <point x="255" y="1262"/>
      <point x="132" y="1227" type="curve"/>
      <point x="132" y="1135" type="line"/>
      <point x="233" y="1158"/>
      <point x="357" y="1176"/>
      <point x="572" y="1176" type="curve" smooth="yes"/>
      <point x="664" y="1176"/>
      <point x="773" y="1130"/>
      <point x="773" y="987" type="curve" smooth="yes"/>
      <point x="773" y="818"/>
      <point x="631" y="745"/>
      <point x="506" y="745" type="curve" smooth="yes"/>
      <point x="415" y="745" type="line"/>
      <point x="415" y="607" type="line"/>
      <point x="455" y="621"/>
      <point x="479" y="629"/>
      <point x="559" y="629" type="curve" smooth="yes"/>
      <point x="728" y="629"/>
      <point x="779" y="508"/>
      <point x="779" y="375" type="curve" smooth="yes"/>
      <point x="779" y="213"/>
      <point x="701" y="93"/>
      <point x="548" y="93" type="curve" smooth="yes"/>
      <point x="483" y="93"/>
      <point x="426" y="103"/>
      <point x="379" y="138" type="curve"/>
      <point x="47" y="0" type="line"/>
      <point x="169" y="-11"/>
      <point x="400" y="-31"/>
      <point x="502" y="-31" type="curve"/>
      <point x="812" y="-31"/>
      <point x="1055" y="150"/>
    </contour>
    <contour>
      <point x="543" y="1240" type="line"/>
      <point x="282" y="1240" type="line"/>
      <point x="128" y="144" type="line" smooth="yes"/>
      <point x="125" y="125"/>
      <point x="81" y="101"/>
      <point x="-3" y="83" type="curve"/>
      <point x="-9" y="0" type="line"/>
      <point x="506" y="0" type="line"/>
      <point x="512" y="83" type="line"/>
      <point x="428" y="101"/>
      <point x="387" y="127"/>
      <point x="389" y="144" type="curve" smooth="yes"/>
    </contour>
  </outline>
</glyph>
<glyph name="LtnCapC" format="2">
  <advance width="1055"/>
  <unicode hex="0043"/>
  <anchor x="495" y="0" name="H"/>
  <anchor x="521" y="-100" name="L"/>
  <anchor x="706" y="1320" name="U"/>
  <outline>
    <contour>
      <point x="1096" y="1190" type="curve" smooth="yes"/>
      <point x="1039" y="1245"/>
      <point x="894" y="1290"/>
      <point x="763" y="1290" type="curve" smooth="yes"/>
      <point x="638" y="1290"/>
      <point x="484" y="1243"/>
      <point x="387" y="1167" type="curve" smooth="yes"/>
      <point x="162" y="989"/>
      <point x="56" y="711"/>
      <point x="56" y="459" type="curve" smooth="yes"/>
      <point x="56" y="150"/>
      <point x="246" y="-27"/>
      <point x="487" y="-27" type="curve" smooth="yes"/>
      <point x="612" y="-27"/>
      <point x="795" y="32"/>
      <point x="977" y="211" type="curve"/>
      <point x="976" y="229"/>
      <point x="949" y="276"/>
      <point x="938" y="286" type="curve"/>
      <point x="769" y="167"/>
      <point x="668" y="146"/>
      <point x="603" y="146" type="curve" smooth="yes"/>
      <point x="491" y="146"/>
      <point x="327" y="225"/>
      <point x="327" y="516" type="curve" smooth="yes"/>
      <point x="327" y="684"/>
      <point x="373" y="969"/>
      <point x="541" y="1100" type="curve" smooth="yes"/>
      <point x="594" y="1141"/>
      <point x="633" y="1149"/>
      <point x="686" y="1149" type="curve" smooth="yes"/>
      <point x="795" y="1149"/>
      <point x="862" y="1058"/>
      <point x="891" y="965" type="curve"/>
      <point x="961" y="947" type="line"/>
      <point x="996" y="977"/>
      <point x="1107" y="1179"/>
    </contour>
  </outline>
</glyph>
<glyph name="LtnCapD" format="2">
  <advance width="1238"/>
  <unicode hex="0044"/>
  <anchor x="529" y="-100" name="L"/>
  <anchor x="714" y="1320" name="U"/>
  <outline>
    <contour>
      <point x="1217" y="755" type="curve" smooth="yes"/>
      <point x="1217" y="1085"/>
      <point x="1039" y="1290"/>
      <point x="626" y="1290" type="curve" smooth="yes"/>
      <point x="489" y="1290"/>
      <point x="285" y="1266"/>
      <point x="133" y="1229" type="curve"/>
      <point x="133" y="1126" type="line"/>
      <point x="270" y="1148" type="line"/>
      <point x="131" y="144" type="line" smooth="yes"/>
      <point x="129" y="126"/>
      <point x="84" y="101"/>
      <point x="0" y="83" type="curve"/>
      <point x="-10" y="0" type="line"/>
      <point x="521" y="0" type="line" smooth="yes"/>
      <point x="944" y="0"/>
      <point x="1217" y="403"/>
    </contour>
    <contour>
      <point x="594" y="1176" type="curve" smooth="yes"/>
      <point x="845" y="1176"/>
      <point x="935" y="1012"/>
      <point x="935" y="727" type="curve" smooth="yes"/>
      <point x="935" y="446"/>
      <point x="785" y="114"/>
      <point x="515" y="114" type="curve" smooth="yes"/>
      <point x="424" y="114"/>
      <point x="394" y="130"/>
      <point x="399" y="169" type="curve" smooth="yes"/>
      <point x="534" y="1171" type="line"/>
      <point x="554" y="1172"/>
      <point x="574" y="1176"/>
    </contour>
  </outline>
</glyph>
<glyph name="LtnCapN" format="2">
  <advance width="1273"/>
  <unicode hex="004E"/>
  <anchor x="965" y="0" name="H"/>
  <anchor x="578" y="-100" name="L"/>
  <anchor x="763" y="1320" name="U"/>
  <outline>
    <contour>
      <point x="1369" y="1260" type="line"/>
      <point x="969" y="1260" type="line"/>
      <point x="958" y="1177" type="line"/>
      <point x="1056" y="1162"/>
      <point x="1077" y="1131"/>
      <point x="1075" y="1115" type="curve" smooth="yes"/>
      <point x="970" y="353" type="line"/>
      <point x="528" y="1182" type="line" smooth="yes"/>
      <point x="492" y="1250"/>
      <point x="486" y="1260"/>
      <point x="450" y="1260" type="curve" smooth="yes"/>
      <point x="169" y="1260" type="line"/>
      <point x="158" y="1177" type="line"/>
      <point x="199" y="1170"/>
      <point x="239" y="1142"/>
      <point x="273" y="1102" type="curve"/>
      <point x="142" y="144" type="line" smooth="yes"/>
      <point x="140" y="126"/>
      <point x="101" y="95"/>
      <point x="8" y="83" type="curve"/>
      <point x="-3" y="0" type="line"/>
      <point x="397" y="0" type="line"/>
      <point x="408" y="83" type="line"/>
      <point x="314" y="97"/>
      <point x="289" y="128"/>
      <point x="291" y="144" type="curve" smooth="yes"/>
      <point x="394" y="895" type="line"/>
      <point x="824" y="91" type="line" smooth="yes"/>
      <point x="855" y="33"/>
      <point x="932" y="-19"/>
      <point x="1066" y="-30" type="curve"/>
      <point x="1223" y="1115" type="line" smooth="yes"/>
      <point x="1226" y="1134"/>
      <point x="1267" y="1164"/>
      <point x="1358" y="1177" type="curve"/>
    </contour>
  </outline>
</glyph>
<glyph name="LtnCapV" format="2">
  <advance width="1256"/>
  <unicode hex="0056"/>
  <anchor x="590" y="0" name="H"/>
  <anchor x="559" y="-100" name="L"/>
  <anchor x="540" y="0" name="O"/>
  <anchor x="744" y="1320" name="U"/>
  <outline>
    <contour>
      <point x="1367" y="1260" type="line"/>
      <point x="962" y="1260" type="line"/>
      <point x="951" y="1177" type="line"/>
      <point x="1050" y="1164"/>
      <point x="1073" y="1150"/>
      <point x="1055" y="1111" type="curve" smooth="yes"/>
      <point x="681" y="313" type="line"/>
      <point x="498" y="1113" type="line" smooth="yes"/>
      <point x="489" y="1151"/>
      <point x="517" y="1169"/>
      <point x="617" y="1177" type="curve"/>
      <point x="628" y="1260" type="line"/>
      <point x="130" y="1260" type="line"/>
      <point x="119" y="1177" type="line"/>
      <point x="195" y="1166"/>
      <point x="224" y="1146"/>
      <point x="233" y="1111" type="curve"/>
      <point x="504" y="-30" type="line"/>
      <point x="577" y="-12"/>
      <point x="689" y="30"/>
      <point x="716" y="89" type="curve"/>
      <point x="1203" y="1111" type="line" smooth="yes"/>
      <point x="1220" y="1148"/>
      <point x="1269" y="1160"/>
      <point x="1356" y="1177" type="curve"/>
    </contour>
  </outline>
</glyph>
<glyph name="LftSqrBrac" format="2">
  <advance width="770"/>
  <unicode hex="005B"/>
  <outline>
    <contour>
      <point x="870" y="1563" type="curve"/>
      <point x="833" y="1599" type="line"/>
      <point x="338" y="1599" type="line"/>
      <point x="66" y="-336" type="line"/>
      <point x="569" y="-336" type="line"/>
      <point x="582" y="-313"/>
      <point x="616" y="-246"/>
      <point x="624" y="-220" type="curve"/>
      <point x="585" y="-181" type="line"/>
      <point x="329" y="-181" type="line"/>
      <point x="552" y="1447" type="line"/>
      <point x="814" y="1447" type="line"/>
      <point x="824" y="1463"/>
      <point x="862" y="1530"/>
    </contour>
  </outline>
</glyph>
<glyph name="LtnSmC" format="2">
  <advance width="899"/>
  <unicode hex="0063"/>
  <anchor x="427" y="0" name="H"/>
  <anchor x="454" y="-100" name="L"/>
  <anchor x="991" y="870" name="R"/>
  <anchor x="604" y="1000" name="U"/>
  <outline>
    <contour>
      <point x="937" y="825" type="curve"/>
      <point x="855" y="852"/>
      <point x="791" y="936"/>
      <point x="674" y="936" type="curve" smooth="yes"/>
      <point x="552" y="936"/>
      <point x="417" y="871"/>
      <point x="343" y="822" type="curve" smooth="yes"/>
      <point x="147" y="691"/>
      <point x="77" y="502"/>
      <point x="77" y="322" type="curve" smooth="yes"/>
      <point x="77" y="41"/>
      <point x="251" y="-41"/>
      <point x="371" y="-41" type="curve" smooth="yes"/>
      <point x="499" y="-41"/>
      <point x="636" y="30"/>
      <point x="845" y="220" type="curve"/>
      <point x="839" y="230"/>
      <point x="800" y="287"/>
      <point x="790" y="301" type="curve"/>
      <point x="647" y="184"/>
      <point x="548" y="126"/>
      <point x="469" y="126" type="curve" smooth="yes"/>
      <point x="395" y="126"/>
      <point x="343" y="226"/>
      <point x="343" y="398" type="curve" smooth="yes"/>
      <point x="343" y="585"/>
      <point x="419" y="781"/>
      <point x="551" y="781" type="curve" smooth="yes"/>
      <point x="627" y="781"/>
      <point x="665" y="651"/>
      <point x="713" y="651" type="curve" smooth="yes"/>
      <point x="758" y="651"/>
      <point x="881" y="764"/>
    </contour>
  </outline>
</glyph>
<glyph name="LtnSmD" format="2">
  <advance width="1034"/>
  <unicode hex="0064"/>
  <anchor x="395" y="0" name="H"/>
  <anchor x="407" y="-100" name="L"/>
  <anchor x="1111" y="870" name="R"/>
  <anchor x="637" y="1640" name="U"/>
  <outline>
    <contour>
      <point x="1009" y="116" type="curve"/>
      <point x="991" y="194" type="line"/>
      <point x="944" y="174"/>
      <point x="919" y="168"/>
      <point x="885" y="168" type="curve" smooth="yes"/>
      <point x="854" y="168"/>
      <point x="830" y="219"/>
      <point x="830" y="319" type="curve" smooth="yes"/>
      <point x="830" y="499"/>
      <point x="993" y="1231"/>
      <point x="993" y="1438" type="curve" smooth="yes"/>
      <point x="993" y="1499"/>
      <point x="965" y="1520"/>
      <point x="918" y="1520" type="curve" smooth="yes"/>
      <point x="865" y="1520"/>
      <point x="687" y="1455"/>
      <point x="545" y="1385" type="curve"/>
      <point x="562" y="1306" type="line"/>
      <point x="594" y="1318"/>
      <point x="642" y="1333"/>
      <point x="659" y="1333" type="curve" smooth="yes"/>
      <point x="683" y="1333"/>
      <point x="704" y="1327"/>
      <point x="704" y="1266" type="curve" smooth="yes"/>
      <point x="704" y="1079"/>
      <point x="567" y="372"/>
      <point x="567" y="249" type="curve" smooth="yes"/>
      <point x="567" y="29"/>
      <point x="665" y="-41"/>
      <point x="716" y="-41" type="curve" smooth="yes"/>
      <point x="771" y="-41"/>
      <point x="896" y="40"/>
    </contour>
    <contour>
      <point x="883" y="791" type="line"/>
      <point x="806" y="791"/>
      <point x="698" y="936"/>
      <point x="622" y="936" type="curve" smooth="yes"/>
      <point x="520" y="936"/>
      <point x="405" y="890"/>
      <point x="332" y="842" type="curve" smooth="yes"/>
      <point x="142" y="717"/>
      <point x="33" y="526"/>
      <point x="33" y="315" type="curve" smooth="yes"/>
      <point x="33" y="66"/>
      <point x="156" y="-41"/>
      <point x="266" y="-41" type="curve" smooth="yes"/>
      <point x="353" y="-41"/>
      <point x="462" y="27"/>
      <point x="576" y="185" type="curve"/>
      <point x="597" y="393" type="line"/>
      <point x="475" y="210"/>
      <point x="404" y="176"/>
      <point x="376" y="176" type="curve" smooth="yes"/>
      <point x="328" y="176"/>
      <point x="290" y="237"/>
      <point x="290" y="379" type="curve" smooth="yes"/>
      <point x="290" y="537"/>
      <point x="357" y="781"/>
      <point x="519" y="781" type="curve" smooth="yes"/>
      <point x="616" y="781"/>
      <point x="696" y="609"/>
      <point x="745" y="609" type="curve"/>
    </contour>
  </outline>
</glyph>
<glyph name="LtnSmO" format="2">
  <advance width="924"/>
  <unicode hex="006F"/>
  <anchor x="410" y="0" name="H"/>
  <anchor x="384" y="-100" name="L"/>
  <anchor x="459" y="0" name="O"/>
  <anchor x="950" y="870" name="R"/>
  <anchor x="535" y="1000" name="U"/>
  <outline>
    <contour>
      <point x="891" y="559" type="curve" smooth="yes"/>
      <point x="891" y="780"/>
      <point x="766" y="936"/>
      <point x="557" y="936" type="curve" smooth="yes"/>
      <point x="465" y="936"/>
      <point x="357" y="893"/>
      <point x="287" y="840" type="curve" smooth="yes"/>
      <point x="108" y="704"/>
      <point x="33" y="535"/>
      <point x="33" y="344" type="curve" smooth="yes"/>
      <point x="33" y="125"/>
      <point x="165" y="-41"/>
      <point x="381" y="-41" type="curve" smooth="yes"/>
      <point x="461" y="-41"/>
      <point x="572" y="6"/>
      <point x="642" y="63" type="curve" smooth="yes"/>
      <point x="791" y="186"/>
      <point x="891" y="381"/>
    </contour>
    <contour>
      <point x="628" y="473" type="curve" smooth="yes"/>
      <point x="628" y="309"/>
      <point x="583" y="102"/>
      <point x="449" y="102" type="curve" smooth="yes"/>
      <point x="376" y="102"/>
      <point x="297" y="250"/>
      <point x="297" y="428" type="curve" smooth="yes"/>
      <point x="297" y="598"/>
      <point x="345" y="789"/>
      <point x="488" y="789" type="curve" smooth="yes"/>
      <point x="555" y="789"/>
      <point x="628" y="676"/>
    </contour>
  </outline>
</glyph>
<glyph name="LtnSmU" format="2">
  <advance width="1127"/>
  <unicode hex="0075"/>
  <anchor x="435" y="0" name="H"/>
  <anchor x="482" y="-100" name="L"/>
  <anchor x="849" y="0" name="O"/>
  <anchor x="1170" y="870" name="R"/>
  <anchor x="633" y="1000" name="U"/>
  <outline>
    <contour>
      <point x="1100" y="118" type="curve"/>
      <point x="1081" y="194" type="line"/>
      <point x="1033" y="174"/>
      <point x="1011" y="166"/>
      <point x="976" y="166" type="curve" smooth="yes"/>
      <point x="943" y="166"/>
      <point x="923" y="203"/>
      <point x="923" y="324" type="curve" smooth="yes"/>
      <point x="923" y="455"/>
      <point x="992" y="735"/>
      <point x="992" y="852" type="curve" smooth="yes"/>
      <point x="992" y="913"/>
      <point x="983" y="936"/>
      <point x="946" y="936" type="curve" smooth="yes"/>
      <point x="892" y="936"/>
      <point x="676" y="851"/>
      <point x="563" y="800" type="curve"/>
      <point x="583" y="723" type="line"/>
      <point x="609" y="733"/>
      <point x="650" y="747"/>
      <point x="667" y="747" type="curve" smooth="yes"/>
      <point x="690" y="747"/>
      <point x="704" y="741"/>
      <point x="704" y="680" type="curve" smooth="yes"/>
      <point x="704" y="602"/>
      <point x="663" y="425"/>
      <point x="652" y="307" type="curve" smooth="yes"/>
      <point x="631" y="79"/>
      <point x="723" y="-41"/>
      <point x="798" y="-41" type="curve" smooth="yes"/>
      <point x="868" y="-41"/>
      <point x="995" y="46"/>
    </contour>
    <contour>
      <point x="665" y="394" type="line"/>
      <point x="553" y="244"/>
      <point x="468" y="180"/>
      <point x="424" y="180" type="curve" smooth="yes"/>
      <point x="405" y="180"/>
      <point x="379" y="215"/>
      <point x="379" y="272" type="curve" smooth="yes"/>
      <point x="379" y="389"/>
      <point x="459" y="735"/>
      <point x="459" y="852" type="curve" smooth="yes"/>
      <point x="459" y="913"/>
      <point x="449" y="936"/>
      <point x="410" y="936" type="curve" smooth="yes"/>
      <point x="357" y="936"/>
      <point x="132" y="851"/>
      <point x="19" y="800" type="curve"/>
      <point x="36" y="723" type="line"/>
      <point x="66" y="733"/>
      <point x="112" y="747"/>
      <point x="129" y="747" type="curve" smooth="yes"/>
      <point x="153" y="747"/>
      <point x="170" y="741"/>
      <point x="170" y="680" type="curve" smooth="yes"/>
      <point x="170" y="582"/>
      <point x="106" y="324"/>
      <point x="106" y="205" type="curve" smooth="yes"/>
      <point x="106" y="43"/>
      <point x="210" y="-41"/>
      <point x="293" y="-41" type="curve" smooth="yes"/>
      <point x="409" y="-41"/>
      <point x="557" y="58"/>
      <point x="657" y="189" type="curve"/>
    </contour>
  </outline>
</glyph>
<glyph name="LtnSmX" format="2">
  <advance width="961"/>
  <unicode hex="0078"/>
  <anchor x="690" y="0" name="H"/>
  <anchor x="430" y="-100" name="L"/>
  <anchor x="580" y="1000" name="U"/>
  <outline>
    <contour>
      <point x="973" y="883" type="curve" smooth="yes"/>
      <point x="973" y="911"/>
      <point x="940" y="936"/>
      <point x="857" y="936" type="curve" smooth="yes"/>
      <point x="794" y="936"/>
      <point x="648" y="919"/>
      <point x="560" y="901" type="curve"/>
      <point x="566" y="820" type="line"/>
      <point x="584" y="822"/>
      <point x="600" y="823"/>
      <point x="613" y="823" type="curve" smooth="yes"/>
      <point x="664" y="823"/>
      <point x="683" y="810"/>
      <point x="683" y="788" type="curve" smooth="yes"/>
      <point x="683" y="767"/>
      <point x="594" y="633"/>
      <point x="475" y="496" type="curve"/>
      <point x="565" y="410" type="line"/>
      <point x="832" y="681"/>
      <point x="973" y="829"/>
    </contour>
    <contour>
      <point x="947" y="112" type="curve"/>
      <point x="920" y="189" type="line"/>
      <point x="871" y="164"/>
      <point x="820" y="156"/>
      <point x="789" y="156" type="curve" smooth="yes"/>
      <point x="664" y="156"/>
      <point x="484" y="936"/>
      <point x="336" y="936" type="curve" smooth="yes"/>
      <point x="288" y="936"/>
      <point x="129" y="859"/>
      <point x="17" y="800" type="curve"/>
      <point x="41" y="721" type="line"/>
      <point x="83" y="732"/>
      <point x="148" y="747"/>
      <point x="171" y="747" type="curve" smooth="yes"/>
      <point x="300" y="747"/>
      <point x="462" y="-41"/>
      <point x="638" y="-41" type="curve" smooth="yes"/>
      <point x="710" y="-41"/>
      <point x="832" y="32"/>
    </contour>
    <contour>
      <point x="508" y="369" type="curve"/>
      <point x="416" y="459" type="line"/>
      <point x="297" y="313"/>
      <point x="82" y="119"/>
      <point x="-49" y="4" type="curve"/>
      <point x="-16" y="-41" type="line"/>
      <point x="33" y="-27"/>
      <point x="211" y="4"/>
      <point x="260" y="10" type="curve"/>
      <point x="366" y="170"/>
      <point x="453" y="289"/>
    </contour>
  </outline>
</glyph>
<glyph name="VertLine" format="2">
  <advance width="450"/>
  <unicode hex="007C"/>
  <outline>
    <contour>
      <point x="458" y="1567" type="line"/>
      <point x="418" y="1599" type="line"/>
      <point x="379" y="1589"/>
      <point x="320" y="1558"/>
      <point x="283" y="1535" type="curve"/>
      <point x="23" y="-301" type="line"/>
      <point x="62" y="-336" type="line"/>
      <point x="94" y="-326"/>
      <point x="172" y="-288"/>
      <point x="198" y="-270" type="curve"/>
    </contour>
  </outline>
</glyph>
<glyph name="SectionSgn" format="2">
  <advance width="941"/>
  <unicode hex="00A7"/>
  <outline>
    <contour>
      <point x="380" y="-30" type="curve" smooth="yes"/>
      <point x="495" y="-30"/>
      <point x="757" y="0"/>
      <point x="795" y="283" type="curve"/>
      <point x="816" y="432"/>
      <point x="674" y="510"/>
      <point x="578" y="569" type="curve"/>
      <point x="433" y="667"/>
      <point x="363" y="714"/>
      <point x="379" y="830" type="curve" smooth="yes"/>
      <point x="389" y="903"/>
      <point x="473" y="987"/>
      <point x="538" y="990" type="curve"/>
      <point x="513" y="1024"/>
      <point x="489" y="1058"/>
      <point x="464" y="1092" type="curve"/>
      <point x="321" y="1065"/>
      <point x="175" y="919"/>
      <point x="156" y="780" type="curve" smooth="yes"/>
      <point x="131" y="593"/>
      <point x="257" y="486"/>
      <point x="349" y="429" type="curve" smooth="yes"/>
      <point x="450" y="365"/>
      <point x="573" y="304"/>
      <point x="558" y="197" type="curve" smooth="yes"/>
      <point x="548" y="123"/>
      <point x="511" y="98"/>
      <point x="425" y="98" type="curve" smooth="yes"/>
      <point x="328" y="98"/>
      <point x="254" y="190"/>
      <point x="242" y="342" type="curve"/>
      <point x="160" y="353" type="line"/>
      <point x="119" y="243"/>
      <point x="96" y="51"/>
      <point x="111" y="43" type="curve"/>
      <point x="185" y="-6"/>
      <point x="296" y="-30"/>
    </contour>
    <contour>
      <point x="649" y="336" type="curve"/>
      <point x="755" y="370"/>
      <point x="879" y="498"/>
      <point x="903" y="673" type="curve" smooth="yes"/>
      <point x="931" y="882"/>
      <point x="802" y="980"/>
      <point x="706" y="1039" type="curve"/>
      <point x="581" y="1118"/>
      <point x="487" y="1154"/>
      <point x="498" y="1240" type="curve"/>
      <point x="506" y="1295"/>
      <point x="550" y="1330"/>
      <point x="620" y="1330" type="curve" smooth="yes"/>
      <point x="705" y="1330"/>
      <point x="751" y="1256"/>
      <point x="754" y="1131" type="curve"/>
      <point x="824" y="1123" type="line"/>
      <point x="864" y="1174"/>
      <point x="924" y="1350"/>
      <point x="911" y="1363" type="curve" smooth="yes"/>
      <point x="860" y="1410"/>
      <point x="752" y="1440"/>
      <point x="640" y="1440" type="curve" smooth="yes"/>
      <point x="468" y="1440"/>
      <point x="287" y="1336"/>
      <point x="264" y="1170" type="curve" smooth="yes"/>
      <point x="246" y="1043"/>
      <point x="385" y="959"/>
      <point x="477" y="899" type="curve" smooth="yes"/>
      <point x="631" y="799"/>
      <point x="696" y="744"/>
      <point x="678" y="607" type="curve"/>
      <point x="666" y="524"/>
      <point x="595" y="447"/>
      <point x="534" y="440" type="curve"/>
      <point x="572" y="405"/>
      <point x="611" y="371"/>
    </contour>
  </outline>
</glyph>
<glyph name="NotSgn" format="2">
  <advance width="968"/>
  <unicode hex="00AC"/>
  <outline>
    <contour>
      <point x="873" y="606" type="line"/>
      <point x="842" y="638" type="line"/>
      <point x="842" y="638"/>
      <point x="808" y="638"/>
      <point x="100" y="638" type="curve"/>
      <point x="85" y="612"/>
      <point x="47" y="547"/>
      <point x="38" y="520" type="curve"/>
      <point x="64" y="486" type="line"/>
      <point x="720" y="486" type="line"/>
      <point x="680" y="197" type="line"/>
      <point x="707" y="162" type="line"/>
      <point x="738" y="173"/>
      <point x="795" y="213"/>
      <point x="821" y="233" type="curve"/>
    </contour>
  </outline>
</glyph>
<glyph name="RegisteredSgn" format="2">
  <advance width="704"/>
  <unicode hex="00AE"/>
  <outline>
    <contour>
      <point x="761" y="1084" type="curve" smooth="yes"/>
      <point x="790" y="1295"/>
      <point x="679" y="1450"/>
      <point x="487" y="1450" type="curve" smooth="yes"/>
      <point x="295" y="1450"/>
      <point x="144" y="1291"/>
      <point x="116" y="1084" type="curve" smooth="yes"/>
      <point x="87" y="873"/>
      <point x="196" y="718"/>
      <point x="390" y="718" type="curve" smooth="yes"/>
      <point x="582" y="718"/>
      <point x="733" y="873"/>
    </contour>
    <contour>
      <point x="683" y="1084" type="curve" smooth="yes"/>
      <point x="661" y="925"/>
      <point x="564" y="793"/>
      <point x="401" y="793" type="curve" smooth="yes"/>
      <point x="239" y="793"/>
      <point x="172" y="925"/>
      <point x="194" y="1084" type="curve" smooth="yes"/>
      <point x="216" y="1242"/>
      <point x="312" y="1375"/>
      <point x="474" y="1375" type="curve" smooth="yes"/>
      <point x="637" y="1375"/>
      <point x="705" y="1242"/>
    </contour>
    <contour>
      <point x="590" y="1186" type="curve" smooth="yes"/>
      <point x="597" y="1240"/>
      <point x="561" y="1296"/>
      <point x="451" y="1296" type="curve" smooth="yes"/>
      <point x="402" y="1296"/>
      <point x="354" y="1287"/>
      <point x="318" y="1278" type="curve"/>
      <point x="316" y="1239" type="line"/>
      <point x="354" y="1245"/>
      <point x="403" y="1251"/>
      <point x="436" y="1251" type="curve" smooth="yes"/>
      <point x="495" y="1251"/>
      <point x="514" y="1216"/>
      <point x="509" y="1177" type="curve" smooth="yes"/>
      <point x="502" y="1124"/>
      <point x="470" y="1112"/>
      <point x="420" y="1112" type="curve" smooth="yes"/>
      <point x="409" y="1112"/>
      <point x="401" y="1113"/>
      <point x="388" y="1116" type="curve"/>
      <point x="385" y="1070" type="line"/>
      <point x="397" y="1067"/>
      <point x="408" y="1065"/>
      <point x="418" y="1065" type="curve" smooth="yes"/>
      <point x="504" y="1065"/>
      <point x="579" y="1106"/>
    </contour>
    <contour>
      <point x="609" y="920" type="line"/>
      <point x="606" y="938" type="line"/>
      <point x="580" y="928"/>
      <point x="568" y="930"/>
      <point x="561" y="944" type="curve"/>
      <point x="468" y="1098" type="line"/>
      <point x="417" y="1079" type="line"/>
      <point x="491" y="894" type="line" smooth="yes"/>
      <point x="494" y="886"/>
      <point x="505" y="876"/>
      <point x="516" y="876" type="curve" smooth="yes"/>
      <point x="529" y="876"/>
      <point x="584" y="906"/>
      <point x="606" y="918" type="curve" smooth="yes"/>
    </contour>
    <contour>
      <point x="413" y="882" type="line"/>
      <point x="416" y="910" type="line"/>
      <point x="390" y="916"/>
      <point x="380" y="924"/>
      <point x="381" y="929" type="curve" smooth="yes"/>
      <point x="428" y="1274" type="line"/>
      <point x="353" y="1274" type="line"/>
      <point x="306" y="929" type="line" smooth="yes"/>
      <point x="305" y="923"/>
      <point x="295" y="916"/>
      <point x="269" y="910" type="curve"/>
      <point x="266" y="882" type="line"/>
    </contour>
  </outline>
</glyph>
<glyph name="PlusMinusSgn" format="2">
  <advance width="835"/>
  <unicode hex="00B1"/>
  <outline>
    <contour>
      <point x="560" y="1032" type="line"/>
      <point x="532" y="1065" type="line"/>
      <point x="502" y="1058"/>
      <point x="430" y="1034"/>
      <point x="404" y="1026" type="curve"/>
      <point x="309" y="352" type="line"/>
      <point x="338" y="320" type="line"/>
      <point x="369" y="326"/>
      <point x="438" y="348"/>
      <point x="466" y="361" type="curve"/>
    </contour>
    <contour>
      <point x="724" y="226" type="curve"/>
      <point x="697" y="260" type="line"/>
      <point x="62" y="260" type="line"/>
      <point x="48" y="234"/>
      <point x="10" y="168"/>
      <point x="0" y="139" type="curve"/>
      <point x="26" y="105" type="line"/>
      <point x="662" y="105" type="line"/>
      <point x="674" y="127"/>
      <point x="713" y="197"/>
    </contour>
    <contour>
      <point x="795" y="736" type="curve"/>
      <point x="767" y="770" type="line"/>
      <point x="129" y="770" type="line"/>
      <point x="115" y="744"/>
      <point x="77" y="678"/>
      <point x="67" y="649" type="curve"/>
      <point x="93" y="615" type="line"/>
      <point x="732" y="615" type="line"/>
      <point x="744" y="637"/>
      <point x="784" y="707"/>
    </contour>
  </outline>
</glyph>
<glyph name="SupTwo" format="2">
  <advance width="677"/>
  <unicode hex="00B2"/>
  <anchor x="314" y="548" name="L"/>
  <anchor x="454" y="1400" name="U"/>
  <outline>
    <contour>
      <point x="690" y="1224" type="curve" smooth="yes"/>
      <point x="690" y="1319"/>
      <point x="588" y="1349"/>
      <point x="481" y="1349" type="curve" smooth="yes"/>
      <point x="310" y="1349"/>
      <point x="163" y="1246"/>
      <point x="149" y="1163" type="curve"/>
      <point x="168" y="1115" type="line"/>
      <point x="206" y="1119"/>
      <point x="304" y="1141"/>
      <point x="334" y="1156" type="curve"/>
      <point x="330" y="1213"/>
      <point x="354" y="1275"/>
      <point x="422" y="1275" type="curve" smooth="yes"/>
      <point x="472" y="1275"/>
      <point x="499" y="1252"/>
      <point x="499" y="1194" type="curve" smooth="yes"/>
      <point x="499" y="1093"/>
      <point x="370" y="942"/>
      <point x="38" y="652" type="curve"/>
      <point x="49" y="608" type="line"/>
      <point x="592" y="608" type="line"/>
      <point x="639" y="834" type="line"/>
      <point x="580" y="847" type="line"/>
      <point x="580" y="847"/>
      <point x="556" y="722"/>
      <point x="494" y="722" type="curve" smooth="yes"/>
      <point x="245" y="722" type="line"/>
      <point x="610" y="1026"/>
      <point x="690" y="1124"/>
    </contour>
  </outline>
</glyph>
<glyph name="SupThree" format="2">
  <advance width="677"/>
  <unicode hex="00B3"/>
  <anchor x="314" y="548" name="L"/>
  <anchor x="454" y="1400" name="U"/>
  <outline>
    <contour>
      <point x="656" y="1209" type="curve" smooth="yes"/>
      <point x="656" y="1281"/>
      <point x="610" y="1349"/>
      <point x="448" y="1349" type="curve" smooth="yes"/>
      <point x="287" y="1349"/>
      <point x="158" y="1242"/>
      <point x="146" y="1175" type="curve"/>
      <point x="165" y="1132" type="line"/>
      <point x="209" y="1134"/>
      <point x="295" y="1160"/>
      <point x="333" y="1180" type="curve"/>
      <point x="328" y="1240"/>
      <point x="364" y="1275"/>
      <point x="409" y="1275" type="curve" smooth="yes"/>
      <point x="449" y="1275"/>
      <point x="468" y="1252"/>
      <point x="468" y="1202" type="curve" smooth="yes"/>
      <point x="468" y="1108"/>
      <point x="403" y="1047"/>
      <point x="274" y="1020" type="curve"/>
      <point x="278" y="960" type="line"/>
      <point x="304" y="964"/>
      <point x="311" y="964"/>
      <point x="333" y="964" type="curve" smooth="yes"/>
      <point x="401" y="964"/>
      <point x="448" y="929"/>
      <point x="448" y="849" type="curve" smooth="yes"/>
      <point x="448" y="745"/>
      <point x="376" y="681"/>
      <point x="293" y="681" type="curve" smooth="yes"/>
      <point x="228" y="681"/>
      <point x="160" y="701"/>
      <point x="92" y="756" type="curve"/>
      <point x="51" y="691" type="line"/>
      <point x="114" y="628"/>
      <point x="224" y="589"/>
      <point x="290" y="589" type="curve" smooth="yes"/>
      <point x="478" y="589"/>
      <point x="639" y="715"/>
      <point x="639" y="865" type="curve" smooth="yes"/>
      <point x="639" y="945"/>
      <point x="594" y="1017"/>
      <point x="496" y="1027" type="curve"/>
      <point x="586" y="1059"/>
      <point x="656" y="1122"/>
    </contour>
  </outline>
</glyph>
<glyph name="AcuteAccent" format="2">
  <advance width="606"/>
  <unicode hex="00B4"/>
  <anchor x="306" y="1370" name="U"/>
  <outline>
    <contour>
      <point x="593" y="1429" type="line"/>
      <point x="568" y="1437"/>
      <point x="411" y="1466"/>
      <point x="380" y="1469" type="curve"/>
      <point x="158" y="1071" type="line"/>
      <point x="177" y="1048"/>
      <point x="212" y="1021"/>
      <point x="233" y="1016" type="curve"/>
      <point x="618" y="1364" type="line"/>
    </contour>
  </outline>
</glyph>
<glyph name="PilcrowSgn" format="2">
  <advance width="1139"/>
  <unicode hex="00B6"/>
  <outline>
    <contour>
      <point x="1179" y="1260" type="line"/>
      <point x="1124" y="1260" type="line"/>
      <point x="1124" y="1260"/>
      <point x="697" y="1290"/>
      <point x="592" y="1290" type="curve" smooth="yes"/>
      <point x="304" y="1290"/>
      <point x="103" y="1130"/>
      <point x="72" y="903" type="curve" smooth="yes"/>
      <point x="38" y="653"/>
      <point x="214" y="516"/>
      <point x="482" y="516" type="curve" smooth="yes"/>
      <point x="515" y="516"/>
      <point x="540" y="518"/>
      <point x="562" y="522" type="curve"/>
      <point x="475" y="-105" type="line"/>
      <point x="473" y="-124"/>
      <point x="428" y="-148"/>
      <point x="344" y="-167" type="curve"/>
      <point x="332" y="-250" type="line"/>
      <point x="972" y="-250" type="line"/>
      <point x="984" y="-167" type="line"/>
      <point x="899" y="-148"/>
      <point x="868" y="-122"/>
      <point x="870" y="-105" type="curve" smooth="yes"/>
      <point x="1037" y="1115" type="line" smooth="yes"/>
      <point x="1040" y="1134"/>
      <point x="1084" y="1158"/>
      <point x="1168" y="1177" type="curve"/>
    </contour>
    <contour>
      <point x="538" y="640" type="line" smooth="yes"/>
      <point x="373" y="640"/>
      <point x="323" y="793"/>
      <point x="343" y="938" type="curve" smooth="yes"/>
      <point x="363" y="1087"/>
      <point x="496" y="1166"/>
      <point x="603" y="1166" type="curve" smooth="yes"/>
      <point x="615" y="1166"/>
      <point x="631" y="1166"/>
      <point x="651" y="1165" type="curve"/>
      <point x="578" y="640" type="line"/>
    </contour>
    <contour>
      <point x="880" y="1136" type="curve"/>
      <point x="710" y="-105" type="line" smooth="yes"/>
      <point x="708" y="-120"/>
      <point x="683" y="-132"/>
      <point x="669" y="-136" type="curve"/>
      <point x="657" y="-132"/>
      <point x="636" y="-120"/>
      <point x="638" y="-105" type="curve" smooth="yes"/>
      <point x="810" y="1149" type="line"/>
      <point x="834" y="1146"/>
      <point x="857" y="1141"/>
    </contour>
  </outline>
</glyph>
<glyph name="MiddleDot" format="2">
  <advance width="500"/>
  <unicode hex="00B7"/>
  <outline>
    <contour>
      <point x="417" y="678" type="curve" smooth="yes"/>
      <point x="417" y="743"/>
      <point x="374" y="792"/>
      <point x="285" y="792" type="curve" smooth="yes"/>
      <point x="161" y="792"/>
      <point x="85" y="681"/>
      <point x="85" y="594" type="curve" smooth="yes"/>
      <point x="85" y="524"/>
      <point x="126" y="475"/>
      <point x="219" y="475" type="curve" smooth="yes"/>
      <point x="349" y="475"/>
      <point x="417" y="586"/>
    </contour>
  </outline>
</glyph>
<glyph name="Cedilla" format="2">
  <advance width="324"/>
  <unicode hex="00B8"/>
  <anchor x="-7" y="-600" name="L"/>
  <outline>
    <contour>
      <point x="238" y="-221" type="curve" smooth="yes"/>
      <point x="238" y="-156"/>
      <point x="198" y="-95"/>
      <point x="110" y="-93" type="curve"/>
      <point x="115" y="-78"/>
      <point x="137" y="19"/>
      <point x="140" y="50" type="curve"/>
      <point x="32" y="52" type="line"/>
      <point x="20" y="-22"/>
      <point x="-15" y="-134"/>
      <point x="-62" y="-215" type="curve"/>
      <point x="-30" y="-213"/>
      <point x="1" y="-233"/>
      <point x="1" y="-258" type="curve" smooth="yes"/>
      <point x="1" y="-306"/>
      <point x="-76" y="-335"/>
      <point x="-178" y="-296" type="curve"/>
      <point x="-176" y="-375" type="line"/>
      <point x="36" y="-472"/>
      <point x="238" y="-362"/>
    </contour>
  </outline>
</glyph>
<glyph name="SupOne" format="2">
  <advance width="677"/>
  <unicode hex="00B9"/>
  <anchor x="314" y="548" name="L"/>
  <anchor x="454" y="1400" name="U"/>
  <outline>
    <contour>
      <point x="618" y="664" type="line"/>
      <point x="490" y="679"/>
      <point x="462" y="702"/>
      <point x="464" y="718" type="curve" smooth="yes"/>
      <point x="562" y="1328" type="line"/>
      <point x="535" y="1355" type="line"/>
      <point x="466" y="1330"/>
      <point x="255" y="1266"/>
      <point x="178" y="1253" type="curve"/>
      <point x="188" y="1198" type="line"/>
      <point x="307" y="1221"/>
      <point x="346" y="1217"/>
      <point x="354" y="1207" type="curve" smooth="yes"/>
      <point x="364" y="1196"/>
      <point x="362" y="1180"/>
      <point x="357" y="1148" type="curve" smooth="yes"/>
      <point x="289" y="718" type="line" smooth="yes"/>
      <point x="286" y="701"/>
      <point x="242" y="679"/>
      <point x="103" y="664" type="curve"/>
      <point x="95" y="608" type="line"/>
      <point x="609" y="608" type="line"/>
    </contour>
  </outline>
</glyph>
<glyph name="RtPtngDblAngQuotMrk" format="2">
  <advance width="998"/>
  <unicode hex="00BB"/>
  <outline>
    <contour>
      <point x="542" y="500" type="curve"/>
      <point x="219" y="933" type="line"/>
      <point x="154" y="883" type="line"/>
      <point x="194" y="743"/>
      <point x="234" y="603"/>
      <point x="274" y="463" type="curve"/>
      <point x="41" y="47" type="line"/>
      <point x="91" y="-3" type="line"/>
      <point x="531" y="427" type="line"/>
      <point x="535" y="451"/>
      <point x="538" y="476"/>
    </contour>
    <contour>
      <point x="933" y="500" type="curve"/>
      <point x="610" y="933" type="line"/>
      <point x="544" y="883" type="line"/>
      <point x="584" y="743"/>
      <point x="625" y="603"/>
      <point x="665" y="463" type="curve"/>
      <point x="431" y="47" type="line"/>
      <point x="482" y="-3" type="line"/>
      <point x="921" y="427" type="line"/>
      <point x="925" y="451"/>
      <point x="929" y="476"/>
    </contour>
  </outline>
</glyph>
<glyph name="VulgFracThreeQuarters" format="2">
  <advance width="1209"/>
  <unicode hex="00BE"/>
  <outline>
    <contour>
      <point x="1233" y="1207" type="line"/>
      <point x="1213" y="1235" type="line"/>
      <point x="1185" y="1229"/>
      <point x="1105" y="1214"/>
      <point x="1079" y="1203" type="curve"/>
      <point x="48" y="0" type="line"/>
      <point x="67" y="-30" type="line"/>
      <point x="102" y="-21"/>
      <point x="174" y="-12"/>
      <point x="205" y="3" type="curve"/>
    </contour>
    <contour>
      <point x="581" y="842" type="curve" smooth="yes"/>
      <point x="581" y="906"/>
      <point x="544" y="964"/>
      <point x="464" y="972" type="curve"/>
      <point x="538" y="998"/>
      <point x="595" y="1048"/>
      <point x="595" y="1117" type="curve" smooth="yes"/>
      <point x="595" y="1176"/>
      <point x="557" y="1230"/>
      <point x="425" y="1230" type="curve" smooth="yes"/>
      <point x="294" y="1230"/>
      <point x="189" y="1144"/>
      <point x="180" y="1091" type="curve"/>
      <point x="194" y="1057" type="line"/>
      <point x="230" y="1057"/>
      <point x="300" y="1079"/>
      <point x="332" y="1094" type="curve"/>
      <point x="328" y="1142"/>
      <point x="357" y="1170"/>
      <point x="393" y="1170" type="curve" smooth="yes"/>
      <point x="426" y="1170"/>
      <point x="442" y="1153"/>
      <point x="442" y="1112" type="curve" smooth="yes"/>
      <point x="442" y="1037"/>
      <point x="388" y="988"/>
      <point x="283" y="966" type="curve"/>
      <point x="287" y="918" type="line"/>
      <point x="308" y="922"/>
      <point x="314" y="922"/>
      <point x="332" y="922" type="curve" smooth="yes"/>
      <point x="387" y="922"/>
      <point x="425" y="894"/>
      <point x="425" y="829" type="curve" smooth="yes"/>
      <point x="425" y="747"/>
      <point x="367" y="696"/>
      <point x="299" y="696" type="curve" smooth="yes"/>
      <point x="246" y="696"/>
      <point x="190" y="711"/>
      <point x="135" y="755" type="curve"/>
      <point x="102" y="704" type="line"/>
      <point x="153" y="653"/>
      <point x="243" y="622"/>
      <point x="296" y="622" type="curve" smooth="yes"/>
      <point x="450" y="622"/>
      <point x="581" y="722"/>
    </contour>
    <contour>
      <point x="1111" y="216" type="curve"/>
      <point x="1100" y="231" type="line"/>
      <point x="1023" y="231" type="line"/>
      <point x="1080" y="576" type="line"/>
      <point x="1059" y="598" type="line"/>
      <point x="1023" y="587"/>
      <point x="958" y="569"/>
      <point x="921" y="559" type="curve"/>
      <point x="607" y="179" type="line"/>
      <point x="627" y="158" type="line"/>
      <point x="875" y="158" type="line"/>
      <point x="861" y="74" type="line" smooth="yes"/>
      <point x="859" y="63"/>
      <point x="838" y="54"/>
      <point x="744" y="40" type="curve"/>
      <point x="737" y="0" type="line"/>
      <point x="1061" y="0" type="line"/>
      <point x="1067" y="40" type="line"/>
      <point x="1010" y="52"/>
      <point x="996" y="60"/>
      <point x="997" y="69" type="curve" smooth="yes"/>
      <point x="1012" y="158" type="line"/>
      <point x="1045" y="158" type="line"/>
      <point x="1062" y="169"/>
      <point x="1093" y="195"/>
    </contour>
    <contour>
      <point x="886" y="231" type="line"/>
      <point x="737" y="231" type="line"/>
      <point x="924" y="461" type="line"/>
    </contour>
  </outline>
</glyph>
<glyph name="LtnSmSharpS" format="2">
  <advance width="1163"/>
  <unicode hex="00DF"/>
  <anchor x="382" y="-100" name="L"/>
  <anchor x="620" y="1640" name="U"/>
  <outline>
    <contour>
      <point x="1120" y="1225" type="curve" smooth="yes"/>
      <point x="1120" y="1364"/>
      <point x="992" y="1518"/>
      <point x="770" y="1518" type="curve" smooth="yes"/>
      <point x="660" y="1518"/>
      <point x="550" y="1481"/>
      <point x="473" y="1425" type="curve" smooth="yes"/>
      <point x="304" y="1303"/>
      <point x="187" y="1118"/>
      <point x="160" y="899" type="curve"/>
      <point x="72" y="139" type="line"/>
      <point x="48" y="-80"/>
      <point x="-36" y="-318"/>
      <point x="-170" y="-392" type="curve"/>
      <point x="-123" y="-485" type="line"/>
      <point x="74" y="-365"/>
      <point x="311" y="-102"/>
      <point x="346" y="193" type="curve"/>
      <point x="434" y="952" type="line"/>
      <point x="458" y="1174"/>
      <point x="525" y="1367"/>
      <point x="694" y="1367" type="curve" smooth="yes"/>
      <point x="763" y="1367"/>
      <point x="859" y="1272"/>
      <point x="859" y="1153" type="curve" smooth="yes"/>
      <point x="859" y="899"/>
      <point x="555" y="911"/>
      <point x="555" y="668" type="curve" smooth="yes"/>
      <point x="555" y="455"/>
      <point x="868" y="457"/>
      <point x="868" y="233" type="curve" smooth="yes"/>
      <point x="868" y="121"/>
      <point x="797" y="97"/>
      <point x="741" y="97" type="curve" smooth="yes"/>
      <point x="639" y="97"/>
      <point x="577" y="323"/>
      <point x="552" y="323" type="curve" smooth="yes"/>
      <point x="522" y="323"/>
      <point x="432" y="141"/>
      <point x="432" y="114" type="curve" smooth="yes"/>
      <point x="432" y="55"/>
      <point x="581" y="-41"/>
      <point x="693" y="-41" type="curve" smooth="yes"/>
      <point x="917" y="-41"/>
      <point x="1124" y="147"/>
      <point x="1124" y="311" type="curve" smooth="yes"/>
      <point x="1124" y="539"/>
      <point x="806" y="586"/>
      <point x="806" y="731" type="curve" smooth="yes"/>
      <point x="806" y="905"/>
      <point x="1120" y="901"/>
    </contour>
  </outline>
</glyph>
<glyph name="LtnSmDCaron" format="2">
  <advance width="1280"/>
  <unicode hex="010F"/>
  <anchor x="700" y="0" name="H"/>
  <anchor x="374" y="-100" name="L"/>
  <anchor x="455" y="1000" name="U"/>
  <outline>
    <component base="LtnSmD"/>
    <contour>
      <point x="1135" y="1051" type="curve"/>
      <point x="1234" y="1193"/>
      <point x="1340" y="1367"/>
      <point x="1375" y="1496" type="curve"/>
      <point x="1366" y="1512"/>
      <point x="1354" y="1524"/>
      <point x="1341" y="1534" type="curve"/>
      <point x="1283" y="1526"/>
      <point x="1180" y="1498"/>
      <point x="1119" y="1470" type="curve"/>
      <point x="1122" y="1370"/>
      <point x="1085" y="1213"/>
      <point x="993" y="1015" type="curve"/>
      <point x="1039" y="1020"/>
      <point x="1104" y="1036"/>
    </contour>
  </outline>
</glyph>
<glyph name="LtnSmEOgonek" format="2">
  <advance width="885"/>
  <unicode hex="0119"/>
  <anchor x="284" y="-600" name="L"/>
  <anchor x="510" y="1000" name="U"/>
  <outline>
    <contour>
      <point x="741" y="-242" type="curve"/>
      <point x="711" y="-177" type="line"/>
      <point x="654" y="-227"/>
      <point x="574" y="-280"/>
      <point x="523" y="-280" type="curve" smooth="yes"/>
      <point x="489" y="-280"/>
      <point x="475" y="-258"/>
      <point x="475" y="-211" type="curve" smooth="yes"/>
      <point x="475" y="-145"/>
      <point x="533" y="-15"/>
      <point x="694" y="119" type="curve" smooth="yes"/>
      <point x="729" y="148"/>
      <point x="801" y="207"/>
      <point x="827" y="230" type="curve"/>
      <point x="823" y="240"/>
      <point x="791" y="303"/>
      <point x="776" y="311" type="curve"/>
      <point x="615" y="182"/>
      <point x="504" y="126"/>
      <point x="447" y="126" type="curve" smooth="yes"/>
      <point x="386" y="126"/>
      <point x="328" y="191"/>
      <point x="311" y="318" type="curve"/>
      <point x="784" y="487"/>
      <point x="850" y="647"/>
      <point x="850" y="760" type="curve" smooth="yes"/>
      <point x="850" y="846"/>
      <point x="776" y="936"/>
      <point x="612" y="936" type="curve" smooth="yes"/>
      <point x="500" y="936"/>
      <point x="372" y="866"/>
      <point x="312" y="816" type="curve" smooth="yes"/>
      <point x="152" y="682"/>
      <point x="43" y="512"/>
      <point x="43" y="303" type="curve" smooth="yes"/>
      <point x="43" y="51"/>
      <point x="227" y="-41"/>
      <point x="345" y="-41" type="curve" smooth="yes"/>
      <point x="380" y="-41"/>
      <point x="433" y="-33"/>
      <point x="461" y="-22" type="curve"/>
      <point x="320" y="-138"/>
      <point x="257" y="-243"/>
      <point x="256" y="-326" type="curve" smooth="yes"/>
      <point x="255" y="-412"/>
      <point x="314" y="-446"/>
      <point x="386" y="-446" type="curve" smooth="yes"/>
      <point x="482" y="-446"/>
      <point x="633" y="-342"/>
    </contour>
    <contour>
      <point x="401" y="722" type="curve" smooth="yes"/>
      <point x="433" y="763"/>
      <point x="487" y="791"/>
      <point x="508" y="791" type="curve" smooth="yes"/>
      <point x="543" y="791"/>
      <point x="570" y="759"/>
      <point x="570" y="705" type="curve" smooth="yes"/>
      <point x="570" y="621"/>
      <point x="536" y="551"/>
      <point x="306" y="446" type="curve"/>
      <point x="311" y="569"/>
      <point x="346" y="651"/>
    </contour>
  </outline>
</glyph>
<glyph name="LtnCapLCaron" format="2">
  <advance width="1018"/>
  <unicode hex="013D"/>
  <anchor x="402" y="0" name="H"/>
  <anchor x="393" y="-100" name="L"/>
  <anchor x="557" y="1320" name="U"/>
  <outline>
    <component base="LtnCapL"/>
    <contour>
      <point x="845" y="1051" type="curve"/>
      <point x="944" y="1193"/>
      <point x="1050" y="1367"/>
      <point x="1085" y="1496" type="curve"/>
      <point x="1076" y="1512"/>
      <point x="1064" y="1524"/>
      <point x="1051" y="1534" type="curve"/>
      <point x="993" y="1526"/>
      <point x="890" y="1498"/>
      <point x="829" y="1470" type="curve"/>
      <point x="832" y="1370"/>
      <point x="795" y="1213"/>
      <point x="703" y="1015" type="curve"/>
      <point x="749" y="1020"/>
      <point x="814" y="1036"/>
    </contour>
  </outline>
</glyph>
<glyph name="LtnCapLStrk" format="2">
  <advance width="1018"/>
  <unicode hex="0141"/>
  <anchor x="446" y="-100" name="L"/>
  <anchor x="630" y="1320" name="U"/>
  <outline>
    <contour>
      <point x="968" y="324" type="curve"/>
      <point x="895" y="352" type="line"/>
      <point x="820" y="196"/>
      <point x="776" y="130"/>
      <point x="662" y="130" type="curve" smooth="yes"/>
      <point x="566" y="130" type="line" smooth="yes"/>
      <point x="430" y="130"/>
      <point x="397" y="157"/>
      <point x="403" y="204" type="curve" smooth="yes"/>
      <point x="528" y="1115" type="line" smooth="yes"/>
      <point x="531" y="1134"/>
      <point x="576" y="1158"/>
      <point x="663" y="1177" type="curve"/>
      <point x="674" y="1260" type="line"/>
      <point x="162" y="1260" type="line"/>
      <point x="151" y="1177" type="line"/>
      <point x="237" y="1158"/>
      <point x="270" y="1131"/>
      <point x="268" y="1115" type="curve" smooth="yes"/>
      <point x="135" y="144" type="line" smooth="yes"/>
      <point x="133" y="126"/>
      <point x="87" y="101"/>
      <point x="1" y="83" type="curve"/>
      <point x="-10" y="0" type="line"/>
      <point x="886" y="0" type="line"/>
      <point x="900" y="39"/>
      <point x="943" y="209"/>
    </contour>
    <contour>
      <point x="792" y="877" type="curve"/>
      <point x="771" y="902" type="line"/>
      <point x="91" y="549" type="line"/>
      <point x="75" y="523"/>
      <point x="30" y="442"/>
      <point x="21" y="397" type="curve"/>
      <point x="43" y="375" type="line"/>
      <point x="719" y="727" type="line"/>
      <point x="740" y="758"/>
      <point x="781" y="833"/>
    </contour>
  </outline>
</glyph>
<glyph name="LtnSmTCaron" format="2">
  <advance width="830"/>
  <unicode hex="0165"/>
  <anchor x="253" y="0" name="H"/>
  <anchor x="239" y="-100" name="L"/>
  <anchor x="424" y="1230" name="U"/>
  <outline>
    <component base="LtnSmT"/>
    <contour>
      <point x="685" y="1051" type="curve"/>
      <point x="784" y="1193"/>
      <point x="890" y="1367"/>
      <point x="925" y="1496" type="curve"/>
      <point x="916" y="1512"/>
      <point x="904" y="1524"/>
      <point x="891" y="1534" type="curve"/>
      <point x="833" y="1526"/>
      <point x="730" y="1498"/>
      <point x="669" y="1470" type="curve"/>
      <point x="672" y="1370"/>
      <point x="635" y="1213"/>
      <point x="543" y="1015" type="curve"/>
      <point x="589" y="1020"/>
      <point x="654" y="1036"/>
    </contour>
  </outline>
</glyph>
<glyph name="LtnCapBHook" format="2">
  <advance width="1391"/>
  <unicode hex="0181"/>
  <anchor x="668" y="-100" name="L"/>
  <anchor x="853" y="1320" name="U"/>
  <outline>
    <contour>
      <point x="1331" y="410" type="curve" smooth="yes"/>
      <point x="1331" y="569"/>
      <point x="1241" y="698"/>
      <point x="1064" y="723" type="curve"/>
      <point x="1243" y="783"/>
      <point x="1325" y="901"/>
      <point x="1325" y="1040" type="curve" smooth="yes"/>
      <point x="1325" y="1196"/>
      <point x="1237" y="1290"/>
      <point x="785" y="1290" type="curve" smooth="yes"/>
      <point x="343" y="1290"/>
      <point x="136" y="1151"/>
      <point x="103" y="953" type="curve" smooth="yes"/>
      <point x="91" y="880"/>
      <point x="118" y="787"/>
      <point x="159" y="766" type="curve"/>
      <point x="210" y="777"/>
      <point x="404" y="864"/>
      <point x="413" y="880" type="curve"/>
      <point x="378" y="899"/>
      <point x="358" y="938"/>
      <point x="365" y="986" type="curve" smooth="yes"/>
      <point x="388" y="1154"/>
      <point x="623" y="1176"/>
      <point x="778" y="1176" type="curve" smooth="yes"/>
      <point x="980" y="1176"/>
      <point x="1049" y="1126"/>
      <point x="1049" y="987" type="curve" smooth="yes"/>
      <point x="1049" y="785"/>
      <point x="885" y="745"/>
      <point x="767" y="745" type="curve" smooth="yes"/>
      <point x="676" y="745" type="line"/>
      <point x="672" y="607" type="line"/>
      <point x="732" y="617"/>
      <point x="755" y="629"/>
      <point x="835" y="629" type="curve" smooth="yes"/>
      <point x="1019" y="629"/>
      <point x="1055" y="508"/>
      <point x="1055" y="375" type="curve" smooth="yes"/>
      <point x="1055" y="213"/>
      <point x="989" y="93"/>
      <point x="833" y="93" type="curve" smooth="yes"/>
      <point x="768" y="93"/>
      <point x="706" y="103"/>
      <point x="659" y="138" type="curve"/>
      <point x="323" y="0" type="line"/>
      <point x="323" y="0"/>
      <point x="696" y="-31"/>
      <point x="803" y="-31" type="curve" smooth="yes"/>
      <point x="1084" y="-31"/>
      <point x="1331" y="150"/>
    </contour>
    <contour>
      <point x="823" y="1260" type="line"/>
      <point x="562" y="1260" type="line"/>
      <point x="408" y="144" type="line" smooth="yes"/>
      <point x="406" y="126"/>
      <point x="361" y="101"/>
      <point x="277" y="83" type="curve"/>
      <point x="267" y="0" type="line"/>
      <point x="782" y="0" type="line"/>
      <point x="792" y="63" type="line"/>
      <point x="708" y="81"/>
      <point x="665" y="128"/>
      <point x="669" y="144" type="curve"/>
    </contour>
  </outline>
</glyph>
<glyph name="LtnCapCHook" format="2">
  <advance width="1055"/>
  <unicode hex="0187"/>
  <anchor x="521" y="-100" name="L"/>
  <anchor x="706" y="1320" name="U"/>
  <outline>
    <contour>
      <point x="1512" y="1447" type="curve" smooth="yes"/>
      <point x="1518" y="1488"/>
      <point x="1416" y="1590"/>
      <point x="1292" y="1590" type="curve" smooth="yes"/>
      <point x="1200" y="1590"/>
      <point x="1119" y="1531"/>
      <point x="1046" y="1463" type="curve" smooth="yes"/>
      <point x="972" y="1393"/>
      <point x="916" y="1311"/>
      <point x="890" y="1210" type="curve"/>
      <point x="959" y="1201"/>
      <point x="1027" y="1192"/>
      <point x="1096" y="1183" type="curve"/>
      <point x="1117" y="1329"/>
      <point x="1159" y="1425"/>
      <point x="1217" y="1425" type="curve" smooth="yes"/>
      <point x="1250" y="1425"/>
      <point x="1290" y="1408"/>
      <point x="1290" y="1249" type="curve"/>
      <point x="1382" y="1305"/>
      <point x="1507" y="1415"/>
    </contour>
    <contour>
      <point x="1096" y="1190" type="curve"/>
      <point x="1038" y="1245"/>
      <point x="894" y="1290"/>
      <point x="763" y="1290" type="curve" smooth="yes"/>
      <point x="638" y="1290"/>
      <point x="484" y="1243"/>
      <point x="387" y="1167" type="curve" smooth="yes"/>
      <point x="162" y="989"/>
      <point x="56" y="711"/>
      <point x="56" y="459" type="curve" smooth="yes"/>
      <point x="56" y="150"/>
      <point x="246" y="-27"/>
      <point x="487" y="-27" type="curve" smooth="yes"/>
      <point x="612" y="-27"/>
      <point x="795" y="32"/>
      <point x="977" y="211" type="curve"/>
      <point x="971" y="219"/>
      <point x="951" y="280"/>
      <point x="938" y="286" type="curve"/>
      <point x="769" y="167"/>
      <point x="668" y="145"/>
      <point x="603" y="146" type="curve" smooth="yes"/>
      <point x="491" y="148"/>
      <point x="327" y="225"/>
      <point x="327" y="516" type="curve" smooth="yes"/>
      <point x="327" y="684"/>
      <point x="373" y="969"/>
      <point x="541" y="1100" type="curve" smooth="yes"/>
      <point x="594" y="1141"/>
      <point x="633" y="1149"/>
      <point x="686" y="1149" type="curve" smooth="yes"/>
      <point x="795" y="1149"/>
      <point x="862" y="1058"/>
      <point x="891" y="965" type="curve"/>
      <point x="961" y="947" type="line"/>
      <point x="996" y="977"/>
      <point x="1106" y="1178"/>
    </contour>
  </outline>
</glyph>
<glyph name="LtnSmCHook" format="2">
  <advance width="899"/>
  <unicode hex="0188"/>
  <anchor x="430" y="-100" name="L"/>
  <anchor x="604" y="1130" name="U"/>
  <outline>
    <contour>
      <point x="371" y="-41" type="curve" smooth="yes"/>
      <point x="499" y="-41"/>
      <point x="636" y="30"/>
      <point x="845" y="220" type="curve"/>
      <point x="839" y="230"/>
      <point x="800" y="287"/>
      <point x="790" y="301" type="curve"/>
      <point x="647" y="184"/>
      <point x="548" y="126"/>
      <point x="469" y="126" type="curve" smooth="yes"/>
      <point x="395" y="126"/>
      <point x="343" y="226"/>
      <point x="343" y="398" type="curve" smooth="yes"/>
      <point x="343" y="585"/>
      <point x="419" y="781"/>
      <point x="551" y="781" type="curve" smooth="yes"/>
      <point x="627" y="781"/>
      <point x="665" y="651"/>
      <point x="713" y="651" type="curve" smooth="yes"/>
      <point x="758" y="651"/>
      <point x="881" y="764"/>
      <point x="937" y="825" type="curve"/>
      <point x="855" y="852"/>
      <point x="791" y="936"/>
      <point x="674" y="936" type="curve" smooth="yes"/>
      <point x="552" y="936"/>
      <point x="417" y="871"/>
      <point x="343" y="822" type="curve" smooth="yes"/>
      <point x="147" y="691"/>
      <point x="77" y="502"/>
      <point x="77" y="322" type="curve" smooth="yes"/>
      <point x="77" y="41"/>
      <point x="251" y="-41"/>
    </contour>
    <contour>
      <point x="860" y="807" type="line"/>
      <point x="886" y="1066"/>
      <point x="903" y="1170"/>
      <point x="976" y="1170" type="curve" smooth="yes"/>
      <point x="1030" y="1170"/>
      <point x="1063" y="1048"/>
      <point x="1098" y="1048" type="curve" smooth="yes"/>
      <point x="1130" y="1048"/>
      <point x="1289" y="1185"/>
      <point x="1346" y="1226" type="curve"/>
      <point x="1286" y="1233"/>
      <point x="1183" y="1353"/>
      <point x="1066" y="1353" type="curve" smooth="yes"/>
      <point x="1004" y="1353"/>
      <point x="937" y="1315"/>
      <point x="860" y="1247" type="curve" smooth="yes"/>
      <point x="757" y="1156"/>
      <point x="736" y="1084"/>
      <point x="709" y="917" type="curve"/>
    </contour>
  </outline>
</glyph>
<glyph name="LtnCapDHook" format="2">
  <advance width="1518"/>
  <unicode hex="018A"/>
  <anchor x="757" y="-100" name="L"/>
  <anchor x="947" y="1320" name="U"/>
  <outline>
    <contour>
      <point x="103" y="963" type="curve" smooth="yes"/>
      <point x="93" y="890"/>
      <point x="118" y="777"/>
      <point x="159" y="756" type="curve"/>
      <point x="210" y="767"/>
      <point x="424" y="854"/>
      <point x="433" y="870" type="curve"/>
      <point x="381" y="893"/>
      <point x="359" y="938"/>
      <point x="365" y="986" type="curve" smooth="yes"/>
      <point x="376" y="1070"/>
      <point x="429" y="1132"/>
      <point x="554" y="1156" type="curve"/>
      <point x="414" y="144" type="line" smooth="yes"/>
      <point x="411" y="126"/>
      <point x="363" y="101"/>
      <point x="279" y="83" type="curve"/>
      <point x="265" y="0" type="line"/>
      <point x="793" y="0" type="line" smooth="yes"/>
      <point x="1099" y="0"/>
      <point x="1421" y="166"/>
      <point x="1483" y="646" type="curve" smooth="yes"/>
      <point x="1511" y="860"/>
      <point x="1475" y="1072"/>
      <point x="1322" y="1193" type="curve" smooth="yes"/>
      <point x="1240" y="1257"/>
      <point x="1124" y="1290"/>
      <point x="880" y="1290" type="curve" smooth="yes"/>
      <point x="357" y="1290"/>
      <point x="130" y="1166"/>
    </contour>
    <contour>
      <point x="827" y="1176" type="line" smooth="yes"/>
      <point x="916" y="1176"/>
      <point x="1039" y="1161"/>
      <point x="1115" y="1091" type="curve" smooth="yes"/>
      <point x="1222" y="992"/>
      <point x="1222" y="797"/>
      <point x="1199" y="616" type="curve" smooth="yes"/>
      <point x="1151" y="245"/>
      <point x="918" y="114"/>
      <point x="804" y="114" type="curve" smooth="yes"/>
      <point x="678" y="114"/>
      <point x="672" y="130"/>
      <point x="679" y="180" type="curve" smooth="yes"/>
      <point x="679" y="182"/>
      <point x="673" y="122"/>
      <point x="816" y="1176" type="curve"/>
    </contour>
  </outline>
</glyph>
<glyph name="LtnCapRevE" format="2">
  <advance width="1004"/>
  <unicode hex="018E"/>
  <anchor x="439" y="-100" name="L"/>
  <anchor x="624" y="1320" name="U"/>
  <outline>
    <contour>
      <point x="198" y="976" type="curve"/>
      <point x="275" y="948" type="line"/>
      <point x="347" y="1104"/>
      <point x="380" y="1130"/>
      <point x="490" y="1130" type="curve" smooth="yes"/>
      <point x="689" y="1130" type="line"/>
      <point x="559" y="203" type="line" smooth="yes"/>
      <point x="551" y="150"/>
      <point x="523" y="130"/>
      <point x="368" y="130" type="curve" smooth="yes"/>
      <point x="235" y="130" type="line" smooth="yes"/>
      <point x="191" y="130"/>
      <point x="139" y="244"/>
      <point x="151" y="367" type="curve"/>
      <point x="70" y="367" type="line"/>
      <point x="49" y="316"/>
      <point x="31" y="103"/>
      <point x="31" y="35" type="curve"/>
      <point x="68" y="0" type="line"/>
      <point x="919" y="0" type="line"/>
      <point x="931" y="83" type="line"/>
      <point x="847" y="102"/>
      <point x="813" y="129"/>
      <point x="815" y="145" type="curve" smooth="yes"/>
      <point x="949" y="1116" type="line" smooth="yes"/>
      <point x="952" y="1134"/>
      <point x="995" y="1159"/>
      <point x="1079" y="1177" type="curve"/>
      <point x="1090" y="1260" type="line"/>
      <point x="274" y="1260" type="line"/>
      <point x="258" y="1221"/>
      <point x="223" y="1091"/>
    </contour>
    <contour>
      <point x="195" y="623" type="curve"/>
      <point x="216" y="595" type="line"/>
      <point x="255" y="606"/>
      <point x="337" y="615"/>
      <point x="393" y="615" type="curve" smooth="yes"/>
      <point x="652" y="615" type="line"/>
      <point x="692" y="735" type="line"/>
      <point x="506" y="735" type="line" smooth="yes"/>
      <point x="405" y="735"/>
      <point x="365" y="741"/>
      <point x="333" y="780" type="curve"/>
      <point x="304" y="759"/>
      <point x="221" y="660"/>
    </contour>
  </outline>
</glyph>
<glyph name="LtnCapGamma" format="2">
  <advance width="1268"/>
  <unicode hex="0194"/>
  <anchor x="390" y="-100" name="L"/>
  <anchor x="585" y="1320" name="U"/>
  <outline>
    <contour>
      <point x="1287" y="1177" type="curve"/>
      <point x="1299" y="1260" type="line"/>
      <point x="910" y="1260" type="line"/>
      <point x="898" y="1177" type="line"/>
      <point x="995" y="1162"/>
      <point x="1008" y="1153"/>
      <point x="948" y="1073" type="curve"/>
      <point x="428" y="399" type="line"/>
      <point x="351" y="295"/>
      <point x="320" y="253"/>
      <point x="310" y="186" type="curve" smooth="yes"/>
      <point x="292" y="56"/>
      <point x="388" y="-30"/>
      <point x="556" y="-30" type="curve" smooth="yes"/>
      <point x="765" y="-30"/>
      <point x="899" y="57"/>
      <point x="923" y="225" type="curve" smooth="yes"/>
      <point x="935" y="313"/>
      <point x="904" y="386"/>
      <point x="842" y="497" type="curve" smooth="yes"/>
      <point x="523" y="1075" type="line"/>
      <point x="490" y="1147"/>
      <point x="497" y="1164"/>
      <point x="602" y="1177" type="curve"/>
      <point x="614" y="1260" type="line"/>
      <point x="98" y="1260" type="line"/>
      <point x="86" y="1177" type="line"/>
      <point x="166" y="1168"/>
      <point x="186" y="1147"/>
      <point x="218" y="1075" type="curve"/>
      <point x="596" y="381" type="line"/>
      <point x="647" y="263"/>
      <point x="655" y="241"/>
      <point x="649" y="198" type="curve" smooth="yes"/>
      <point x="641" y="137"/>
      <point x="607" y="100"/>
      <point x="558" y="100" type="curve" smooth="yes"/>
      <point x="512" y="100"/>
      <point x="477" y="130"/>
      <point x="487" y="202" type="curve" smooth="yes"/>
      <point x="492" y="237"/>
      <point x="537" y="318"/>
      <point x="638" y="438" type="curve"/>
      <point x="1127" y="1073" type="line"/>
      <point x="1189" y="1155"/>
      <point x="1198" y="1162"/>
    </contour>
  </outline>
</glyph>
<glyph name="LtnSmHv" format="2">
  <advance width="1595"/>
  <unicode hex="0195"/>
  <anchor x="695" y="-100" name="L"/>
  <anchor x="934" y="1640" name="U"/>
  <outline>
    <contour>
      <point x="994" y="760" type="line"/>
      <point x="994" y="889"/>
      <point x="966" y="936"/>
      <point x="862" y="936" type="curve" smooth="yes"/>
      <point x="783" y="936"/>
      <point x="639" y="909"/>
      <point x="453" y="737" type="curve"/>
      <point x="477" y="882"/>
      <point x="552" y="1343"/>
      <point x="552" y="1438" type="curve" smooth="yes"/>
      <point x="552" y="1499"/>
      <point x="520" y="1520"/>
      <point x="483" y="1520" type="curve" smooth="yes"/>
      <point x="428" y="1520"/>
      <point x="210" y="1435"/>
      <point x="98" y="1385" type="curve"/>
      <point x="115" y="1306" type="line"/>
      <point x="115" y="1306"/>
      <point x="195" y="1333"/>
      <point x="220" y="1333" type="curve" smooth="yes"/>
      <point x="242" y="1333"/>
      <point x="261" y="1327"/>
      <point x="261" y="1266" type="curve" smooth="yes"/>
      <point x="261" y="1096"/>
      <point x="125" y="286"/>
      <point x="76" y="0" type="curve"/>
      <point x="119" y="-41" type="line"/>
      <point x="152" y="-23"/>
      <point x="337" y="56"/>
      <point x="372" y="75" type="curve"/>
      <point x="368" y="132"/>
      <point x="372" y="154"/>
      <point x="395" y="301" type="curve" smooth="yes"/>
      <point x="413" y="420"/>
      <point x="439" y="521"/>
      <point x="476" y="582" type="curve" smooth="yes"/>
      <point x="546" y="698"/>
      <point x="633" y="716"/>
      <point x="662" y="716" type="curve" smooth="yes"/>
      <point x="705" y="716"/>
      <point x="703" y="670"/>
      <point x="705" y="620" type="curve"/>
    </contour>
    <contour>
      <point x="1559" y="595" type="curve" smooth="yes"/>
      <point x="1582" y="806"/>
      <point x="1506" y="917"/>
      <point x="1375" y="934" type="curve"/>
      <point x="1334" y="922"/>
      <point x="1164" y="861"/>
      <point x="1123" y="842" type="curve"/>
      <point x="1133" y="771" type="line"/>
      <point x="1257" y="771"/>
      <point x="1290" y="662"/>
      <point x="1274" y="515" type="curve" smooth="yes"/>
      <point x="1250" y="297"/>
      <point x="1127" y="102"/>
      <point x="1029" y="102" type="curve" smooth="yes"/>
      <point x="976" y="102"/>
      <point x="934" y="135"/>
      <point x="934" y="292" type="curve" smooth="yes"/>
      <point x="934" y="409"/>
      <point x="994" y="643"/>
      <point x="994" y="760" type="curve" smooth="yes"/>
      <point x="994" y="893"/>
      <point x="705" y="644"/>
      <point x="705" y="620" type="curve" smooth="yes"/>
      <point x="705" y="522"/>
      <point x="657" y="354"/>
      <point x="657" y="235" type="curve" smooth="yes"/>
      <point x="657" y="43"/>
      <point x="786" y="-41"/>
      <point x="952" y="-41" type="curve" smooth="yes"/>
      <point x="1262" y="-41"/>
      <point x="1531" y="340"/>
    </contour>
  </outline>
</glyph>
<glyph name="LtnCapIota" format="2">
  <advance width="713"/>
  <unicode hex="0196"/>
  <anchor x="170" y="-100" name="L"/>
  <anchor x="364" y="1320" name="U"/>
  <outline>
    <contour>
      <point x="677" y="195" type="line"/>
      <point x="643" y="281" type="line"/>
      <point x="548" y="219"/>
      <point x="483" y="181"/>
      <point x="439" y="181" type="curve" smooth="yes"/>
      <point x="384" y="181"/>
      <point x="379" y="208"/>
      <point x="404" y="388" type="curve" smooth="yes"/>
      <point x="553" y="1290" type="line"/>
      <point x="470" y="1290" type="line"/>
      <point x="380" y="1257"/>
      <point x="207" y="1236"/>
      <point x="91" y="1220" type="curve"/>
      <point x="80" y="1140" type="line"/>
      <point x="202" y="1127"/>
      <point x="267" y="1123"/>
      <point x="246" y="970" type="curve" smooth="yes"/>
      <point x="127" y="233" type="line" smooth="yes"/>
      <point x="102" y="53"/>
      <point x="148" y="-30"/>
      <point x="268" y="-30" type="curve" smooth="yes"/>
      <point x="345" y="-30"/>
      <point x="447" y="27"/>
      <point x="640" y="168" type="curve" smooth="yes"/>
    </contour>
  </outline>
</glyph>
<glyph name="LtnSmLambdaStrk" format="2">
  <advance width="1057"/>
  <unicode hex="019B"/>
  <anchor x="426" y="-100" name="L"/>
  <anchor x="811" y="1330" name="U"/>
  <outline>
    <contour>
      <point x="587" y="851" type="curve"/>
      <point x="585" y="871"/>
      <point x="537" y="1032"/>
      <point x="514" y="1057" type="curve"/>
      <point x="408" y="773"/>
      <point x="212" y="322"/>
      <point x="-60" y="2" type="curve"/>
      <point x="-27" y="-41" type="line"/>
      <point x="20" y="-29"/>
      <point x="190" y="-9"/>
      <point x="239" y="-5" type="curve"/>
      <point x="352" y="325"/>
      <point x="449" y="596"/>
    </contour>
    <contour>
      <point x="947" y="1248" type="curve"/>
      <point x="923" y="1274" type="line"/>
      <point x="261" y="1016" type="line"/>
      <point x="240" y="986"/>
      <point x="216" y="931"/>
      <point x="207" y="906" type="curve"/>
      <point x="231" y="880" type="line"/>
      <point x="896" y="1142" type="line"/>
      <point x="913" y="1165"/>
      <point x="937" y="1218"/>
    </contour>
    <contour>
      <point x="1037" y="122" type="curve"/>
      <point x="1010" y="199" type="line"/>
      <point x="961" y="174"/>
      <point x="926" y="166"/>
      <point x="895" y="166" type="curve" smooth="yes"/>
      <point x="832" y="166"/>
      <point x="774" y="406"/>
      <point x="741" y="803" type="curve" smooth="yes"/>
      <point x="705" y="1235"/>
      <point x="657" y="1450"/>
      <point x="578" y="1450" type="curve" smooth="yes"/>
      <point x="530" y="1450"/>
      <point x="311" y="1373"/>
      <point x="199" y="1314" type="curve"/>
      <point x="223" y="1235" type="line"/>
      <point x="265" y="1246"/>
      <point x="330" y="1261"/>
      <point x="353" y="1261" type="curve" smooth="yes"/>
      <point x="409" y="1261"/>
      <point x="470" y="1119"/>
      <point x="505" y="730" type="curve" smooth="yes"/>
      <point x="544" y="297"/>
      <point x="588" y="-41"/>
      <point x="688" y="-41" type="curve" smooth="yes"/>
      <point x="780" y="-41"/>
      <point x="922" y="42"/>
    </contour>
  </outline>
</glyph>
<glyph name="LtnCapOi" format="2">
  <advance width="1722"/>
  <unicode hex="01A2"/>
  <anchor x="713" y="-100" name="L"/>
  <anchor x="898" y="1320" name="U"/>
  <outline>
    <contour>
      <point x="1159" y="1083" type="line"/>
      <point x="1066" y="1187"/>
      <point x="945" y="1290"/>
      <point x="793" y="1290" type="curve" smooth="yes"/>
      <point x="435" y="1290"/>
      <point x="65" y="896"/>
      <point x="65" y="459" type="curve" smooth="yes"/>
      <point x="65" y="193"/>
      <point x="227" y="-30"/>
      <point x="459" y="-30" type="curve" smooth="yes"/>
      <point x="642" y="-30"/>
      <point x="900" y="90"/>
      <point x="1058" y="436" type="curve"/>
    </contour>
    <contour>
      <point x="899" y="1002" type="curve"/>
      <point x="814" y="488" type="line"/>
      <point x="790" y="344"/>
      <point x="649" y="160"/>
      <point x="538" y="160" type="curve" smooth="yes"/>
      <point x="404" y="160"/>
      <point x="328" y="308"/>
      <point x="328" y="524" type="curve" smooth="yes"/>
      <point x="328" y="716"/>
      <point x="431" y="1116"/>
      <point x="677" y="1116" type="curve" smooth="yes"/>
      <point x="760" y="1116"/>
      <point x="852" y="1063"/>
    </contour>
    <contour>
      <point x="999" y="980" type="line"/>
      <point x="1116" y="1013"/>
      <point x="1189" y="1032"/>
      <point x="1260" y="1032" type="curve" smooth="yes"/>
      <point x="1329" y="1032"/>
      <point x="1350" y="1009"/>
      <point x="1350" y="975" type="curve" smooth="yes"/>
      <point x="1350" y="934"/>
      <point x="1334" y="809"/>
      <point x="1322" y="725" type="curve" smooth="yes"/>
      <point x="1193" y="-206" type="line"/>
      <point x="1190" y="-224"/>
      <point x="1145" y="-249"/>
      <point x="1059" y="-267" type="curve"/>
      <point x="1048" y="-350" type="line"/>
      <point x="1560" y="-350" type="line"/>
      <point x="1571" y="-267" type="line"/>
      <point x="1484" y="-249"/>
      <point x="1451" y="-222"/>
      <point x="1453" y="-206" type="curve" smooth="yes"/>
      <point x="1658" y="1243" type="line"/>
      <point x="1592" y="1290" type="line"/>
      <point x="1467" y="1229"/>
      <point x="1144" y="1104"/>
      <point x="969" y="1079" type="curve"/>
    </contour>
  </outline>
</glyph>
<glyph name="LtnSmOi" format="2">
  <advance width="1426"/>
  <unicode hex="01A3"/>
  <anchor x="473" y="-100" name="L"/>
  <anchor x="840" y="1000" name="U"/>
  <outline>
    <contour>
      <point x="893" y="769" type="line"/>
      <point x="844" y="856"/>
      <point x="705" y="936"/>
      <point x="597" y="936" type="curve" smooth="yes"/>
      <point x="368" y="936"/>
      <point x="33" y="684"/>
      <point x="33" y="334" type="curve" smooth="yes"/>
      <point x="33" y="115"/>
      <point x="145" y="-41"/>
      <point x="331" y="-41" type="curve" smooth="yes"/>
      <point x="468" y="-41"/>
      <point x="752" y="109"/>
      <point x="811" y="292" type="curve"/>
    </contour>
    <contour>
      <point x="652" y="689" type="curve"/>
      <point x="595" y="352" type="line" smooth="yes"/>
      <point x="576" y="237"/>
      <point x="473" y="162"/>
      <point x="406" y="162" type="curve" smooth="yes"/>
      <point x="346" y="162"/>
      <point x="297" y="220"/>
      <point x="297" y="398" type="curve" smooth="yes"/>
      <point x="297" y="568"/>
      <point x="385" y="780"/>
      <point x="498" y="780" type="curve" smooth="yes"/>
      <point x="561" y="780"/>
      <point x="608" y="741"/>
    </contour>
    <contour>
      <point x="1351" y="-338" type="curve"/>
      <point x="1321" y="-261" type="line"/>
      <point x="1269" y="-286"/>
      <point x="1251" y="-294"/>
      <point x="1220" y="-294" type="curve" smooth="yes"/>
      <point x="1196" y="-294"/>
      <point x="1184" y="-280"/>
      <point x="1184" y="-235" type="curve" smooth="yes"/>
      <point x="1184" y="-148"/>
      <point x="1279" y="343"/>
      <point x="1320" y="617" type="curve" smooth="yes"/>
      <point x="1361" y="891" type="line"/>
      <point x="1311" y="936" type="line"/>
      <point x="1184" y="875"/>
      <point x="888" y="750"/>
      <point x="721" y="735" type="curve"/>
      <point x="765" y="633" type="line"/>
      <point x="825" y="653"/>
      <point x="919" y="679"/>
      <point x="984" y="679" type="curve" smooth="yes"/>
      <point x="1038" y="679"/>
      <point x="1051" y="661"/>
      <point x="1051" y="611" type="curve" smooth="yes"/>
      <point x="1051" y="597"/>
      <point x="1047" y="534"/>
      <point x="1040" y="490" type="curve" smooth="yes"/>
      <point x="1002" y="237"/>
      <point x="904" y="-190"/>
      <point x="904" y="-364" type="curve" smooth="yes"/>
      <point x="904" y="-436"/>
      <point x="933" y="-501"/>
      <point x="990" y="-501" type="curve" smooth="yes"/>
      <point x="1062" y="-501"/>
      <point x="1230" y="-410"/>
    </contour>
  </outline>
</glyph>
<glyph name="LtnSmPHook" format="2">
  <advance width="1045"/>
  <unicode hex="01A5"/>
  <anchor x="613" y="-100" name="L"/>
  <anchor x="657" y="1440" name="U"/>
  <outline>
    <contour>
      <point x="971" y="1226" type="curve"/>
      <point x="911" y="1233"/>
      <point x="799" y="1353"/>
      <point x="682" y="1353" type="curve" smooth="yes"/>
      <point x="590" y="1353"/>
      <point x="491" y="1305"/>
      <point x="400" y="1232" type="curve" smooth="yes"/>
      <point x="284" y="1139"/>
      <point x="219" y="1032"/>
      <point x="181" y="804" type="curve" smooth="yes"/>
      <point x="96" y="287"/>
      <point x="-6" y="-308"/>
      <point x="-26" y="-461" type="curve"/>
      <point x="16" y="-500" type="line"/>
      <point x="51" y="-484"/>
      <point x="237" y="-407"/>
      <point x="276" y="-397" type="curve"/>
      <point x="262" y="-360"/>
      <point x="270" y="-269"/>
      <point x="315" y="6" type="curve"/>
      <point x="382" y="406"/>
      <point x="391" y="501"/>
      <point x="455" y="855" type="curve" smooth="yes"/>
      <point x="489" y="1044"/>
      <point x="519" y="1170"/>
      <point x="592" y="1170" type="curve" smooth="yes"/>
      <point x="646" y="1170"/>
      <point x="689" y="1048"/>
      <point x="724" y="1048" type="curve" smooth="yes"/>
      <point x="756" y="1048"/>
      <point x="914" y="1185"/>
    </contour>
    <contour>
      <point x="985" y="627" type="curve" smooth="yes"/>
      <point x="985" y="827"/>
      <point x="879" y="936"/>
      <point x="756" y="936" type="curve" smooth="yes"/>
      <point x="652" y="936"/>
      <point x="553" y="891"/>
      <point x="383" y="694" type="curve"/>
      <point x="389" y="505" type="line"/>
      <point x="475" y="664"/>
      <point x="589" y="745"/>
      <point x="630" y="745" type="curve" smooth="yes"/>
      <point x="674" y="745"/>
      <point x="719" y="649"/>
      <point x="719" y="522" type="curve" smooth="yes"/>
      <point x="719" y="416"/>
      <point x="702" y="318"/>
      <point x="674" y="259" type="curve" smooth="yes"/>
      <point x="652" y="212"/>
      <point x="608" y="176"/>
      <point x="556" y="176" type="curve" smooth="yes"/>
      <point x="500" y="176"/>
      <point x="394" y="226"/>
      <point x="351" y="294" type="curve"/>
      <point x="325" y="144" type="line"/>
      <point x="413" y="18"/>
      <point x="519" y="-41"/>
      <point x="582" y="-41" type="curve" smooth="yes"/>
      <point x="690" y="-41"/>
      <point x="785" y="61"/>
      <point x="846" y="158" type="curve" smooth="yes"/>
      <point x="916" y="269"/>
      <point x="985" y="463"/>
    </contour>
  </outline>
</glyph>
<glyph name="LtnSmTnTwo" format="2">
  <advance width="811"/>
  <unicode hex="01A8"/>
  <anchor x="341" y="-100" name="L"/>
  <anchor x="492" y="1000" name="U"/>
  <outline>
    <contour>
      <point x="18" y="229" type="curve"/>
      <point x="-7" y="39"/>
      <point x="140" y="-41"/>
      <point x="353" y="-41" type="curve" smooth="yes"/>
      <point x="495" y="-41"/>
      <point x="635" y="3"/>
      <point x="722" y="61" type="curve"/>
      <point x="738" y="69"/>
      <point x="736" y="268"/>
      <point x="727" y="327" type="curve"/>
      <point x="638" y="307" type="line"/>
      <point x="607" y="176"/>
      <point x="489" y="86"/>
      <point x="367" y="86" type="curve" smooth="yes"/>
      <point x="321" y="86"/>
      <point x="262" y="123"/>
      <point x="272" y="213" type="curve" smooth="yes"/>
      <point x="281" y="298"/>
      <point x="388" y="346"/>
      <point x="491" y="397" type="curve" smooth="yes"/>
      <point x="590" y="446"/>
      <point x="782" y="554"/>
      <point x="803" y="709" type="curve" smooth="yes"/>
      <point x="825" y="873"/>
      <point x="720" y="936"/>
      <point x="496" y="936" type="curve" smooth="yes"/>
      <point x="363" y="936"/>
      <point x="188" y="886"/>
      <point x="135" y="840" type="curve" smooth="yes"/>
      <point x="118" y="825"/>
      <point x="149" y="637"/>
      <point x="161" y="617" type="curve"/>
      <point x="237" y="630" type="line"/>
      <point x="270" y="746"/>
      <point x="375" y="817"/>
      <point x="478" y="817" type="curve" smooth="yes"/>
      <point x="525" y="817"/>
      <point x="562" y="783"/>
      <point x="554" y="729" type="curve" smooth="yes"/>
      <point x="547" y="679"/>
      <point x="503" y="632"/>
      <point x="388" y="576" type="curve" smooth="yes"/>
      <point x="275" y="521"/>
      <point x="43" y="409"/>
    </contour>
  </outline>
</glyph>
<glyph name="LtnCapEsh" format="2">
  <advance width="1055"/>
  <unicode hex="01A9"/>
  <anchor x="426" y="-100" name="L"/>
  <anchor x="620" y="1320" name="U"/>
  <outline>
    <contour>
      <point x="987" y="415" type="curve"/>
      <point x="906" y="437" type="line"/>
      <point x="838" y="262"/>
      <point x="815" y="219"/>
      <point x="740" y="219" type="curve" smooth="yes"/>
      <point x="319" y="219" type="line"/>
      <point x="685" y="674" type="line"/>
      <point x="493" y="1119" type="line"/>
      <point x="842" y="1119" type="line" smooth="yes"/>
      <point x="877" y="1119"/>
      <point x="915" y="1091"/>
      <point x="932" y="893" type="curve"/>
      <point x="1022" y="915" type="line"/>
      <point x="1067" y="1276" type="line"/>
      <point x="993" y="1260"/>
      <point x="941" y="1260"/>
      <point x="874" y="1260" type="curve" smooth="yes"/>
      <point x="195" y="1260" type="line"/>
      <point x="188" y="1207" type="line"/>
      <point x="452" y="605" type="line"/>
      <point x="11" y="53" type="line"/>
      <point x="41" y="0" type="line"/>
      <point x="908" y="0" type="line"/>
      <point x="922" y="72"/>
      <point x="968" y="308"/>
    </contour>
  </outline>
</glyph>
<glyph name="LtnSmTHook" format="2">
  <advance width="714"/>
  <unicode hex="01AD"/>
  <anchor x="334" y="-100" name="L"/>
  <anchor x="628" y="1440" name="U"/>
  <outline>
    <contour>
      <point x="318" y="-41" type="curve" smooth="yes"/>
      <point x="397" y="-41"/>
      <point x="560" y="46"/>
      <point x="711" y="167" type="curve"/>
      <point x="681" y="254" type="line"/>
      <point x="581" y="209"/>
      <point x="526" y="190"/>
      <point x="479" y="190" type="curve" smooth="yes"/>
      <point x="442" y="190"/>
      <point x="415" y="218"/>
      <point x="415" y="300" type="curve" smooth="yes"/>
      <point x="415" y="327"/>
      <point x="418" y="361"/>
      <point x="422" y="392" type="curve" smooth="yes"/>
      <point x="503" y="952" type="line" smooth="yes"/>
      <point x="521" y="1076"/>
      <point x="535" y="1170"/>
      <point x="598" y="1170" type="curve" smooth="yes"/>
      <point x="652" y="1170"/>
      <point x="695" y="1048"/>
      <point x="730" y="1048" type="curve" smooth="yes"/>
      <point x="762" y="1048"/>
      <point x="920" y="1185"/>
      <point x="977" y="1226" type="curve"/>
      <point x="917" y="1233"/>
      <point x="805" y="1353"/>
      <point x="688" y="1353" type="curve" smooth="yes"/>
      <point x="596" y="1353"/>
      <point x="523" y="1312"/>
      <point x="453" y="1260" type="curve" smooth="yes"/>
      <point x="314" y="1157"/>
      <point x="250" y="1046"/>
      <point x="231" y="913" type="curve" smooth="yes"/>
      <point x="148" y="338" type="line" smooth="yes"/>
      <point x="137" y="264"/>
      <point x="133" y="211"/>
      <point x="133" y="160" type="curve" smooth="yes"/>
      <point x="133" y="43"/>
      <point x="232" y="-41"/>
    </contour>
    <contour>
      <point x="626" y="730" type="curve"/>
      <point x="653" y="744"/>
      <point x="747" y="830"/>
      <point x="773" y="867" type="curve"/>
      <point x="743" y="905" type="line"/>
      <point x="194" y="905" type="line"/>
      <point x="53" y="816" type="line"/>
      <point x="78" y="775" type="line"/>
      <point x="493" y="775" type="line" smooth="yes"/>
      <point x="573" y="775"/>
      <point x="612" y="767"/>
    </contour>
  </outline>
</glyph>
<glyph name="LtnCapVHook" format="2">
  <advance width="1316"/>
  <unicode hex="01B2"/>
  <anchor x="584" y="-100" name="L"/>
  <anchor x="769" y="1320" name="U"/>
  <outline>
    <contour>
      <point x="1061" y="1290" type="curve"/>
      <point x="805" y="1221" type="line"/>
      <point x="818" y="1147" type="line"/>
      <point x="1044" y="1142"/>
      <point x="1076" y="879"/>
      <point x="1044" y="656" type="curve" smooth="yes"/>
      <point x="993" y="298"/>
      <point x="835" y="125"/>
      <point x="685" y="125" type="curve" smooth="yes"/>
      <point x="477" y="125"/>
      <point x="434" y="308"/>
      <point x="470" y="564" type="curve" smooth="yes"/>
      <point x="544" y="1115" type="line" smooth="yes"/>
      <point x="547" y="1134"/>
      <point x="595" y="1158"/>
      <point x="688" y="1177" type="curve"/>
      <point x="700" y="1260" type="line"/>
      <point x="170" y="1260" type="line"/>
      <point x="158" y="1177" type="line"/>
      <point x="251" y="1158"/>
      <point x="286" y="1131"/>
      <point x="284" y="1115" type="curve" smooth="yes"/>
      <point x="200" y="494" type="line" smooth="yes"/>
      <point x="154" y="169"/>
      <point x="349" y="-30"/>
      <point x="594" y="-30" type="curve" smooth="yes"/>
      <point x="932" y="-30"/>
      <point x="1232" y="283"/>
      <point x="1296" y="744" type="curve" smooth="yes"/>
      <point x="1329" y="976"/>
      <point x="1265" y="1252"/>
    </contour>
  </outline>
</glyph>
<glyph name="LtnCapYHook.RtHook" format="2">
  <advance width="1419"/>
  <unicode hex="01B3"/>
  <anchor x="536" y="-100" name="L"/>
  <anchor x="625" y="0" name="O"/>
  <anchor x="731" y="1320" name="U"/>
  <outline>
    <contour>
      <point x="829" y="0" type="line"/>
      <point x="840" y="83" type="line"/>
      <point x="727" y="108"/>
      <point x="702" y="138"/>
      <point x="705" y="155" type="curve"/>
      <point x="755" y="523" type="line"/>
      <point x="1127" y="1155" type="line" smooth="yes"/>
      <point x="1162" y="1214"/>
      <point x="1200" y="1261"/>
      <point x="1248" y="1261" type="curve" smooth="yes"/>
      <point x="1293" y="1261"/>
      <point x="1316" y="1227"/>
      <point x="1308" y="1167" type="curve" smooth="yes"/>
      <point x="1301" y="1119"/>
      <point x="1261" y="1061"/>
      <point x="1238" y="1025" type="curve"/>
      <point x="1255" y="956" type="line"/>
      <point x="1294" y="967"/>
      <point x="1468" y="1049"/>
      <point x="1485" y="1083" type="curve" smooth="yes"/>
      <point x="1494" y="1099"/>
      <point x="1519" y="1175"/>
      <point x="1525" y="1221" type="curve" smooth="yes"/>
      <point x="1541" y="1338"/>
      <point x="1477" y="1440"/>
      <point x="1330" y="1440" type="curve" smooth="yes"/>
      <point x="1183" y="1440"/>
      <point x="1082" y="1348"/>
      <point x="1010" y="1220" type="curve" smooth="yes"/>
      <point x="708" y="680" type="line"/>
      <point x="648" y="872"/>
      <point x="562" y="1092"/>
      <point x="487" y="1221" type="curve" smooth="yes"/>
      <point x="471" y="1247"/>
      <point x="438" y="1270"/>
      <point x="393" y="1270" type="curve" smooth="yes"/>
      <point x="342" y="1270"/>
      <point x="204" y="1250"/>
      <point x="129" y="1239" type="curve"/>
      <point x="122" y="1156" type="line"/>
      <point x="225" y="1156"/>
      <point x="240" y="1140"/>
      <point x="259" y="1111" type="curve"/>
      <point x="329" y="982"/>
      <point x="434" y="733"/>
      <point x="493" y="518" type="curve"/>
      <point x="444" y="155" type="line" smooth="yes"/>
      <point x="441" y="136"/>
      <point x="407" y="108"/>
      <point x="291" y="83" type="curve"/>
      <point x="280" y="0" type="line"/>
    </contour>
  </outline>
</glyph>
<glyph name="LtnSmYHook.RtHook" format="2">
  <advance width="1343"/>
  <unicode hex="01B4"/>
  <anchor x="680" y="-100" name="L"/>
  <anchor x="198" y="-400" name="O"/>
  <anchor x="614" y="1000" name="U"/>
  <outline>
    <contour>
      <point x="1571" y="1161" type="curve"/>
      <point x="1540" y="1171"/>
      <point x="1423" y="1270"/>
      <point x="1278" y="1270" type="curve" smooth="yes"/>
      <point x="995" y="1270"/>
      <point x="862" y="1002"/>
      <point x="673" y="482" type="curve" smooth="yes"/>
      <point x="534" y="99"/>
      <point x="332" y="-294"/>
      <point x="138" y="-294" type="curve" smooth="yes"/>
      <point x="92" y="-294"/>
      <point x="-8" y="-238"/>
      <point x="-47" y="-191" type="curve"/>
      <point x="-84" y="-206"/>
      <point x="-201" y="-368"/>
      <point x="-201" y="-399" type="curve" smooth="yes"/>
      <point x="-201" y="-434"/>
      <point x="-80" y="-499"/>
      <point x="38" y="-500" type="curve" smooth="yes"/>
      <point x="389" y="-502"/>
      <point x="625" y="-18"/>
      <point x="785" y="404" type="curve" smooth="yes"/>
      <point x="956" y="855"/>
      <point x="1054" y="1087"/>
      <point x="1216" y="1087" type="curve" smooth="yes"/>
      <point x="1282" y="1087"/>
      <point x="1336" y="979"/>
      <point x="1367" y="979" type="curve" smooth="yes"/>
      <point x="1397" y="979"/>
      <point x="1544" y="1130"/>
    </contour>
    <contour>
      <point x="584" y="87" type="line"/>
      <point x="537" y="355"/>
      <point x="462" y="641"/>
      <point x="402" y="809" type="curve" smooth="yes"/>
      <point x="370" y="901"/>
      <point x="343" y="936"/>
      <point x="306" y="936" type="curve" smooth="yes"/>
      <point x="264" y="936"/>
      <point x="81" y="861"/>
      <point x="-31" y="800" type="curve"/>
      <point x="-9" y="723" type="line"/>
      <point x="-9" y="723"/>
      <point x="65" y="747"/>
      <point x="89" y="747" type="curve" smooth="yes"/>
      <point x="112" y="747"/>
      <point x="130" y="733"/>
      <point x="161" y="665" type="curve" smooth="yes"/>
      <point x="220" y="538"/>
      <point x="335" y="94"/>
      <point x="374" y="-137" type="curve"/>
      <point x="407" y="-166" type="line"/>
    </contour>
  </outline>
</glyph>
<glyph name="LtnCapTnFive" format="2">
  <advance width="1108"/>
  <unicode hex="01BC"/>
  <anchor x="320" y="-100" name="L"/>
  <anchor x="515" y="1320" name="U"/>
  <outline>
    <contour>
      <point x="1023" y="394" type="curve" smooth="yes"/>
      <point x="1059" y="645"/>
      <point x="883" y="768"/>
      <point x="621" y="768" type="curve" smooth="yes"/>
      <point x="557" y="768"/>
      <point x="527" y="761"/>
      <point x="501" y="754" type="curve"/>
      <point x="554" y="1130" type="line"/>
      <point x="861" y="1130" type="line" smooth="yes"/>
      <point x="912" y="1130"/>
      <point x="912" y="1060"/>
      <point x="897" y="890" type="curve"/>
      <point x="983" y="890" type="line"/>
      <point x="1013" y="966"/>
      <point x="1074" y="1152"/>
      <point x="1088" y="1220" type="curve"/>
      <point x="1055" y="1260" type="line"/>
      <point x="157" y="1260" type="line"/>
      <point x="145" y="1177" type="line"/>
      <point x="238" y="1158"/>
      <point x="284" y="1131"/>
      <point x="282" y="1115" type="curve" smooth="yes"/>
      <point x="214" y="632" type="line"/>
      <point x="221" y="621"/>
      <point x="263" y="565"/>
      <point x="271" y="558" type="curve"/>
      <point x="366" y="611"/>
      <point x="458" y="631"/>
      <point x="538" y="631" type="curve" smooth="yes"/>
      <point x="685" y="631"/>
      <point x="778" y="527"/>
      <point x="756" y="373" type="curve" smooth="yes"/>
      <point x="736" y="228"/>
      <point x="653" y="120"/>
      <point x="534" y="120" type="curve" smooth="yes"/>
      <point x="383" y="120"/>
      <point x="327" y="272"/>
      <point x="321" y="351" type="curve"/>
      <point x="255" y="343"/>
      <point x="72" y="218"/>
      <point x="67" y="183" type="curve" smooth="yes"/>
      <point x="61" y="138"/>
      <point x="164" y="-30"/>
      <point x="454" y="-30" type="curve" smooth="yes"/>
      <point x="778" y="-30"/>
      <point x="988" y="145"/>
    </contour>
  </outline>
</glyph>
<glyph name="LtnAlveolarClick" format="2">
  <advance width="788"/>
  <unicode hex="01C2"/>
  <anchor x="193" y="-600" name="L"/>
  <anchor x="519" y="1640" name="U"/>
  <outline>
    <contour>
      <point x="364" y="-439" type="curve"/>
      <point x="364" y="-203"/>
      <point x="575" y="1229"/>
      <point x="624" y="1498" type="curve"/>
      <point x="576" y="1520" type="line"/>
      <point x="540" y="1511"/>
      <point x="427" y="1481"/>
      <point x="391" y="1459" type="curve"/>
      <point x="392" y="1446"/>
      <point x="393" y="1430"/>
      <point x="393" y="1410" type="curve" smooth="yes"/>
      <point x="393" y="1067"/>
      <point x="189" y="-231"/>
      <point x="142" y="-478" type="curve"/>
      <point x="190" y="-500" type="line"/>
      <point x="221" y="-492"/>
      <point x="339" y="-460"/>
    </contour>
    <contour>
      <point x="25" y="333" type="line"/>
      <point x="689" y="333" type="line"/>
      <point x="705" y="355"/>
      <point x="744" y="410"/>
      <point x="752" y="439" type="curve"/>
      <point x="717" y="473" type="line"/>
      <point x="53" y="473" type="line"/>
      <point x="34" y="447"/>
      <point x="-3" y="396"/>
      <point x="-10" y="367" type="curve"/>
    </contour>
    <contour>
      <point x="66" y="623" type="line"/>
      <point x="730" y="623" type="line"/>
      <point x="746" y="645"/>
      <point x="785" y="700"/>
      <point x="793" y="729" type="curve"/>
      <point x="758" y="763" type="line"/>
      <point x="94" y="763" type="line"/>
      <point x="75" y="737"/>
      <point x="38" y="686"/>
      <point x="31" y="657" type="curve"/>
    </contour>
  </outline>
</glyph>
<glyph name="LtnCapYogh" format="2">
  <advance width="1102"/>
  <unicode hex="021C"/>
  <anchor x="254" y="-600" name="L"/>
  <anchor x="514" y="1320" name="U"/>
  <outline>
    <contour>
      <point x="1039" y="1005" type="curve" smooth="yes"/>
      <point x="1065" y="1190"/>
      <point x="922" y="1290"/>
      <point x="639" y="1290" type="curve" smooth="yes"/>
      <point x="452" y="1290"/>
      <point x="298" y="1246"/>
      <point x="109" y="1143" type="curve" smooth="yes"/>
      <point x="86" y="1131"/>
      <point x="134" y="942"/>
      <point x="161" y="853" type="curve"/>
      <point x="244" y="881" type="line"/>
      <point x="283" y="1042"/>
      <point x="370" y="1157"/>
      <point x="549" y="1160" type="curve" smooth="yes"/>
      <point x="689" y="1162"/>
      <point x="774" y="1076"/>
      <point x="759" y="969" type="curve" smooth="yes"/>
      <point x="735" y="798"/>
      <point x="496" y="659"/>
      <point x="202" y="535" type="curve"/>
      <point x="205" y="507"/>
      <point x="219" y="449"/>
      <point x="221" y="433" type="curve"/>
      <point x="835" y="639"/>
      <point x="1015" y="832"/>
    </contour>
    <contour>
      <point x="979" y="380" type="curve" smooth="yes"/>
      <point x="1006" y="568"/>
      <point x="826" y="697"/>
      <point x="500" y="627" type="curve"/>
      <point x="473" y="598"/>
      <point x="426" y="539"/>
      <point x="388" y="492" type="curve"/>
      <point x="423" y="500"/>
      <point x="443" y="511"/>
      <point x="481" y="511" type="curve" smooth="yes"/>
      <point x="592" y="511"/>
      <point x="698" y="442"/>
      <point x="681" y="320" type="curve" smooth="yes"/>
      <point x="659" y="167"/>
      <point x="533" y="25"/>
      <point x="16" y="-152" type="curve"/>
      <point x="20" y="-178"/>
      <point x="34" y="-222"/>
      <point x="43" y="-254" type="curve"/>
      <point x="878" y="-10"/>
      <point x="958" y="225"/>
    </contour>
  </outline>
</glyph>
<glyph name="LtnCapNLngRtLeg" format="2">
  <advance width="1248"/>
  <unicode hex="0220"/>
  <anchor x="393" y="-100" name="L"/>
  <anchor x="798" y="1320" name="U"/>
  <outline>
    <contour>
      <point x="1001" y="1290" type="curve" smooth="yes"/>
      <point x="872" y="1290"/>
      <point x="670" y="1194"/>
      <point x="512" y="1012" type="curve"/>
      <point x="523" y="1081"/>
      <point x="534" y="1139"/>
      <point x="534" y="1184" type="curve" smooth="yes"/>
      <point x="534" y="1247"/>
      <point x="526" y="1290"/>
      <point x="483" y="1290" type="curve" smooth="yes"/>
      <point x="426" y="1290"/>
      <point x="239" y="1220"/>
      <point x="99" y="1168" type="curve"/>
      <point x="116" y="1073" type="line"/>
      <point x="167" y="1087"/>
      <point x="198" y="1096"/>
      <point x="224" y="1096" type="curve" smooth="yes"/>
      <point x="254" y="1096"/>
      <point x="265" y="1085"/>
      <point x="263" y="1037" type="curve" smooth="yes"/>
      <point x="262" y="1018"/>
      <point x="259" y="986"/>
      <point x="255" y="957" type="curve" smooth="yes"/>
      <point x="141" y="144" type="line" smooth="yes"/>
      <point x="138" y="126"/>
      <point x="94" y="101"/>
      <point x="10" y="83" type="curve"/>
      <point x="0" y="0" type="line"/>
      <point x="510" y="0" type="line"/>
      <point x="520" y="83" type="line"/>
      <point x="440" y="100"/>
      <point x="397" y="126"/>
      <point x="397" y="142" type="curve"/>
      <point x="397" y="144" type="line"/>
      <point x="473" y="696" type="line" smooth="yes"/>
      <point x="502" y="904"/>
      <point x="749" y="1081"/>
      <point x="858" y="1081" type="curve" smooth="yes"/>
      <point x="927" y="1081"/>
      <point x="965" y="1046"/>
      <point x="965" y="975" type="curve" smooth="yes"/>
      <point x="965" y="698"/>
      <point x="783" y="-102"/>
      <point x="783" y="-343" type="curve" smooth="yes"/>
      <point x="783" y="-455"/>
      <point x="830" y="-500"/>
      <point x="877" y="-500" type="curve" smooth="yes"/>
      <point x="948" y="-500"/>
      <point x="1127" y="-409"/>
      <point x="1248" y="-337" type="curve"/>
      <point x="1218" y="-260" type="line"/>
      <point x="1163" y="-283"/>
      <point x="1135" y="-293"/>
      <point x="1104" y="-293" type="curve" smooth="yes"/>
      <point x="1080" y="-293"/>
      <point x="1058" y="-279"/>
      <point x="1058" y="-194" type="curve" smooth="yes"/>
      <point x="1058" y="71"/>
      <point x="1226" y="672"/>
      <point x="1226" y="1042" type="curve" smooth="yes"/>
      <point x="1226" y="1235"/>
      <point x="1091" y="1290"/>
    </contour>
  </outline>
</glyph>
<glyph name="LtnSmDCurl" format="2">
  <advance width="1254"/>
  <unicode hex="0221"/>
  <anchor x="404" y="-100" name="L"/>
  <anchor x="384" y="1000" name="U"/>
  <outline>
    <contour>
      <point x="993" y="1438" type="curve" smooth="yes"/>
      <point x="993" y="1499"/>
      <point x="965" y="1520"/>
      <point x="918" y="1520" type="curve" smooth="yes"/>
      <point x="855" y="1520"/>
      <point x="657" y="1440"/>
      <point x="545" y="1385" type="curve"/>
      <point x="562" y="1306" type="line"/>
      <point x="562" y="1306"/>
      <point x="635" y="1333"/>
      <point x="658" y="1333" type="curve" smooth="yes"/>
      <point x="682" y="1333"/>
      <point x="704" y="1327"/>
      <point x="704" y="1266" type="curve" smooth="yes"/>
      <point x="704" y="1204"/>
      <point x="694" y="1114"/>
      <point x="665" y="923" type="curve"/>
      <point x="656" y="929"/>
      <point x="641" y="936"/>
      <point x="622" y="936" type="curve" smooth="yes"/>
      <point x="520" y="936"/>
      <point x="406" y="890"/>
      <point x="332" y="842" type="curve" smooth="yes"/>
      <point x="142" y="719"/>
      <point x="33" y="526"/>
      <point x="33" y="315" type="curve" smooth="yes"/>
      <point x="33" y="66"/>
      <point x="156" y="-41"/>
      <point x="266" y="-41" type="curve" smooth="yes"/>
      <point x="372" y="-41"/>
      <point x="485" y="59"/>
      <point x="571" y="177" type="curve"/>
      <point x="596" y="-5"/>
      <point x="756" y="-41"/>
      <point x="853" y="-41" type="curve" smooth="yes"/>
      <point x="1061" y="-41"/>
      <point x="1204" y="129"/>
      <point x="1217" y="274" type="curve" smooth="yes"/>
      <point x="1226" y="377"/>
      <point x="1145" y="464"/>
      <point x="1030" y="464" type="curve" smooth="yes"/>
      <point x="816" y="464"/>
      <point x="635" y="165"/>
      <point x="452" y="-155" type="curve"/>
      <point x="531" y="-216" type="line"/>
      <point x="699" y="57"/>
      <point x="820" y="281"/>
      <point x="964" y="281" type="curve" smooth="yes"/>
      <point x="1026" y="281"/>
      <point x="1056" y="235"/>
      <point x="1053" y="199" type="curve" smooth="yes"/>
      <point x="1048" y="144"/>
      <point x="1008" y="95"/>
      <point x="935" y="95" type="curve" smooth="yes"/>
      <point x="884" y="95"/>
      <point x="830" y="135"/>
      <point x="830" y="299" type="curve" smooth="yes"/>
      <point x="830" y="479"/>
      <point x="993" y="1231"/>
    </contour>
    <contour>
      <point x="579" y="368" type="curve"/>
      <point x="512" y="263"/>
      <point x="422" y="176"/>
      <point x="376" y="176" type="curve" smooth="yes"/>
      <point x="348" y="176"/>
      <point x="290" y="207"/>
      <point x="290" y="379" type="curve" smooth="yes"/>
      <point x="290" y="537"/>
      <point x="357" y="781"/>
      <point x="519" y="781" type="curve" smooth="yes"/>
      <point x="548" y="781"/>
      <point x="587" y="763"/>
      <point x="632" y="714" type="curve"/>
      <point x="614" y="601"/>
      <point x="591" y="448"/>
    </contour>
  </outline>
</glyph>
<glyph name="LtnSmZHook" format="2">
  <advance width="776"/>
  <unicode hex="0225"/>
  <anchor x="255" y="-600" name="L"/>
  <anchor x="479" y="1000" name="U"/>
  <outline>
    <contour>
      <point x="787" y="869" type="curve"/>
      <point x="756" y="915" type="line"/>
      <point x="268" y="915" type="line" smooth="yes"/>
      <point x="251" y="915"/>
      <point x="189" y="920"/>
      <point x="140" y="936" type="curve"/>
      <point x="61" y="584" type="line"/>
      <point x="134" y="566" type="line"/>
      <point x="174" y="687"/>
      <point x="214" y="705"/>
      <point x="268" y="705" type="curve" smooth="yes"/>
      <point x="475" y="705" type="line"/>
      <point x="334" y="528"/>
      <point x="176" y="271"/>
      <point x="-22" y="25" type="curve"/>
      <point x="18" y="-31" type="line"/>
      <point x="152" y="-7"/>
      <point x="238" y="4"/>
      <point x="344" y="4" type="curve"/>
      <point x="510" y="4"/>
      <point x="527" y="-58"/>
      <point x="518" y="-94" type="curve" smooth="yes"/>
      <point x="509" y="-130"/>
      <point x="479" y="-182"/>
      <point x="365" y="-254" type="curve"/>
      <point x="410" y="-324" type="line"/>
      <point x="607" y="-210"/>
      <point x="694" y="-122"/>
      <point x="723" y="-48" type="curve" smooth="yes"/>
      <point x="768" y="68"/>
      <point x="714" y="186"/>
      <point x="523" y="186" type="curve" smooth="yes"/>
      <point x="434" y="186"/>
      <point x="321" y="169"/>
      <point x="234" y="142" type="curve"/>
      <point x="464" y="428"/>
      <point x="575" y="638"/>
    </contour>
  </outline>
</glyph>
<glyph name="LtnSmCStrk" format="2">
  <advance width="899"/>
  <unicode hex="023C"/>
  <anchor x="454" y="-100" name="L"/>
  <anchor x="604" y="1000" name="U"/>
  <outline>
    <contour>
      <point x="937" y="825" type="curve"/>
      <point x="855" y="852"/>
      <point x="791" y="936"/>
      <point x="674" y="936" type="curve" smooth="yes"/>
      <point x="552" y="936"/>
      <point x="417" y="871"/>
      <point x="343" y="822" type="curve" smooth="yes"/>
      <point x="147" y="691"/>
      <point x="77" y="502"/>
      <point x="77" y="322" type="curve" smooth="yes"/>
      <point x="77" y="41"/>
      <point x="251" y="-41"/>
      <point x="371" y="-41" type="curve" smooth="yes"/>
      <point x="499" y="-41"/>
      <point x="636" y="30"/>
      <point x="845" y="220" type="curve"/>
      <point x="839" y="230"/>
      <point x="800" y="287"/>
      <point x="790" y="301" type="curve"/>
      <point x="647" y="184"/>
      <point x="548" y="126"/>
      <point x="469" y="126" type="curve" smooth="yes"/>
      <point x="395" y="126"/>
      <point x="343" y="226"/>
      <point x="343" y="398" type="curve" smooth="yes"/>
      <point x="343" y="585"/>
      <point x="419" y="781"/>
      <point x="551" y="781" type="curve" smooth="yes"/>
      <point x="627" y="781"/>
      <point x="665" y="651"/>
      <point x="713" y="651" type="curve" smooth="yes"/>
      <point x="758" y="651"/>
      <point x="881" y="764"/>
    </contour>
    <contour>
      <point x="958" y="1009" type="line"/>
      <point x="927" y="1043" type="line"/>
      <point x="889" y="1032"/>
      <point x="832" y="998"/>
      <point x="796" y="981" type="curve"/>
      <point x="47" y="-109" type="line"/>
      <point x="74" y="-142" type="line"/>
      <point x="110" y="-132"/>
      <point x="186" y="-92"/>
      <point x="207" y="-80" type="curve"/>
    </contour>
  </outline>
</glyph>
<glyph name="LtnSmZSwashTail" format="2">
  <advance width="776"/>
  <unicode hex="0240"/>
  <anchor x="285" y="-600" name="L"/>
  <anchor x="487" y="1000" name="U"/>
  <outline>
    <contour>
      <point x="207" y="102" type="curve"/>
      <point x="418" y="372"/>
      <point x="568" y="634"/>
      <point x="787" y="870" type="curve"/>
      <point x="756" y="915" type="line"/>
      <point x="238" y="915" type="line" smooth="yes"/>
      <point x="191" y="915"/>
      <point x="165" y="930"/>
      <point x="140" y="936" type="curve"/>
      <point x="130" y="879"/>
      <point x="86" y="703"/>
      <point x="61" y="584" type="curve"/>
      <point x="134" y="566" type="line"/>
      <point x="173" y="678"/>
      <point x="205" y="705"/>
      <point x="268" y="705" type="curve" smooth="yes"/>
      <point x="474" y="705" type="line"/>
      <point x="358" y="567"/>
      <point x="177" y="265"/>
      <point x="-22" y="25" type="curve"/>
      <point x="18" y="-31" type="line"/>
      <point x="61" y="-16"/>
      <point x="86" y="-10"/>
      <point x="116" y="-10" type="curve" smooth="yes"/>
      <point x="345" y="-10"/>
      <point x="278" y="-400"/>
      <point x="488" y="-400" type="curve" smooth="yes"/>
      <point x="666" y="-400"/>
      <point x="793" y="-228"/>
      <point x="770" y="-129" type="curve"/>
      <point x="759" y="-90" type="line"/>
      <point x="707" y="-100"/>
      <point x="566" y="-165"/>
      <point x="571" y="-177" type="curve" smooth="yes"/>
      <point x="595" y="-233"/>
      <point x="577" y="-276"/>
      <point x="551" y="-276" type="curve" smooth="yes"/>
      <point x="425" y="-276"/>
      <point x="475" y="30"/>
      <point x="274" y="94" type="curve" smooth="yes"/>
      <point x="255" y="100"/>
      <point x="232" y="102"/>
    </contour>
  </outline>
</glyph>
<glyph name="LtnSmGlottalStop" format="2">
  <advance width="829"/>
  <unicode hex="0242"/>
  <anchor x="339" y="-100" name="L"/>
  <anchor x="464" y="1000" name="U"/>
  <outline>
    <contour>
      <point x="616" y="0" type="line"/>
      <point x="626" y="81" type="line"/>
      <point x="532" y="99"/>
      <point x="490" y="122"/>
      <point x="493" y="141" type="curve" smooth="yes"/>
      <point x="517" y="309" type="line"/>
      <point x="542" y="500"/>
      <point x="789" y="493"/>
      <point x="819" y="706" type="curve" smooth="yes"/>
      <point x="837" y="840"/>
      <point x="741" y="936"/>
      <point x="533" y="936" type="curve" smooth="yes"/>
      <point x="301" y="936"/>
      <point x="98" y="809"/>
      <point x="73" y="625" type="curve"/>
      <point x="71" y="615"/>
      <point x="70" y="598"/>
      <point x="72" y="583" type="curve"/>
      <point x="93" y="554" type="line"/>
      <point x="154" y="559"/>
      <point x="286" y="594"/>
      <point x="337" y="620" type="curve"/>
      <point x="329" y="639"/>
      <point x="330" y="668"/>
      <point x="332" y="687" type="curve"/>
      <point x="344" y="769"/>
      <point x="416" y="812"/>
      <point x="457" y="812" type="curve" smooth="yes"/>
      <point x="517" y="812"/>
      <point x="579" y="763"/>
      <point x="563" y="642" type="curve" smooth="yes"/>
      <point x="537" y="456"/>
      <point x="281" y="475"/>
      <point x="251" y="251" type="curve"/>
      <point x="235" y="141" type="line" smooth="yes"/>
      <point x="232" y="120"/>
      <point x="190" y="101"/>
      <point x="86" y="81" type="curve"/>
      <point x="75" y="0" type="line"/>
    </contour>
  </outline>
</glyph>
<glyph name="LtnCapUBar" format="2">
  <advance width="1326"/>
  <unicode hex="0244"/>
  <anchor x="590" y="-100" name="L"/>
  <anchor x="774" y="1320" name="U"/>
  <outline>
    <contour>
      <point x="1319" y="690" type="line"/>
      <point x="1290" y="725" type="line"/>
      <point x="116" y="725" type="line"/>
      <point x="104" y="704"/>
      <point x="74" y="648"/>
      <point x="65" y="627" type="curve"/>
      <point x="94" y="595" type="line"/>
      <point x="1268" y="595" type="line"/>
    </contour>
    <contour>
      <point x="1366" y="1260" type="line"/>
      <point x="955" y="1260" type="line"/>
      <point x="944" y="1177" type="line"/>
      <point x="1030" y="1158"/>
      <point x="1055" y="1131"/>
      <point x="1053" y="1115" type="curve" smooth="yes"/>
      <point x="962" y="469" type="line"/>
      <point x="935" y="270"/>
      <point x="862" y="126"/>
      <point x="688" y="126" type="curve" smooth="yes"/>
      <point x="524" y="126"/>
      <point x="447" y="211"/>
      <point x="447" y="397" type="curve" smooth="yes"/>
      <point x="447" y="432"/>
      <point x="452" y="471"/>
      <point x="458" y="510" type="curve" smooth="yes"/>
      <point x="546" y="1115" type="line" smooth="yes"/>
      <point x="549" y="1134"/>
      <point x="594" y="1158"/>
      <point x="678" y="1177" type="curve"/>
      <point x="689" y="1260" type="line"/>
      <point x="184" y="1260" type="line"/>
      <point x="173" y="1177" type="line"/>
      <point x="259" y="1158"/>
      <point x="290" y="1131"/>
      <point x="288" y="1115" type="curve" smooth="yes"/>
      <point x="195" y="463" type="line" smooth="yes"/>
      <point x="189" y="422"/>
      <point x="186" y="383"/>
      <point x="186" y="348" type="curve" smooth="yes"/>
      <point x="186" y="104"/>
      <point x="388" y="-31"/>
      <point x="607" y="-31" type="curve" smooth="yes"/>
      <point x="871" y="-31"/>
      <point x="1096" y="162"/>
      <point x="1145" y="512" type="curve" smooth="yes"/>
      <point x="1230" y="1115" type="line" smooth="yes"/>
      <point x="1233" y="1134"/>
      <point x="1271" y="1158"/>
      <point x="1355" y="1177" type="curve"/>
    </contour>
  </outline>
</glyph>
<glyph name="LtnSmEStrk" format="2">
  <advance width="885"/>
  <unicode hex="0247"/>
  <anchor x="384" y="-100" name="L"/>
  <anchor x="550" y="1000" name="U"/>
  <outline>
    <contour>
      <point x="850" y="760" type="curve" smooth="yes"/>
      <point x="850" y="846"/>
      <point x="776" y="936"/>
      <point x="612" y="936" type="curve" smooth="yes"/>
      <point x="500" y="936"/>
      <point x="372" y="867"/>
      <point x="312" y="816" type="curve" smooth="yes"/>
      <point x="148" y="676"/>
      <point x="43" y="512"/>
      <point x="43" y="303" type="curve" smooth="yes"/>
      <point x="43" y="51"/>
      <point x="227" y="-41"/>
      <point x="345" y="-41" type="curve" smooth="yes"/>
      <point x="471" y="-41"/>
      <point x="608" y="40"/>
      <point x="827" y="230" type="curve"/>
      <point x="823" y="240"/>
      <point x="791" y="303"/>
      <point x="776" y="311" type="curve"/>
      <point x="615" y="182"/>
      <point x="504" y="126"/>
      <point x="447" y="126" type="curve" smooth="yes"/>
      <point x="369" y="126"/>
      <point x="305" y="233"/>
      <point x="305" y="407" type="curve" smooth="yes"/>
      <point x="305" y="554"/>
      <point x="337" y="638"/>
      <point x="401" y="722" type="curve" smooth="yes"/>
      <point x="433" y="764"/>
      <point x="487" y="791"/>
      <point x="508" y="791" type="curve" smooth="yes"/>
      <point x="543" y="791"/>
      <point x="570" y="759"/>
      <point x="570" y="705" type="curve" smooth="yes"/>
      <point x="570" y="606"/>
      <point x="533" y="540"/>
      <point x="183" y="391" type="curve"/>
      <point x="159" y="362"/>
      <point x="190" y="277"/>
      <point x="190" y="277" type="curve"/>
      <point x="786" y="466"/>
      <point x="850" y="643"/>
    </contour>
    <contour>
      <point x="1017" y="1006" type="line"/>
      <point x="989" y="1042" type="line"/>
      <point x="950" y="1033"/>
      <point x="891" y="1006"/>
      <point x="853" y="992" type="curve"/>
      <point x="-52" y="-108" type="line"/>
      <point x="-27" y="-142" type="line"/>
      <point x="0" y="-135"/>
      <point x="88" y="-102"/>
      <point x="111" y="-92" type="curve"/>
    </contour>
  </outline>
</glyph>
<glyph name="LtnSmAlpha" format="2">
  <advance width="1007"/>
  <unicode hex="0251"/>
  <anchor x="389" y="0" name="H"/>
  <anchor x="442" y="-100" name="L"/>
  <anchor x="753" y="0" name="O"/>
  <anchor x="1144" y="870" name="R"/>
  <anchor x="592" y="1000" name="U"/>
  <outline>
    <contour>
      <point x="1006" y="118" type="curve"/>
      <point x="989" y="194" type="line"/>
      <point x="936" y="172"/>
      <point x="911" y="166"/>
      <point x="884" y="166" type="curve" smooth="yes"/>
      <point x="853" y="166"/>
      <point x="830" y="237"/>
      <point x="830" y="309" type="curve" smooth="yes"/>
      <point x="830" y="368"/>
      <point x="851" y="529"/>
      <point x="891" y="720" type="curve" smooth="yes"/>
      <point x="910" y="810"/>
      <point x="922" y="824"/>
      <point x="967" y="861" type="curve"/>
      <point x="932" y="936" type="line"/>
      <point x="842" y="893"/>
      <point x="654" y="831"/>
      <point x="642" y="770" type="curve" smooth="yes"/>
      <point x="627" y="692"/>
      <point x="566" y="328"/>
      <point x="566" y="251" type="curve" smooth="yes"/>
      <point x="566" y="24"/>
      <point x="669" y="-41"/>
      <point x="718" y="-41" type="curve" smooth="yes"/>
      <point x="767" y="-41"/>
      <point x="894" y="37"/>
    </contour>
    <contour>
      <point x="906" y="812" type="curve"/>
      <point x="859" y="818"/>
      <point x="742" y="936"/>
      <point x="632" y="936" type="curve" smooth="yes"/>
      <point x="510" y="936"/>
      <point x="404" y="891"/>
      <point x="332" y="842" type="curve" smooth="yes"/>
      <point x="144" y="713"/>
      <point x="33" y="516"/>
      <point x="33" y="305" type="curve" smooth="yes"/>
      <point x="33" y="55"/>
      <point x="168" y="-41"/>
      <point x="266" y="-41" type="curve" smooth="yes"/>
      <point x="379" y="-41"/>
      <point x="490" y="67"/>
      <point x="580" y="189" type="curve"/>
      <point x="596" y="387" type="line"/>
      <point x="481" y="227"/>
      <point x="409" y="176"/>
      <point x="372" y="176" type="curve" smooth="yes"/>
      <point x="332" y="176"/>
      <point x="290" y="237"/>
      <point x="290" y="379" type="curve" smooth="yes"/>
      <point x="290" y="537"/>
      <point x="357" y="781"/>
      <point x="520" y="781" type="curve" smooth="yes"/>
      <point x="602" y="781"/>
      <point x="710" y="611"/>
      <point x="745" y="611" type="curve" smooth="yes"/>
      <point x="780" y="611"/>
      <point x="849" y="773"/>
    </contour>
  </outline>
</glyph>
<glyph name="LtnSmCCurl" format="2">
  <advance width="942"/>
  <unicode hex="0255"/>
  <anchor x="474" y="-100" name="L"/>
  <anchor x="624" y="1000" name="U"/>
  <outline>
    <contour>
      <point x="353" y="398" type="curve" smooth="yes"/>
      <point x="353" y="519"/>
      <point x="399" y="781"/>
      <point x="561" y="781" type="curve" smooth="yes"/>
      <point x="637" y="781"/>
      <point x="675" y="651"/>
      <point x="723" y="651" type="curve" smooth="yes"/>
      <point x="773" y="651"/>
      <point x="903" y="780"/>
      <point x="947" y="825" type="curve"/>
      <point x="889" y="837"/>
      <point x="801" y="936"/>
      <point x="684" y="936" type="curve" smooth="yes"/>
      <point x="562" y="936"/>
      <point x="427" y="871"/>
      <point x="353" y="822" type="curve" smooth="yes"/>
      <point x="157" y="691"/>
      <point x="87" y="502"/>
      <point x="87" y="322" type="curve" smooth="yes"/>
      <point x="87" y="188"/>
      <point x="130" y="-40"/>
      <point x="451" y="-40" type="curve" smooth="yes"/>
      <point x="637" y="-40"/>
      <point x="860" y="113"/>
      <point x="860" y="301" type="curve" smooth="yes"/>
      <point x="860" y="403"/>
      <point x="802" y="475"/>
      <point x="670" y="475" type="curve" smooth="yes"/>
      <point x="439" y="475"/>
      <point x="229" y="212"/>
      <point x="77" y="-40" type="curve"/>
      <point x="169" y="-82" type="line"/>
      <point x="321" y="154"/>
      <point x="450" y="304"/>
      <point x="605" y="304" type="curve" smooth="yes"/>
      <point x="668" y="304"/>
      <point x="695" y="275"/>
      <point x="695" y="236" type="curve" smooth="yes"/>
      <point x="695" y="173"/>
      <point x="607" y="130"/>
      <point x="522" y="130" type="curve" smooth="yes"/>
      <point x="378" y="130"/>
      <point x="353" y="267"/>
    </contour>
  </outline>
</glyph>
<glyph name="LtnSmDTail" format="2">
  <advance width="969"/>
  <unicode hex="0256"/>
  <anchor x="300" y="-100" name="L"/>
  <anchor x="1080" y="870" name="R"/>
  <anchor x="349" y="1000" name="U"/>
  <outline>
    <contour>
      <point x="1161" y="-143" type="curve"/>
      <point x="1133" y="-78" type="line"/>
      <point x="1056" y="-94"/>
      <point x="937" y="-137"/>
      <point x="879" y="-178" type="curve"/>
      <point x="922" y="-255"/>
      <point x="905" y="-337"/>
      <point x="839" y="-337" type="curve" smooth="yes"/>
      <point x="793" y="-337"/>
      <point x="759" y="-274"/>
      <point x="759" y="-179" type="curve" smooth="yes"/>
      <point x="759" y="-78"/>
      <point x="803" y="209"/>
      <point x="855" y="535" type="curve" smooth="yes"/>
      <point x="901" y="826"/>
      <point x="993" y="1282"/>
      <point x="993" y="1438" type="curve" smooth="yes"/>
      <point x="993" y="1499"/>
      <point x="965" y="1520"/>
      <point x="918" y="1520" type="curve" smooth="yes"/>
      <point x="865" y="1520"/>
      <point x="687" y="1455"/>
      <point x="545" y="1385" type="curve"/>
      <point x="562" y="1306" type="line"/>
      <point x="562" y="1306"/>
      <point x="636" y="1333"/>
      <point x="659" y="1333" type="curve" smooth="yes"/>
      <point x="683" y="1333"/>
      <point x="704" y="1327"/>
      <point x="704" y="1266" type="curve" smooth="yes"/>
      <point x="704" y="1141"/>
      <point x="644" y="787"/>
      <point x="603" y="527" type="curve" smooth="yes"/>
      <point x="558" y="248"/>
      <point x="506" y="-35"/>
      <point x="506" y="-227" type="curve" smooth="yes"/>
      <point x="506" y="-394"/>
      <point x="574" y="-500"/>
      <point x="675" y="-500" type="curve" smooth="yes"/>
      <point x="867" y="-500"/>
      <point x="1145" y="-334"/>
    </contour>
    <contour>
      <point x="883" y="791" type="curve"/>
      <point x="826" y="783"/>
      <point x="698" y="936"/>
      <point x="622" y="936" type="curve" smooth="yes"/>
      <point x="520" y="936"/>
      <point x="406" y="889"/>
      <point x="332" y="842" type="curve"/>
      <point x="143" y="717"/>
      <point x="33" y="526"/>
      <point x="33" y="315" type="curve" smooth="yes"/>
      <point x="33" y="66"/>
      <point x="156" y="-41"/>
      <point x="266" y="-41" type="curve" smooth="yes"/>
      <point x="353" y="-41"/>
      <point x="462" y="27"/>
      <point x="576" y="185" type="curve"/>
      <point x="597" y="393" type="line"/>
      <point x="475" y="210"/>
      <point x="404" y="176"/>
      <point x="376" y="176" type="curve" smooth="yes"/>
      <point x="328" y="176"/>
      <point x="290" y="237"/>
      <point x="290" y="379" type="curve" smooth="yes"/>
      <point x="290" y="537"/>
      <point x="357" y="781"/>
      <point x="519" y="781" type="curve" smooth="yes"/>
      <point x="616" y="781"/>
      <point x="696" y="609"/>
      <point x="745" y="609" type="curve" smooth="yes"/>
      <point x="780" y="609"/>
      <point x="826" y="752"/>
    </contour>
  </outline>
</glyph>
<glyph name="LtnSmSchwaHook" format="2">
  <advance width="1203"/>
  <unicode hex="025A"/>
  <anchor x="272" y="0" name="H"/>
  <anchor x="554" y="-100" name="L"/>
  <anchor x="352" y="0" name="O"/>
  <anchor x="715" y="1000" name="U"/>
  <outline>
    <contour>
      <point x="1157" y="894" type="curve"/>
      <point x="1113" y="936" type="line"/>
      <point x="1036" y="874"/>
      <point x="871" y="789"/>
      <point x="720" y="699" type="curve"/>
      <point x="735" y="585" type="line"/>
      <point x="808" y="628"/>
      <point x="894" y="676"/>
      <point x="935" y="698" type="curve"/>
      <point x="923" y="667"/>
      <point x="913" y="631"/>
      <point x="910" y="607" type="curve" smooth="yes"/>
      <point x="899" y="521"/>
      <point x="951" y="489"/>
      <point x="1001" y="489" type="curve" smooth="yes"/>
      <point x="1084" y="489"/>
      <point x="1181" y="565"/>
      <point x="1275" y="636" type="curve"/>
      <point x="1256" y="698" type="line"/>
      <point x="1196" y="664"/>
      <point x="1160" y="643"/>
      <point x="1118" y="642" type="curve" smooth="yes"/>
      <point x="1070" y="641"/>
      <point x="1058" y="692"/>
      <point x="1074" y="747" type="curve" smooth="yes"/>
      <point x="1088" y="794"/>
      <point x="1119" y="841"/>
    </contour>
    <contour>
      <point x="850" y="592" type="curve"/>
      <point x="850" y="844"/>
      <point x="686" y="936"/>
      <point x="548" y="936" type="curve" smooth="yes"/>
      <point x="412" y="936"/>
      <point x="265" y="855"/>
      <point x="76" y="665" type="curve"/>
      <point x="80" y="655"/>
      <point x="112" y="592"/>
      <point x="127" y="584" type="curve"/>
      <point x="269" y="713"/>
      <point x="379" y="779"/>
      <point x="446" y="779" type="curve" smooth="yes"/>
      <point x="524" y="779"/>
      <point x="588" y="692"/>
      <point x="588" y="518" type="curve" smooth="yes"/>
      <point x="588" y="341"/>
      <point x="537" y="209"/>
      <point x="512" y="173" type="curve" smooth="yes"/>
      <point x="483" y="131"/>
      <point x="458" y="113"/>
      <point x="405" y="113" type="curve" smooth="yes"/>
      <point x="378" y="113"/>
      <point x="323" y="136"/>
      <point x="323" y="210" type="curve" smooth="yes"/>
      <point x="323" y="279"/>
      <point x="334" y="383"/>
      <point x="671" y="570" type="curve"/>
      <point x="695" y="598"/>
      <point x="664" y="686"/>
      <point x="664" y="686" type="curve"/>
      <point x="145" y="431"/>
      <point x="43" y="302"/>
      <point x="43" y="155" type="curve" smooth="yes"/>
      <point x="43" y="49"/>
      <point x="157" y="-41"/>
      <point x="301" y="-41" type="curve" smooth="yes"/>
      <point x="442" y="-41"/>
      <point x="540" y="27"/>
      <point x="602" y="79" type="curve" smooth="yes"/>
      <point x="761" y="212"/>
      <point x="850" y="403"/>
    </contour>
  </outline>
</glyph>
<glyph name="LtnSmGHook" format="2">
  <advance width="977"/>
  <unicode hex="0260"/>
  <anchor x="324" y="-600" name="L"/>
  <anchor x="548" y="1000" name="U"/>
  <outline>
    <contour>
      <point x="271" y="-500" type="curve" smooth="yes"/>
      <point x="480" y="-500"/>
      <point x="775" y="-276"/>
      <point x="824" y="1" type="curve" smooth="yes"/>
      <point x="864" y="223"/>
      <point x="862" y="746"/>
      <point x="910" y="1016" type="curve" smooth="yes"/>
      <point x="923" y="1090"/>
      <point x="943" y="1170"/>
      <point x="996" y="1170" type="curve" smooth="yes"/>
      <point x="1050" y="1170"/>
      <point x="1093" y="1048"/>
      <point x="1128" y="1048" type="curve" smooth="yes"/>
      <point x="1160" y="1048"/>
      <point x="1318" y="1185"/>
      <point x="1375" y="1226" type="curve"/>
      <point x="1315" y="1233"/>
      <point x="1203" y="1353"/>
      <point x="1086" y="1353" type="curve" smooth="yes"/>
      <point x="994" y="1353"/>
      <point x="921" y="1312"/>
      <point x="851" y="1260" type="curve" smooth="yes"/>
      <point x="734" y="1173"/>
      <point x="672" y="1098"/>
      <point x="650" y="965" type="curve" smooth="yes"/>
      <point x="592" y="616"/>
      <point x="622" y="281"/>
      <point x="562" y="-48" type="curve"/>
      <point x="523" y="-269"/>
      <point x="456" y="-309"/>
      <point x="367" y="-309" type="curve" smooth="yes"/>
      <point x="219" y="-309"/>
      <point x="156" y="-206"/>
      <point x="125" y="-206" type="curve" smooth="yes"/>
      <point x="107" y="-206"/>
      <point x="-25" y="-344"/>
      <point x="-25" y="-389" type="curve" smooth="yes"/>
      <point x="-25" y="-436"/>
      <point x="129" y="-500"/>
    </contour>
    <contour>
      <point x="256" y="-41" type="curve" smooth="yes"/>
      <point x="375" y="-41"/>
      <point x="485" y="62"/>
      <point x="601" y="228" type="curve"/>
      <point x="611" y="428" type="line"/>
      <point x="465" y="203"/>
      <point x="395" y="176"/>
      <point x="368" y="176" type="curve" smooth="yes"/>
      <point x="318" y="176"/>
      <point x="280" y="237"/>
      <point x="280" y="379" type="curve" smooth="yes"/>
      <point x="280" y="537"/>
      <point x="349" y="781"/>
      <point x="512" y="781" type="curve" smooth="yes"/>
      <point x="592" y="781"/>
      <point x="710" y="605"/>
      <point x="747" y="605" type="curve" smooth="yes"/>
      <point x="780" y="605"/>
      <point x="824" y="773"/>
      <point x="881" y="812" type="curve"/>
      <point x="834" y="818"/>
      <point x="722" y="936"/>
      <point x="632" y="936" type="curve" smooth="yes"/>
      <point x="500" y="936"/>
      <point x="398" y="891"/>
      <point x="324" y="842" type="curve" smooth="yes"/>
      <point x="127" y="711"/>
      <point x="21" y="516"/>
      <point x="21" y="305" type="curve" smooth="yes"/>
      <point x="21" y="55"/>
      <point x="168" y="-41"/>
    </contour>
  </outline>
</glyph>
<glyph name="LtnSmGamma" format="2">
  <advance width="1040"/>
  <unicode hex="0263"/>
  <anchor x="398" y="-600" name="L"/>
  <anchor x="617" y="1000" name="U"/>
  <outline>
    <contour>
      <point x="1027" y="860" type="curve" smooth="yes"/>
      <point x="1027" y="926"/>
      <point x="990" y="936"/>
      <point x="945" y="936" type="curve" smooth="yes"/>
      <point x="866" y="936"/>
      <point x="712" y="883"/>
      <point x="604" y="818" type="curve"/>
      <point x="641" y="741" type="line"/>
      <point x="678" y="758"/>
      <point x="686" y="766"/>
      <point x="711" y="764" type="curve" smooth="yes"/>
      <point x="746" y="762"/>
      <point x="764" y="743"/>
      <point x="764" y="711" type="curve" smooth="yes"/>
      <point x="764" y="631"/>
      <point x="631" y="405"/>
      <point x="456" y="143" type="curve" smooth="yes"/>
      <point x="239" y="-181"/>
      <point x="212" y="-261"/>
      <point x="212" y="-334" type="curve" smooth="yes"/>
      <point x="212" y="-412"/>
      <point x="255" y="-500"/>
      <point x="420" y="-500" type="curve" smooth="yes"/>
      <point x="579" y="-500"/>
      <point x="787" y="-336"/>
      <point x="787" y="-170" type="curve" smooth="yes"/>
      <point x="787" y="30"/>
      <point x="582" y="489"/>
      <point x="435" y="809" type="curve" smooth="yes"/>
      <point x="394" y="898"/>
      <point x="370" y="936"/>
      <point x="323" y="936" type="curve" smooth="yes"/>
      <point x="290" y="936"/>
      <point x="97" y="851"/>
      <point x="-16" y="800" type="curve"/>
      <point x="12" y="723" type="line"/>
      <point x="12" y="723"/>
      <point x="66" y="747"/>
      <point x="91" y="747" type="curve" smooth="yes"/>
      <point x="113" y="747"/>
      <point x="157" y="729"/>
      <point x="192" y="665" type="curve" smooth="yes"/>
      <point x="327" y="416"/>
      <point x="547" y="-70"/>
      <point x="547" y="-253" type="curve" smooth="yes"/>
      <point x="547" y="-308"/>
      <point x="520" y="-353"/>
      <point x="473" y="-353" type="curve" smooth="yes"/>
      <point x="434" y="-353"/>
      <point x="405" y="-325"/>
      <point x="405" y="-285" type="curve" smooth="yes"/>
      <point x="405" y="-219"/>
      <point x="421" y="-176"/>
      <point x="644" y="172" type="curve" smooth="yes"/>
      <point x="971" y="683"/>
      <point x="1027" y="770"/>
    </contour>
  </outline>
</glyph>
<glyph name="LtnSmTurnedH" format="2">
  <advance width="1075"/>
  <unicode hex="0265"/>
  <anchor x="307" y="-100" name="L"/>
  <anchor x="648" y="1000" name="U"/>
  <outline>
    <contour>
      <point x="36" y="717" type="line"/>
      <point x="36" y="717"/>
      <point x="116" y="744"/>
      <point x="141" y="744" type="curve" smooth="yes"/>
      <point x="163" y="744"/>
      <point x="183" y="736"/>
      <point x="183" y="677" type="curve" smooth="yes"/>
      <point x="183" y="566"/>
      <point x="103" y="254"/>
      <point x="103" y="115" type="curve" smooth="yes"/>
      <point x="103" y="-14"/>
      <point x="152" y="-41"/>
      <point x="236" y="-41" type="curve" smooth="yes"/>
      <point x="355" y="-41"/>
      <point x="489" y="15"/>
      <point x="645" y="157" type="curve"/>
      <point x="617" y="12"/>
      <point x="570" y="-268"/>
      <point x="570" y="-384" type="curve" smooth="yes"/>
      <point x="570" y="-456"/>
      <point x="607" y="-501"/>
      <point x="646" y="-501" type="curve" smooth="yes"/>
      <point x="726" y="-501"/>
      <point x="904" y="-410"/>
      <point x="1027" y="-338" type="curve"/>
      <point x="997" y="-261" type="line"/>
      <point x="948" y="-282"/>
      <point x="929" y="-294"/>
      <point x="892" y="-294" type="curve" smooth="yes"/>
      <point x="866" y="-294"/>
      <point x="856" y="-280"/>
      <point x="856" y="-235" type="curve" smooth="yes"/>
      <point x="856" y="-55"/>
      <point x="975" y="609"/>
      <point x="1025" y="895" type="curve"/>
      <point x="982" y="936" type="line"/>
      <point x="949" y="918"/>
      <point x="761" y="839"/>
      <point x="726" y="820" type="curve"/>
      <point x="728" y="783"/>
      <point x="726" y="741"/>
      <point x="703" y="594" type="curve" smooth="yes"/>
      <point x="685" y="475"/>
      <point x="660" y="376"/>
      <point x="622" y="313" type="curve" smooth="yes"/>
      <point x="554" y="201"/>
      <point x="470" y="179"/>
      <point x="436" y="179" type="curve" smooth="yes"/>
      <point x="408" y="179"/>
      <point x="393" y="194"/>
      <point x="393" y="275" type="curve" smooth="yes"/>
      <point x="393" y="365"/>
      <point x="473" y="743"/>
      <point x="473" y="849" type="curve" smooth="yes"/>
      <point x="473" y="910"/>
      <point x="441" y="931"/>
      <point x="404" y="931" type="curve" smooth="yes"/>
      <point x="349" y="931"/>
      <point x="131" y="846"/>
      <point x="19" y="796" type="curve"/>
    </contour>
  </outline>
</glyph>
<glyph name="LtnSmNRetrHook" format="2">
  <advance width="1103"/>
  <unicode hex="0273"/>
  <anchor x="329" y="-100" name="L"/>
  <anchor x="629" y="1000" name="U"/>
  <outline>
    <contour>
      <point x="1271" y="-143" type="curve"/>
      <point x="1243" y="-78" type="line"/>
      <point x="1166" y="-94"/>
      <point x="1047" y="-137"/>
      <point x="989" y="-178" type="curve"/>
      <point x="1032" y="-255"/>
      <point x="1015" y="-337"/>
      <point x="949" y="-337" type="curve" smooth="yes"/>
      <point x="903" y="-337"/>
      <point x="869" y="-274"/>
      <point x="869" y="-169" type="curve" smooth="yes"/>
      <point x="869" y="68"/>
      <point x="998" y="522"/>
      <point x="998" y="782" type="curve" smooth="yes"/>
      <point x="998" y="911"/>
      <point x="948" y="936"/>
      <point x="864" y="936" type="curve" smooth="yes"/>
      <point x="745" y="936"/>
      <point x="600" y="870"/>
      <point x="455" y="738" type="curve"/>
      <point x="459" y="771"/>
      <point x="460" y="795"/>
      <point x="460" y="823" type="curve" smooth="yes"/>
      <point x="460" y="918"/>
      <point x="448" y="936"/>
      <point x="411" y="936" type="curve" smooth="yes"/>
      <point x="368" y="936"/>
      <point x="140" y="851"/>
      <point x="27" y="802" type="curve"/>
      <point x="47" y="723" type="line"/>
      <point x="47" y="723"/>
      <point x="121" y="749"/>
      <point x="144" y="749" type="curve" smooth="yes"/>
      <point x="168" y="749"/>
      <point x="182" y="743"/>
      <point x="182" y="682" type="curve" smooth="yes"/>
      <point x="182" y="588"/>
      <point x="133" y="266"/>
      <point x="78" y="0" type="curve"/>
      <point x="121" y="-41" type="line"/>
      <point x="154" y="-23"/>
      <point x="339" y="56"/>
      <point x="374" y="75" type="curve"/>
      <point x="372" y="134"/>
      <point x="376" y="182"/>
      <point x="397" y="301" type="curve" smooth="yes"/>
      <point x="419" y="430"/>
      <point x="437" y="517"/>
      <point x="477" y="580" type="curve" smooth="yes"/>
      <point x="547" y="690"/>
      <point x="628" y="716"/>
      <point x="663" y="716" type="curve" smooth="yes"/>
      <point x="701" y="716"/>
      <point x="709" y="691"/>
      <point x="709" y="620" type="curve" smooth="yes"/>
      <point x="709" y="458"/>
      <point x="606" y="57"/>
      <point x="606" y="-217" type="curve" smooth="yes"/>
      <point x="606" y="-394"/>
      <point x="674" y="-500"/>
      <point x="775" y="-500" type="curve" smooth="yes"/>
      <point x="967" y="-500"/>
      <point x="1255" y="-334"/>
    </contour>
  </outline>
</glyph>
<glyph name="LtnSmBarredO" format="2">
  <advance width="924"/>
  <unicode hex="0275"/>
  <anchor x="384" y="-100" name="L"/>
  <anchor x="950" y="870" name="R"/>
  <anchor x="535" y="1000" name="U"/>
  <outline>
    <contour>
      <point x="891" y="559" type="curve" smooth="yes"/>
      <point x="891" y="780"/>
      <point x="766" y="936"/>
      <point x="557" y="936" type="curve" smooth="yes"/>
      <point x="465" y="936"/>
      <point x="357" y="893"/>
      <point x="287" y="840" type="curve" smooth="yes"/>
      <point x="108" y="704"/>
      <point x="33" y="535"/>
      <point x="33" y="344" type="curve" smooth="yes"/>
      <point x="33" y="125"/>
      <point x="165" y="-41"/>
      <point x="381" y="-41" type="curve" smooth="yes"/>
      <point x="461" y="-41"/>
      <point x="572" y="6"/>
      <point x="642" y="63" type="curve" smooth="yes"/>
      <point x="791" y="186"/>
      <point x="891" y="381"/>
    </contour>
    <contour>
      <point x="624" y="405" type="line"/>
      <point x="610" y="243"/>
      <point x="561" y="102"/>
      <point x="449" y="102" type="curve" smooth="yes"/>
      <point x="381" y="102"/>
      <point x="308" y="224"/>
      <point x="298" y="405" type="curve"/>
    </contour>
    <contour>
      <point x="624" y="535" type="curve"/>
      <point x="305" y="535" type="line"/>
      <point x="325" y="683"/>
      <point x="379" y="789"/>
      <point x="488" y="789" type="curve" smooth="yes"/>
      <point x="546" y="789"/>
      <point x="609" y="707"/>
    </contour>
  </outline>
</glyph>
<glyph name="LtnSmPhi" format="2">
  <advance width="1225"/>
  <unicode hex="0278"/>
  <anchor x="466" y="-600" name="L"/>
  <anchor x="773" y="1640" name="U"/>
  <outline>
    <contour>
      <point x="1192" y="558" type="curve" smooth="yes"/>
      <point x="1192" y="779"/>
      <point x="1063" y="935"/>
      <point x="712" y="935" type="curve" smooth="yes"/>
      <point x="531" y="935"/>
      <point x="382" y="878"/>
      <point x="307" y="828" type="curve" smooth="yes"/>
      <point x="114" y="699"/>
      <point x="33" y="534"/>
      <point x="33" y="344" type="curve" smooth="yes"/>
      <point x="33" y="125"/>
      <point x="191" y="-41"/>
      <point x="517" y="-41" type="curve" smooth="yes"/>
      <point x="689" y="-41"/>
      <point x="838" y="19"/>
      <point x="918" y="73" type="curve" smooth="yes"/>
      <point x="1109" y="202"/>
      <point x="1192" y="381"/>
    </contour>
    <contour>
      <point x="924" y="503" type="curve" smooth="yes"/>
      <point x="924" y="340"/>
      <point x="776" y="87"/>
      <point x="583" y="87" type="curve" smooth="yes"/>
      <point x="426" y="87"/>
      <point x="302" y="221"/>
      <point x="302" y="399" type="curve" smooth="yes"/>
      <point x="302" y="592"/>
      <point x="442" y="803"/>
      <point x="646" y="803" type="curve" smooth="yes"/>
      <point x="817" y="803"/>
      <point x="924" y="706"/>
    </contour>
    <contour>
      <point x="874" y="1385" type="curve" smooth="yes"/>
      <point x="876" y="1456"/>
      <point x="876" y="1520"/>
      <point x="815" y="1520" type="curve" smooth="yes"/>
      <point x="762" y="1520"/>
      <point x="541" y="1437"/>
      <point x="429" y="1385" type="curve"/>
      <point x="449" y="1306" type="line"/>
      <point x="479" y="1318"/>
      <point x="525" y="1333"/>
      <point x="542" y="1333" type="curve" smooth="yes"/>
      <point x="566" y="1333"/>
      <point x="594" y="1327"/>
      <point x="594" y="1266" type="curve" smooth="yes"/>
      <point x="594" y="1111"/>
      <point x="557" y="904"/>
      <point x="507" y="597" type="curve" smooth="yes"/>
      <point x="436" y="161"/>
      <point x="346" y="-335"/>
      <point x="328" y="-471" type="curve"/>
      <point x="377" y="-500" type="line"/>
      <point x="410" y="-484"/>
      <point x="577" y="-452"/>
      <point x="621" y="-447" type="curve"/>
      <point x="584" y="-372"/>
      <point x="664" y="64"/>
      <point x="749" y="520" type="curve" smooth="yes"/>
      <point x="864" y="1140"/>
      <point x="872" y="1300"/>
    </contour>
  </outline>
</glyph>
<glyph name="LtnSmRFishhook" format="2">
  <advance width="872"/>
  <unicode hex="027E"/>
  <anchor x="214" y="-100" name="L"/>
  <anchor x="518" y="1000" name="U"/>
  <outline>
    <contour>
      <point x="910" y="810" type="curve"/>
      <point x="832" y="835"/>
      <point x="744" y="936"/>
      <point x="637" y="936" type="curve" smooth="yes"/>
      <point x="439" y="936"/>
      <point x="242" y="806"/>
      <point x="146" y="552" type="curve" smooth="yes"/>
      <point x="129" y="508"/>
      <point x="109" y="322"/>
      <point x="48" y="0" type="curve"/>
      <point x="91" y="-41" type="line"/>
      <point x="124" y="-23"/>
      <point x="299" y="56"/>
      <point x="344" y="75" type="curve"/>
      <point x="347" y="278"/>
      <point x="395" y="568"/>
      <point x="436" y="657" type="curve" smooth="yes"/>
      <point x="459" y="707"/>
      <point x="500" y="739"/>
      <point x="538" y="739" type="curve" smooth="yes"/>
      <point x="626" y="739"/>
      <point x="684" y="585"/>
      <point x="754" y="585" type="curve" smooth="yes"/>
      <point x="800" y="585"/>
      <point x="877" y="767"/>
    </contour>
  </outline>
</glyph>
<glyph name="LtnSmCapInvR" format="2">
  <advance width="1148"/>
  <unicode hex="0281"/>
  <anchor x="506" y="-100" name="L"/>
  <anchor x="657" y="1000" name="U"/>
  <outline>
    <contour>
      <point x="503" y="843" type="curve"/>
      <point x="503" y="878"/>
      <point x="491" y="936"/>
      <point x="414" y="936" type="curve" smooth="yes"/>
      <point x="361" y="936"/>
      <point x="189" y="891"/>
      <point x="66" y="842" type="curve"/>
      <point x="96" y="763" type="line"/>
      <point x="96" y="763"/>
      <point x="176" y="789"/>
      <point x="203" y="789" type="curve" smooth="yes"/>
      <point x="222" y="789"/>
      <point x="248" y="781"/>
      <point x="240" y="725" type="curve" smooth="yes"/>
      <point x="155" y="102" type="line"/>
      <point x="110" y="108"/>
      <point x="71" y="114"/>
      <point x="36" y="119" type="curve"/>
      <point x="15" y="14" type="line"/>
      <point x="116" y="-9"/>
      <point x="327" y="-41"/>
      <point x="475" y="-41" type="curve" smooth="yes"/>
      <point x="781" y="-41"/>
      <point x="941" y="66"/>
      <point x="959" y="211" type="curve" smooth="yes"/>
      <point x="980" y="380"/>
      <point x="875" y="461"/>
      <point x="738" y="493" type="curve"/>
      <point x="964" y="745" type="line"/>
      <point x="987" y="770"/>
      <point x="1018" y="776"/>
      <point x="1109" y="757" type="curve"/>
      <point x="1133" y="835" type="line"/>
      <point x="1038" y="891"/>
      <point x="893" y="936"/>
      <point x="830" y="936" type="curve" smooth="yes"/>
      <point x="779" y="936"/>
      <point x="762" y="918"/>
      <point x="735" y="875" type="curve"/>
      <point x="515" y="502" type="line"/>
      <point x="503" y="501"/>
      <point x="481" y="499"/>
      <point x="459" y="495" type="curve"/>
      <point x="485" y="686" type="line" smooth="yes"/>
      <point x="493" y="748"/>
      <point x="502" y="789"/>
    </contour>
    <contour>
      <point x="494" y="379" type="curve"/>
      <point x="658" y="379"/>
      <point x="698" y="294"/>
      <point x="680" y="195" type="curve" smooth="yes"/>
      <point x="664" y="105"/>
      <point x="569" y="81"/>
      <point x="469" y="81" type="curve" smooth="yes"/>
      <point x="450" y="81"/>
      <point x="422" y="81"/>
      <point x="404" y="82" type="curve"/>
      <point x="445" y="376" type="line"/>
      <point x="462" y="378"/>
      <point x="473" y="379"/>
    </contour>
  </outline>
</glyph>
<glyph name="LtnSmSquatRevEsh" format="2">
  <advance width="751"/>
  <unicode hex="0285"/>
  <anchor x="302" y="-600" name="L"/>
  <anchor x="470" y="1000" name="U"/>
  <outline>
    <contour>
      <point x="467" y="-500" type="curve" smooth="yes"/>
      <point x="659" y="-500"/>
      <point x="942" y="-334"/>
      <point x="958" y="-143" type="curve"/>
      <point x="930" y="-78" type="line"/>
      <point x="853" y="-94"/>
      <point x="734" y="-137"/>
      <point x="676" y="-178" type="curve"/>
      <point x="719" y="-255"/>
      <point x="702" y="-337"/>
      <point x="636" y="-337" type="curve" smooth="yes"/>
      <point x="570" y="-337"/>
      <point x="552" y="-244"/>
      <point x="552" y="-149" type="curve" smooth="yes"/>
      <point x="552" y="72"/>
      <point x="675" y="464"/>
      <point x="675" y="709" type="curve" smooth="yes"/>
      <point x="675" y="892"/>
      <point x="577" y="936"/>
      <point x="448" y="936" type="curve" smooth="yes"/>
      <point x="320" y="936"/>
      <point x="163" y="876"/>
      <point x="47" y="773" type="curve"/>
      <point x="33" y="744"/>
      <point x="44" y="569"/>
      <point x="74" y="469" type="curve"/>
      <point x="148" y="469" type="line"/>
      <point x="168" y="592"/>
      <point x="249" y="788"/>
      <point x="346" y="788" type="curve" smooth="yes"/>
      <point x="393" y="788"/>
      <point x="428" y="762"/>
      <point x="428" y="651" type="curve" smooth="yes"/>
      <point x="428" y="449"/>
      <point x="299" y="34"/>
      <point x="299" y="-197" type="curve" smooth="yes"/>
      <point x="299" y="-364"/>
      <point x="346" y="-500"/>
    </contour>
  </outline>
</glyph>
<glyph name="LtnSmUBar" format="2">
  <advance width="1153"/>
  <unicode hex="0289"/>
  <anchor x="425" y="0" name="H"/>
  <anchor x="480" y="-100" name="L"/>
  <anchor x="837" y="0" name="O"/>
  <anchor x="1158" y="870" name="R"/>
  <anchor x="633" y="1000" name="U"/>
  <outline>
    <contour>
      <point x="1118" y="500" type="line"/>
      <point x="1089" y="535" type="line"/>
      <point x="25" y="535" type="line"/>
      <point x="13" y="514"/>
      <point x="-16" y="458"/>
      <point x="-25" y="437" type="curve"/>
      <point x="4" y="405" type="line"/>
      <point x="1068" y="405" type="line"/>
    </contour>
    <contour>
      <point x="1100" y="118" type="curve"/>
      <point x="1081" y="194" type="line"/>
      <point x="1033" y="174"/>
      <point x="1011" y="166"/>
      <point x="976" y="166" type="curve" smooth="yes"/>
      <point x="943" y="166"/>
      <point x="923" y="203"/>
      <point x="923" y="324" type="curve" smooth="yes"/>
      <point x="923" y="455"/>
      <point x="992" y="735"/>
      <point x="992" y="852" type="curve" smooth="yes"/>
      <point x="992" y="913"/>
      <point x="983" y="936"/>
      <point x="946" y="936" type="curve" smooth="yes"/>
      <point x="892" y="936"/>
      <point x="676" y="851"/>
      <point x="563" y="800" type="curve"/>
      <point x="583" y="723" type="line"/>
      <point x="583" y="723"/>
      <point x="644" y="747"/>
      <point x="667" y="747" type="curve" smooth="yes"/>
      <point x="690" y="747"/>
      <point x="704" y="741"/>
      <point x="704" y="680" type="curve" smooth="yes"/>
      <point x="704" y="602"/>
      <point x="663" y="425"/>
      <point x="652" y="307" type="curve" smooth="yes"/>
      <point x="631" y="79"/>
      <point x="723" y="-41"/>
      <point x="798" y="-41" type="curve" smooth="yes"/>
      <point x="868" y="-41"/>
      <point x="993" y="46"/>
    </contour>
    <contour>
      <point x="671" y="419" type="line"/>
      <point x="559" y="249"/>
      <point x="468" y="180"/>
      <point x="424" y="180" type="curve" smooth="yes"/>
      <point x="405" y="180"/>
      <point x="379" y="215"/>
      <point x="379" y="272" type="curve" smooth="yes"/>
      <point x="379" y="389"/>
      <point x="459" y="735"/>
      <point x="459" y="852" type="curve" smooth="yes"/>
      <point x="459" y="913"/>
      <point x="449" y="936"/>
      <point x="410" y="936" type="curve" smooth="yes"/>
      <point x="357" y="936"/>
      <point x="132" y="851"/>
      <point x="19" y="800" type="curve"/>
      <point x="36" y="723" type="line"/>
      <point x="36" y="723"/>
      <point x="106" y="747"/>
      <point x="129" y="747" type="curve" smooth="yes"/>
      <point x="153" y="747"/>
      <point x="170" y="741"/>
      <point x="170" y="680" type="curve" smooth="yes"/>
      <point x="170" y="582"/>
      <point x="106" y="324"/>
      <point x="106" y="205" type="curve" smooth="yes"/>
      <point x="106" y="43"/>
      <point x="210" y="-41"/>
      <point x="293" y="-41" type="curve" smooth="yes"/>
      <point x="409" y="-41"/>
      <point x="557" y="68"/>
      <point x="657" y="199" type="curve"/>
    </contour>
  </outline>
</glyph>
<glyph name="LtnSmCapY" format="2">
  <advance width="1015"/>
  <unicode hex="028F"/>
  <anchor x="427" y="-100" name="L"/>
  <anchor x="933" y="870" name="R"/>
  <anchor x="560" y="1000" name="U"/>
  <outline>
    <contour>
      <point x="1004" y="824" type="curve"/>
      <point x="1015" y="906" type="line"/>
      <point x="657" y="906" type="line"/>
      <point x="647" y="824" type="line"/>
      <point x="721" y="815"/>
      <point x="753" y="801"/>
      <point x="734" y="775" type="curve" smooth="yes"/>
      <point x="576" y="524" type="line"/>
      <point x="527" y="645"/>
      <point x="457" y="789"/>
      <point x="398" y="884" type="curve" smooth="yes"/>
      <point x="374" y="923"/>
      <point x="339" y="927"/>
      <point x="308" y="927" type="curve" smooth="yes"/>
      <point x="239" y="927"/>
      <point x="107" y="879"/>
      <point x="28" y="844" type="curve"/>
      <point x="47" y="764" type="line"/>
      <point x="123" y="782"/>
      <point x="174" y="777"/>
      <point x="193" y="745" type="curve" smooth="yes"/>
      <point x="253" y="645"/>
      <point x="324" y="504"/>
      <point x="371" y="342" type="curve"/>
      <point x="613" y="342" type="line"/>
      <point x="892" y="775" type="line"/>
      <point x="908" y="801"/>
      <point x="935" y="812"/>
    </contour>
    <contour>
      <point x="704" y="0" type="line"/>
      <point x="713" y="82" type="line"/>
      <point x="626" y="107"/>
      <point x="595" y="130"/>
      <point x="597" y="142" type="curve" smooth="yes"/>
      <point x="641" y="460" type="line"/>
      <point x="378" y="460" type="line"/>
      <point x="334" y="142" type="line" smooth="yes"/>
      <point x="332" y="128"/>
      <point x="296" y="109"/>
      <point x="201" y="82" type="curve"/>
      <point x="192" y="0" type="line"/>
    </contour>
  </outline>
</glyph>
<glyph name="LtnStretchedC" format="2">
  <advance width="1013"/>
  <unicode hex="0297"/>
  <anchor x="456" y="-600" name="L"/>
  <anchor x="684" y="1000" name="U"/>
  <outline>
    <contour>
      <point x="844" y="-178" type="line"/>
      <point x="696" y="-300"/>
      <point x="603" y="-323"/>
      <point x="549" y="-323" type="curve" smooth="yes"/>
      <point x="380" y="-323"/>
      <point x="345" y="-116"/>
      <point x="345" y="29" type="curve" smooth="yes"/>
      <point x="345" y="91"/>
      <point x="348" y="161"/>
      <point x="357" y="225" type="curve" smooth="yes"/>
      <point x="373" y="337"/>
      <point x="393" y="454"/>
      <point x="422" y="537" type="curve" smooth="yes"/>
      <point x="486" y="719"/>
      <point x="560" y="781"/>
      <point x="665" y="781" type="curve" smooth="yes"/>
      <point x="742" y="781"/>
      <point x="777" y="651"/>
      <point x="828" y="651" type="curve" smooth="yes"/>
      <point x="869" y="651"/>
      <point x="991" y="753"/>
      <point x="1051" y="825" type="curve"/>
      <point x="979" y="851"/>
      <point x="898" y="936"/>
      <point x="776" y="936" type="curve" smooth="yes"/>
      <point x="628" y="936"/>
      <point x="314" y="836"/>
      <point x="194" y="573" type="curve" smooth="yes"/>
      <point x="148" y="473"/>
      <point x="111" y="333"/>
      <point x="92" y="195" type="curve" smooth="yes"/>
      <point x="81" y="118"/>
      <point x="76" y="35"/>
      <point x="76" y="-38" type="curve" smooth="yes"/>
      <point x="76" y="-303"/>
      <point x="179" y="-500"/>
      <point x="439" y="-500" type="curve" smooth="yes"/>
      <point x="549" y="-500"/>
      <point x="689" y="-447"/>
      <point x="899" y="-254" type="curve"/>
    </contour>
  </outline>
</glyph>
<glyph name="LtnSmCapB" format="2">
  <advance width="983"/>
  <unicode hex="0299"/>
  <anchor x="406" y="-100" name="L"/>
  <anchor x="569" y="1000" name="U"/>
  <outline>
    <contour>
      <point x="744" y="-10"/>
      <point x="898" y="122"/>
      <point x="898" y="323" type="curve" smooth="yes"/>
      <point x="898" y="385"/>
      <point x="829" y="499"/>
      <point x="690" y="520" type="curve"/>
      <point x="802" y="538"/>
      <point x="886" y="627"/>
      <point x="886" y="738" type="curve" smooth="yes"/>
      <point x="886" y="843"/>
      <point x="793" y="936"/>
      <point x="535" y="936" type="curve" smooth="yes"/>
      <point x="365" y="936"/>
      <point x="174" y="913"/>
      <point x="84" y="891" type="curve"/>
      <point x="84" y="796" type="line"/>
      <point x="180" y="809"/>
      <point x="315" y="821"/>
      <point x="482" y="821" type="curve" smooth="yes"/>
      <point x="593" y="821"/>
      <point x="622" y="769"/>
      <point x="622" y="714" type="curve" smooth="yes"/>
      <point x="622" y="625"/>
      <point x="552" y="556"/>
      <point x="451" y="556" type="curve" smooth="yes"/>
      <point x="361" y="556" type="line"/>
      <point x="355" y="424" type="line"/>
      <point x="388" y="429"/>
      <point x="440" y="436"/>
      <point x="473" y="436" type="curve" smooth="yes"/>
      <point x="583" y="436"/>
      <point x="635" y="374"/>
      <point x="635" y="288" type="curve" smooth="yes"/>
      <point x="635" y="191"/>
      <point x="588" y="111"/>
      <point x="477" y="111" type="curve" smooth="yes"/>
      <point x="420" y="111"/>
      <point x="393" y="122"/>
      <point x="359" y="138" type="curve"/>
      <point x="30" y="0" type="line"/>
      <point x="177" y="-4"/>
      <point x="399" y="-10"/>
      <point x="480" y="-10" type="curve" smooth="yes"/>
    </contour>
    <contour>
      <point x="453" y="0" type="line"/>
      <point x="462" y="72" type="line"/>
      <point x="384" y="84"/>
      <point x="366" y="129"/>
      <point x="368" y="141" type="curve" smooth="yes"/>
      <point x="466" y="852" type="line"/>
      <point x="205" y="836" type="line"/>
      <point x="108" y="141" type="line"/>
      <point x="106" y="129"/>
      <point x="55" y="99"/>
      <point x="-23" y="82" type="curve"/>
      <point x="-34" y="0" type="line"/>
    </contour>
  </outline>
</glyph>
<glyph name="LtnSmQHook" format="2">
  <advance width="973"/>
  <unicode hex="02A0"/>
  <anchor x="242" y="-100" name="L"/>
  <anchor x="552" y="1000" name="U"/>
  <outline>
    <contour>
      <point x="493" y="-500" type="line"/>
      <point x="526" y="-484"/>
      <point x="721" y="-409"/>
      <point x="757" y="-397" type="curve"/>
      <point x="703" y="-307"/>
      <point x="863" y="609"/>
      <point x="926" y="949" type="curve" smooth="yes"/>
      <point x="952" y="1088"/>
      <point x="973" y="1170"/>
      <point x="1026" y="1170" type="curve" smooth="yes"/>
      <point x="1080" y="1170"/>
      <point x="1123" y="1048"/>
      <point x="1158" y="1048" type="curve" smooth="yes"/>
      <point x="1190" y="1048"/>
      <point x="1348" y="1185"/>
      <point x="1405" y="1226" type="curve"/>
      <point x="1345" y="1233"/>
      <point x="1233" y="1353"/>
      <point x="1116" y="1353" type="curve" smooth="yes"/>
      <point x="1024" y="1353"/>
      <point x="951" y="1312"/>
      <point x="881" y="1260" type="curve" smooth="yes"/>
      <point x="742" y="1157"/>
      <point x="688" y="1031"/>
      <point x="666" y="898" type="curve" smooth="yes"/>
      <point x="600" y="494"/>
      <point x="490" y="-181"/>
      <point x="448" y="-461" type="curve"/>
    </contour>
    <contour>
      <point x="266" y="-41" type="curve" smooth="yes"/>
      <point x="353" y="-41"/>
      <point x="430" y="6"/>
      <point x="564" y="162" type="curve"/>
      <point x="599" y="389" type="line"/>
      <point x="477" y="221"/>
      <point x="410" y="176"/>
      <point x="378" y="176" type="curve" smooth="yes"/>
      <point x="338" y="176"/>
      <point x="282" y="217"/>
      <point x="282" y="379" type="curve" smooth="yes"/>
      <point x="282" y="537"/>
      <point x="360" y="781"/>
      <point x="522" y="781" type="curve" smooth="yes"/>
      <point x="603" y="781"/>
      <point x="713" y="611"/>
      <point x="748" y="611" type="curve" smooth="yes"/>
      <point x="780" y="611"/>
      <point x="832" y="769"/>
      <point x="889" y="808" type="curve"/>
      <point x="844" y="814"/>
      <point x="742" y="936"/>
      <point x="632" y="936" type="curve" smooth="yes"/>
      <point x="548" y="936"/>
      <point x="408" y="891"/>
      <point x="334" y="842" type="curve" smooth="yes"/>
      <point x="146" y="719"/>
      <point x="33" y="516"/>
      <point x="33" y="305" type="curve" smooth="yes"/>
      <point x="33" y="55"/>
      <point x="168" y="-41"/>
    </contour>
  </outline>
</glyph>
<glyph name="ModSmH" format="2">
  <advance width="767"/>
  <unicode hex="02B0"/>
  <anchor x="372" y="548" name="L"/>
  <anchor x="535" y="1556" name="U"/>
  <outline>
    <contour>
      <point x="121" y="583" type="line"/>
      <point x="144" y="594"/>
      <point x="274" y="644"/>
      <point x="298" y="653" type="curve"/>
      <point x="298" y="675"/>
      <point x="298" y="700"/>
      <point x="314" y="789" type="curve" smooth="yes"/>
      <point x="328" y="860"/>
      <point x="345" y="919"/>
      <point x="371" y="957" type="curve" smooth="yes"/>
      <point x="419" y="1024"/>
      <point x="478" y="1038"/>
      <point x="501" y="1038" type="curve" smooth="yes"/>
      <point x="521" y="1038"/>
      <point x="532" y="1029"/>
      <point x="532" y="980" type="curve" smooth="yes"/>
      <point x="532" y="926"/>
      <point x="477" y="696"/>
      <point x="477" y="654" type="curve" smooth="yes"/>
      <point x="477" y="610"/>
      <point x="503" y="583"/>
      <point x="530" y="583" type="curve" smooth="yes"/>
      <point x="586" y="583"/>
      <point x="711" y="638"/>
      <point x="797" y="681" type="curve"/>
      <point x="776" y="727" type="line"/>
      <point x="746" y="715"/>
      <point x="728" y="708"/>
      <point x="702" y="708" type="curve" smooth="yes"/>
      <point x="684" y="708"/>
      <point x="677" y="716"/>
      <point x="677" y="743" type="curve" smooth="yes"/>
      <point x="677" y="810"/>
      <point x="734" y="993"/>
      <point x="734" y="1076" type="curve" smooth="yes"/>
      <point x="734" y="1153"/>
      <point x="700" y="1170"/>
      <point x="641" y="1170" type="curve" smooth="yes"/>
      <point x="558" y="1170"/>
      <point x="464" y="1136"/>
      <point x="355" y="1051" type="curve"/>
      <point x="372" y="1138"/>
      <point x="424" y="1414"/>
      <point x="424" y="1471" type="curve" smooth="yes"/>
      <point x="424" y="1507"/>
      <point x="402" y="1520"/>
      <point x="376" y="1520" type="curve" smooth="yes"/>
      <point x="338" y="1520"/>
      <point x="185" y="1469"/>
      <point x="107" y="1439" type="curve"/>
      <point x="118" y="1392" type="line"/>
      <point x="135" y="1396"/>
      <point x="177" y="1408"/>
      <point x="192" y="1408" type="curve" smooth="yes"/>
      <point x="207" y="1408"/>
      <point x="221" y="1404"/>
      <point x="221" y="1368" type="curve" smooth="yes"/>
      <point x="221" y="1266"/>
      <point x="126" y="780"/>
      <point x="91" y="608" type="curve"/>
    </contour>
  </outline>
</glyph>
<glyph name="ModSmR" format="2">
  <advance width="610"/>
  <unicode hex="02B3"/>
  <anchor x="211" y="548" name="L"/>
  <anchor x="418" y="1208" name="U"/>
  <outline>
    <contour>
      <point x="125" y="583" type="line"/>
      <point x="148" y="594"/>
      <point x="270" y="642"/>
      <point x="302" y="653" type="curve"/>
      <point x="299" y="717"/>
      <point x="313" y="778"/>
      <point x="333" y="838" type="curve" smooth="yes"/>
      <point x="373" y="953"/>
      <point x="444" y="1024"/>
      <point x="493" y="1024" type="curve" smooth="yes"/>
      <point x="520" y="1024"/>
      <point x="554" y="977"/>
      <point x="589" y="977" type="curve" smooth="yes"/>
      <point x="607" y="977"/>
      <point x="675" y="1092"/>
      <point x="698" y="1118" type="curve"/>
      <point x="657" y="1132"/>
      <point x="596" y="1170"/>
      <point x="563" y="1170" type="curve" smooth="yes"/>
      <point x="503" y="1170"/>
      <point x="442" y="1143"/>
      <point x="352" y="1027" type="curve"/>
      <point x="357" y="1057"/>
      <point x="362" y="1096"/>
      <point x="362" y="1113" type="curve" smooth="yes"/>
      <point x="362" y="1157"/>
      <point x="354" y="1170"/>
      <point x="328" y="1170" type="curve" smooth="yes"/>
      <point x="291" y="1170"/>
      <point x="139" y="1119"/>
      <point x="60" y="1088" type="curve"/>
      <point x="73" y="1042" type="line"/>
      <point x="87" y="1046"/>
      <point x="125" y="1056"/>
      <point x="138" y="1056" type="curve" smooth="yes"/>
      <point x="154" y="1056"/>
      <point x="167" y="1053"/>
      <point x="167" y="1016" type="curve" smooth="yes"/>
      <point x="167" y="943"/>
      <point x="136" y="778"/>
      <point x="95" y="608" type="curve"/>
    </contour>
  </outline>
</glyph>
<glyph name="ModApos" format="2">
  <advance width="404"/>
  <unicode hex="02BC"/>
  <outline>
    <contour>
      <point x="439" y="1252" type="curve" smooth="yes"/>
      <point x="473" y="1352"/>
      <point x="453" y="1466"/>
      <point x="393" y="1496" type="curve"/>
      <point x="325" y="1498"/>
      <point x="162" y="1459"/>
      <point x="110" y="1431" type="curve"/>
      <point x="115" y="1351" type="line"/>
      <point x="226" y="1351"/>
      <point x="259" y="1285"/>
      <point x="242" y="1202" type="curve" smooth="yes"/>
      <point x="230" y="1143"/>
      <point x="185" y="1054"/>
      <point x="119" y="1002" type="curve"/>
      <point x="189" y="971" type="line"/>
      <point x="303" y="1034"/>
      <point x="410" y="1166"/>
    </contour>
  </outline>
</glyph>
<glyph name="ModUpArrwhd" format="2">
  <advance width="642"/>
  <unicode hex="02C4"/>
  <outline>
    <contour>
      <point x="491" y="1444" type="line"/>
      <point x="466" y="1433"/>
      <point x="401" y="1408"/>
      <point x="376" y="1388" type="curve"/>
      <point x="90" y="886" type="line"/>
      <point x="109" y="864" type="line"/>
      <point x="126" y="871"/>
      <point x="209" y="902"/>
      <point x="229" y="919" type="curve"/>
      <point x="406" y="1244" type="line"/>
      <point x="523" y="881" type="line"/>
      <point x="549" y="862" type="line"/>
      <point x="580" y="873"/>
      <point x="630" y="903"/>
      <point x="652" y="919" type="curve"/>
    </contour>
  </outline>
</glyph>
<glyph name="ModDwnArrwhd" format="2">
  <advance width="662"/>
  <unicode hex="02C5"/>
  <outline>
    <contour>
      <point x="311" y="882" type="line"/>
      <point x="336" y="893"/>
      <point x="401" y="918"/>
      <point x="426" y="938" type="curve"/>
      <point x="712" y="1440" type="line"/>
      <point x="693" y="1462" type="line"/>
      <point x="676" y="1455"/>
      <point x="593" y="1424"/>
      <point x="573" y="1407" type="curve"/>
      <point x="396" y="1082" type="line"/>
      <point x="279" y="1445" type="line"/>
      <point x="253" y="1464" type="line"/>
      <point x="222" y="1453"/>
      <point x="172" y="1423"/>
      <point x="150" y="1407" type="curve"/>
    </contour>
  </outline>
</glyph>
<glyph name="ModCircumAccent" format="2">
  <advance width="682"/>
  <unicode hex="02C6"/>
  <outline>
    <contour>
      <point x="772" y="1081" type="curve"/>
      <point x="569" y="1462" type="line"/>
      <point x="417" y="1462" type="line"/>
      <point x="113" y="1081" type="line"/>
      <point x="126" y="1054"/>
      <point x="163" y="1024"/>
      <point x="175" y="1016" type="curve"/>
      <point x="467" y="1231" type="line"/>
      <point x="696" y="1016" type="line"/>
      <point x="717" y="1026"/>
      <point x="754" y="1054"/>
    </contour>
  </outline>
</glyph>
<glyph name="ModLowGraveAccent" format="2">
  <advance width="523"/>
  <unicode hex="02CE"/>
  <anchor x="162" y="-600" name="L"/>
  <outline>
    <contour>
      <point x="468" y="-367" type="curve"/>
      <point x="135" y="-32" type="line"/>
      <point x="104" y="-48"/>
      <point x="4" y="-103"/>
      <point x="-21" y="-123" type="curve"/>
      <point x="-40" y="-200" type="line"/>
      <point x="391" y="-444" type="line"/>
      <point x="420" y="-433"/>
      <point x="450" y="-394"/>
    </contour>
  </outline>
</glyph>
<glyph name="ModUpTack" format="2">
  <advance width="787"/>
  <unicode hex="02D4"/>
  <outline>
    <contour>
      <point x="139" y="245" type="curve"/>
      <point x="168" y="210" type="line"/>
      <point x="673" y="210" type="line"/>
      <point x="690" y="233"/>
      <point x="718" y="281"/>
      <point x="727" y="304" type="curve"/>
      <point x="700" y="338" type="line"/>
      <point x="193" y="338" type="line"/>
      <point x="180" y="316"/>
      <point x="147" y="268"/>
    </contour>
    <contour>
      <point x="426" y="665" type="curve"/>
      <point x="364" y="255" type="line"/>
      <point x="399" y="237" type="line"/>
      <point x="423" y="242"/>
      <point x="474" y="261"/>
      <point x="497" y="271" type="curve"/>
      <point x="558" y="683" type="line"/>
      <point x="528" y="714" type="line"/>
      <point x="504" y="708"/>
      <point x="451" y="678"/>
    </contour>
  </outline>
</glyph>
<glyph name="ModDwnTack" format="2">
  <advance width="787"/>
  <unicode hex="02D5"/>
  <outline>
    <contour>
      <point x="707" y="655" type="curve"/>
      <point x="678" y="690" type="line"/>
      <point x="173" y="690" type="line"/>
      <point x="156" y="667"/>
      <point x="128" y="619"/>
      <point x="119" y="596" type="curve"/>
      <point x="146" y="562" type="line"/>
      <point x="653" y="562" type="line"/>
      <point x="666" y="584"/>
      <point x="699" y="632"/>
    </contour>
    <contour>
      <point x="420" y="235" type="curve"/>
      <point x="482" y="645" type="line"/>
      <point x="447" y="663" type="line"/>
      <point x="423" y="658"/>
      <point x="372" y="639"/>
      <point x="349" y="629" type="curve"/>
      <point x="288" y="217" type="line"/>
      <point x="318" y="186" type="line"/>
      <point x="342" y="192"/>
      <point x="395" y="222"/>
    </contour>
  </outline>
</glyph>
<glyph name="Ogonek" format="2">
  <advance width="377"/>
  <unicode hex="02DB"/>
  <anchor x="84" y="-600" name="L"/>
  <outline>
    <contour>
      <point x="385" y="-291" type="curve"/>
      <point x="366" y="-216" type="line"/>
      <point x="311" y="-267"/>
      <point x="254" y="-285"/>
      <point x="225" y="-285" type="curve" smooth="yes"/>
      <point x="186" y="-285"/>
      <point x="158" y="-257"/>
      <point x="158" y="-212" type="curve" smooth="yes"/>
      <point x="158" y="-147"/>
      <point x="233" y="-54"/>
      <point x="343" y="19" type="curve"/>
      <point x="223" y="25" type="line"/>
      <point x="74" y="-52"/>
      <point x="-91" y="-178"/>
      <point x="-91" y="-312" type="curve" smooth="yes"/>
      <point x="-91" y="-425"/>
      <point x="16" y="-446"/>
      <point x="78" y="-446" type="curve" smooth="yes"/>
      <point x="193" y="-446"/>
      <point x="323" y="-363"/>
    </contour>
  </outline>
</glyph>
<glyph name="ModSmS" format="2">
  <advance width="567"/>
  <unicode hex="02E2"/>
  <anchor x="280" y="548" name="L"/>
  <anchor x="386" y="1208" name="U"/>
  <outline>
    <contour>
      <point x="249" y="583" type="curve" smooth="yes"/>
      <point x="371" y="583"/>
      <point x="560" y="670"/>
      <point x="560" y="781" type="curve" smooth="yes"/>
      <point x="560" y="866"/>
      <point x="482" y="909"/>
      <point x="406" y="943" type="curve" smooth="yes"/>
      <point x="331" y="977"/>
      <point x="289" y="999"/>
      <point x="289" y="1039" type="curve" smooth="yes"/>
      <point x="289" y="1073"/>
      <point x="308" y="1095"/>
      <point x="360" y="1095" type="curve" smooth="yes"/>
      <point x="429" y="1095"/>
      <point x="477" y="1011"/>
      <point x="508" y="1011" type="curve" smooth="yes"/>
      <point x="528" y="1011"/>
      <point x="588" y="1078"/>
      <point x="618" y="1114" type="curve"/>
      <point x="554" y="1123"/>
      <point x="499" y="1170"/>
      <point x="397" y="1170" type="curve" smooth="yes"/>
      <point x="280" y="1170"/>
      <point x="117" y="1101"/>
      <point x="117" y="1000" type="curve" smooth="yes"/>
      <point x="117" y="948"/>
      <point x="143" y="901"/>
      <point x="242" y="858" type="curve" smooth="yes"/>
      <point x="312" y="826"/>
      <point x="384" y="788"/>
      <point x="384" y="736" type="curve" smooth="yes"/>
      <point x="384" y="693"/>
      <point x="350" y="665"/>
      <point x="291" y="665" type="curve" smooth="yes"/>
      <point x="175" y="665"/>
      <point x="140" y="802"/>
      <point x="114" y="802" type="curve" smooth="yes"/>
      <point x="94" y="802"/>
      <point x="28" y="702"/>
      <point x="28" y="679" type="curve" smooth="yes"/>
      <point x="28" y="645"/>
      <point x="120" y="583"/>
    </contour>
  </outline>
</glyph>
<glyph name="ModYinDepartingTnMrk" format="2">
  <advance width="844"/>
  <unicode hex="02EA"/>
  <outline>
    <contour>
      <point x="504" y="254" type="curve"/>
      <point x="476" y="291" type="line"/>
      <point x="110" y="291" type="line"/>
      <point x="93" y="264"/>
      <point x="61" y="222"/>
      <point x="50" y="196" type="curve"/>
      <point x="72" y="162" type="line"/>
      <point x="451" y="162" type="line"/>
      <point x="465" y="184"/>
      <point x="493" y="229"/>
    </contour>
    <contour>
      <point x="187" y="217" type="curve"/>
      <point x="258" y="726" type="line"/>
      <point x="225" y="764" type="line"/>
      <point x="197" y="755"/>
      <point x="152" y="734"/>
      <point x="126" y="720" type="curve"/>
      <point x="50" y="196" type="line"/>
      <point x="75" y="171" type="line"/>
      <point x="104" y="180"/>
      <point x="156" y="198"/>
    </contour>
  </outline>
</glyph>
<glyph name="ModUnaspd" format="2">
  <advance width="780"/>
  <unicode hex="02ED"/>
  <outline>
    <contour>
      <point x="819" y="873" type="curve"/>
      <point x="790" y="908" type="line"/>
      <point x="88" y="908" type="line"/>
      <point x="73" y="881"/>
      <point x="34" y="803"/>
      <point x="24" y="776" type="curve"/>
      <point x="50" y="742" type="line"/>
      <point x="755" y="742" type="line"/>
      <point x="768" y="764"/>
      <point x="810" y="844"/>
    </contour>
    <contour>
      <point x="862" y="1173" type="curve"/>
      <point x="833" y="1208" type="line"/>
      <point x="131" y="1208" type="line"/>
      <point x="116" y="1181"/>
      <point x="77" y="1103"/>
      <point x="67" y="1076" type="curve"/>
      <point x="93" y="1042" type="line"/>
      <point x="798" y="1042" type="line"/>
      <point x="811" y="1064"/>
      <point x="853" y="1144"/>
    </contour>
  </outline>
</glyph>
<glyph name="ModMiddleDblGraveAccent" format="2">
  <advance width="754"/>
  <unicode hex="02F5"/>
  <anchor x="465" y="1000" name="U"/>
  <outline>
    <contour>
      <point x="339" y="465" type="line"/>
      <point x="359" y="467"/>
      <point x="416" y="495"/>
      <point x="438" y="511" type="curve"/>
      <point x="337" y="938" type="line"/>
      <point x="311" y="934"/>
      <point x="180" y="926"/>
      <point x="158" y="913" type="curve"/>
      <point x="125" y="868" type="line"/>
    </contour>
    <contour>
      <point x="610" y="465" type="line"/>
      <point x="630" y="467"/>
      <point x="687" y="495"/>
      <point x="709" y="511" type="curve"/>
      <point x="608" y="938" type="line"/>
      <point x="572" y="935"/>
      <point x="451" y="926"/>
      <point x="429" y="913" type="curve"/>
      <point x="396" y="868" type="line"/>
    </contour>
  </outline>
</glyph>
<glyph name="ModLowTilde" format="2">
  <advance width="796"/>
  <unicode hex="02F7"/>
  <outline>
    <contour>
      <point x="751" y="-162" type="curve"/>
      <point x="678" y="-129" type="line"/>
      <point x="625" y="-207"/>
      <point x="585" y="-242"/>
      <point x="528" y="-242" type="curve" smooth="yes"/>
      <point x="441" y="-242"/>
      <point x="363" y="-139"/>
      <point x="241" y="-139" type="curve" smooth="yes"/>
      <point x="122" y="-139"/>
      <point x="8" y="-330"/>
      <point x="-50" y="-439" type="curve"/>
      <point x="22" y="-469" type="line"/>
      <point x="79" y="-395"/>
      <point x="113" y="-356"/>
      <point x="171" y="-356" type="curve" smooth="yes"/>
      <point x="272" y="-356"/>
      <point x="347" y="-459"/>
      <point x="460" y="-459" type="curve" smooth="yes"/>
      <point x="580" y="-459"/>
      <point x="694" y="-270"/>
    </contour>
  </outline>
</glyph>
<glyph name="CombGrave" format="2">
  <unicode hex="0300"/>
  <anchor x="-225" y="1500" name="U"/>
  <anchor x="-275" y="1000" name="_U"/>
  <outline>
    <contour>
      <point x="-190" y="1056" type="curve"/>
      <point x="-307" y="1478" type="line"/>
      <point x="-341" y="1478"/>
      <point x="-518" y="1453"/>
      <point x="-550" y="1447" type="curve"/>
      <point x="-593" y="1391" type="line"/>
      <point x="-282" y="1016" type="line"/>
      <point x="-258" y="1017"/>
      <point x="-215" y="1036"/>
    </contour>
  </outline>
</glyph>
<glyph name="CombMacron" format="2">
  <unicode hex="0304"/>
  <anchor x="-346" y="1370" name="U"/>
  <anchor x="-398" y="1000" name="_U"/>
  <outline>
    <contour>
      <point x="19" y="1268" type="curve"/>
      <point x="-10" y="1303" type="line"/>
      <point x="-657" y="1303" type="line"/>
      <point x="-673" y="1276"/>
      <point x="-716" y="1198"/>
      <point x="-726" y="1171" type="curve"/>
      <point x="-700" y="1137" type="line"/>
      <point x="-51" y="1137" type="line"/>
      <point x="-37" y="1159"/>
      <point x="10" y="1239"/>
    </contour>
  </outline>
</glyph>
<glyph name="CombRingAbv" format="2">
  <unicode hex="030A"/>
  <anchor x="-333" y="1420" name="U"/>
  <anchor x="-387" y="1000" name="_U"/>
  <outline>
    <contour>
      <point x="-147" y="1310" type="curve" smooth="yes"/>
      <point x="-147" y="1394"/>
      <point x="-204" y="1469"/>
      <point x="-304" y="1469" type="curve" smooth="yes"/>
      <point x="-449" y="1469"/>
      <point x="-559" y="1308"/>
      <point x="-559" y="1179" type="curve" smooth="yes"/>
      <point x="-559" y="1103"/>
      <point x="-510" y="1026"/>
      <point x="-410" y="1026" type="curve" smooth="yes"/>
      <point x="-261" y="1026"/>
      <point x="-147" y="1191"/>
    </contour>
    <contour>
      <point x="-296" y="1273" type="curve" smooth="yes"/>
      <point x="-296" y="1209"/>
      <point x="-333" y="1161"/>
      <point x="-371" y="1160" type="curve" smooth="yes"/>
      <point x="-397" y="1159"/>
      <point x="-420" y="1183"/>
      <point x="-420" y="1222" type="curve" smooth="yes"/>
      <point x="-420" y="1285"/>
      <point x="-386" y="1333"/>
      <point x="-342" y="1333" type="curve" smooth="yes"/>
      <point x="-317" y="1333"/>
      <point x="-296" y="1310"/>
    </contour>
  </outline>
</glyph>
<glyph name="CombInvBreve" format="2">
  <unicode hex="0311"/>
  <anchor x="-343" y="1400" name="U"/>
  <anchor x="-387" y="1000" name="_U"/>
  <outline>
    <contour>
      <point x="-715" y="1083" type="curve"/>
      <point x="-702" y="1058"/>
      <point x="-660" y="1013"/>
      <point x="-642" y="1000" type="curve"/>
      <point x="-569" y="1127"/>
      <point x="-435" y="1169"/>
      <point x="-351" y="1169" type="curve" smooth="yes"/>
      <point x="-275" y="1169"/>
      <point x="-162" y="1127"/>
      <point x="-122" y="1000" type="curve"/>
      <point x="-102" y="1013"/>
      <point x="-55" y="1060"/>
      <point x="-37" y="1083" type="curve"/>
      <point x="-82" y="1296"/>
      <point x="-222" y="1378"/>
      <point x="-339" y="1378" type="curve" smooth="yes"/>
      <point x="-445" y="1378"/>
      <point x="-616" y="1298"/>
    </contour>
  </outline>
</glyph>
<glyph name="CombRtTackBlw" format="2">
  <unicode hex="0319"/>
  <anchor x="-608" y="-600" name="L"/>
  <anchor x="-540" y="-100" name="_L"/>
  <outline>
    <contour>
      <point x="-370" y="-291" type="curve"/>
      <point x="-396" y="-254" type="line"/>
      <point x="-710" y="-254" type="line"/>
      <point x="-726" y="-277"/>
      <point x="-756" y="-332"/>
      <point x="-765" y="-355" type="curve"/>
      <point x="-738" y="-389" type="line"/>
      <point x="-425" y="-390" type="line"/>
      <point x="-412" y="-369"/>
      <point x="-378" y="-314"/>
    </contour>
    <contour>
      <point x="-648" y="-519" type="curve"/>
      <point x="-595" y="-116" type="line"/>
      <point x="-625" y="-84" type="line"/>
      <point x="-649" y="-90"/>
      <point x="-710" y="-113"/>
      <point x="-735" y="-127" type="curve"/>
      <point x="-789" y="-528" type="line"/>
      <point x="-758" y="-562" type="line"/>
      <point x="-734" y="-557"/>
      <point x="-672" y="-529"/>
    </contour>
  </outline>
</glyph>
<glyph name="CombDotBlw" format="2">
  <unicode hex="0323"/>
  <anchor x="-604" y="-600" name="L"/>
  <anchor x="-535" y="-100" name="_L"/>
  <outline>
    <contour>
      <point x="-423" y="-245" type="curve" smooth="yes"/>
      <point x="-423" y="-190"/>
      <point x="-456" y="-134"/>
      <point x="-527" y="-134" type="curve" smooth="yes"/>
      <point x="-633" y="-134"/>
      <point x="-696" y="-250"/>
      <point x="-696" y="-331" type="curve" smooth="yes"/>
      <point x="-696" y="-386"/>
      <point x="-665" y="-441"/>
      <point x="-594" y="-441" type="curve" smooth="yes"/>
      <point x="-487" y="-441"/>
      <point x="-423" y="-329"/>
    </contour>
  </outline>
</glyph>
<glyph name="CombDiaerBlw" format="2">
  <unicode hex="0324"/>
  <anchor x="-609" y="-600" name="L"/>
  <anchor x="-540" y="-100" name="_L"/>
  <outline>
    <contour>
      <point x="-232" y="-245" type="curve" smooth="yes"/>
      <point x="-232" y="-190"/>
      <point x="-265" y="-134"/>
      <point x="-336" y="-134" type="curve" smooth="yes"/>
      <point x="-442" y="-134"/>
      <point x="-505" y="-250"/>
      <point x="-505" y="-331" type="curve" smooth="yes"/>
      <point x="-505" y="-386"/>
      <point x="-474" y="-441"/>
      <point x="-403" y="-441" type="curve" smooth="yes"/>
      <point x="-296" y="-441"/>
      <point x="-232" y="-329"/>
    </contour>
    <contour>
      <point x="-624" y="-245" type="curve" smooth="yes"/>
      <point x="-624" y="-190"/>
      <point x="-657" y="-134"/>
      <point x="-728" y="-134" type="curve" smooth="yes"/>
      <point x="-834" y="-134"/>
      <point x="-897" y="-250"/>
      <point x="-897" y="-331" type="curve" smooth="yes"/>
      <point x="-897" y="-386"/>
      <point x="-866" y="-441"/>
      <point x="-795" y="-441" type="curve" smooth="yes"/>
      <point x="-688" y="-441"/>
      <point x="-624" y="-329"/>
    </contour>
  </outline>
</glyph>
<glyph name="CombDblLowLine" format="2">
  <unicode hex="0333"/>
  <anchor x="-611" y="-600" name="L"/>
  <anchor x="-543" y="-100" name="_L"/>
  <outline>
    <contour>
      <point x="-51" y="-475" type="curve"/>
      <point x="-80" y="-440" type="line"/>
      <point x="-1086" y="-440" type="line"/>
      <point x="-1101" y="-467"/>
      <point x="-1145" y="-545"/>
      <point x="-1155" y="-572" type="curve"/>
      <point x="-1129" y="-606" type="line"/>
      <point x="-121" y="-606" type="line"/>
      <point x="-108" y="-584"/>
      <point x="-60" y="-504"/>
    </contour>
    <contour>
      <point x="-15" y="-225" type="curve"/>
      <point x="-44" y="-190" type="line"/>
      <point x="-1050" y="-190" type="line"/>
      <point x="-1065" y="-217"/>
      <point x="-1109" y="-295"/>
      <point x="-1119" y="-322" type="curve"/>
      <point x="-1093" y="-356" type="line"/>
      <point x="-85" y="-356" type="line"/>
      <point x="-72" y="-334"/>
      <point x="-24" y="-254"/>
    </contour>
  </outline>
</glyph>
<glyph name="CombTildeOverlay" format="2">
  <unicode hex="0334"/>
  <outline>
    <contour>
      <point x="-44" y="588" type="curve"/>
      <point x="-117" y="621" type="line"/>
      <point x="-170" y="543"/>
      <point x="-210" y="508"/>
      <point x="-267" y="508" type="curve" smooth="yes"/>
      <point x="-354" y="508"/>
      <point x="-432" y="611"/>
      <point x="-554" y="611" type="curve" smooth="yes"/>
      <point x="-673" y="611"/>
      <point x="-787" y="420"/>
      <point x="-845" y="311" type="curve"/>
      <point x="-773" y="281" type="line"/>
      <point x="-716" y="355"/>
      <point x="-682" y="394"/>
      <point x="-624" y="394" type="curve" smooth="yes"/>
      <point x="-523" y="394"/>
      <point x="-448" y="291"/>
      <point x="-335" y="291" type="curve" smooth="yes"/>
      <point x="-215" y="291"/>
      <point x="-101" y="480"/>
    </contour>
  </outline>
</glyph>
<glyph name="CombRtHalfRingBlw" format="2">
  <unicode hex="0339"/>
  <anchor x="-613" y="-600" name="L"/>
  <anchor x="-543" y="-100" name="_L"/>
  <outline>
    <contour>
      <point x="-677" y="-212" type="line"/>
      <point x="-615" y="-207"/>
      <point x="-536" y="-230"/>
      <point x="-551" y="-325" type="curve" smooth="yes"/>
      <point x="-564" y="-407"/>
      <point x="-642" y="-427"/>
      <point x="-699" y="-419" type="curve"/>
      <point x="-724" y="-538" type="line"/>
      <point x="-564" y="-559"/>
      <point x="-441" y="-441"/>
      <point x="-425" y="-325" type="curve" smooth="yes"/>
      <point x="-405" y="-181"/>
      <point x="-514" y="-78"/>
      <point x="-656" y="-96" type="curve"/>
    </contour>
  </outline>
</glyph>
<glyph name="CombInvBridgeBlw" format="2">
  <unicode hex="033A"/>
  <anchor x="-610" y="-600" name="L"/>
  <anchor x="-542" y="-100" name="_L"/>
  <outline>
    <contour>
      <point x="-406" y="-183" type="curve"/>
      <point x="-430" y="-360" type="line"/>
      <point x="-731" y="-359" type="line"/>
      <point x="-705" y="-174" type="line"/>
      <point x="-740" y="-130" type="line"/>
      <point x="-764" y="-135"/>
      <point x="-822" y="-169"/>
      <point x="-846" y="-183" type="curve"/>
      <point x="-883" y="-463" type="line"/>
      <point x="-855" y="-495" type="line"/>
      <point x="-374" y="-495" type="line"/>
      <point x="-350" y="-478"/>
      <point x="-308" y="-449"/>
      <point x="-301" y="-436" type="curve"/>
      <point x="-265" y="-174" type="line"/>
      <point x="-300" y="-130" type="line"/>
      <point x="-324" y="-135"/>
      <point x="-382" y="-169"/>
    </contour>
  </outline>
</glyph>
<glyph name="CombSeagullBlw" format="2">
  <unicode hex="033C"/>
  <anchor x="-612" y="-600" name="L"/>
  <anchor x="-544" y="-100" name="_L"/>
  <outline>
    <contour>
      <point x="-952" y="-385" type="curve"/>
      <point x="-946" y="-395"/>
      <point x="-889" y="-445"/>
      <point x="-879" y="-451" type="curve"/>
      <point x="-820" y="-420"/>
      <point x="-775" y="-349"/>
      <point x="-719" y="-349" type="curve" smooth="yes"/>
      <point x="-678" y="-349"/>
      <point x="-652" y="-408"/>
      <point x="-650" y="-496" type="curve"/>
      <point x="-641" y="-497"/>
      <point x="-564" y="-498"/>
      <point x="-555" y="-496" type="curve"/>
      <point x="-509" y="-368"/>
      <point x="-459" y="-349"/>
      <point x="-427" y="-349" type="curve" smooth="yes"/>
      <point x="-382" y="-349"/>
      <point x="-371" y="-420"/>
      <point x="-289" y="-451" type="curve"/>
      <point x="-279" y="-445"/>
      <point x="-221" y="-395"/>
      <point x="-212" y="-385" type="curve"/>
      <point x="-322" y="-332"/>
      <point x="-284" y="-142"/>
      <point x="-420" y="-142" type="curve" smooth="yes"/>
      <point x="-455" y="-142"/>
      <point x="-514" y="-174"/>
      <point x="-570" y="-284" type="curve"/>
      <point x="-596" y="-174"/>
      <point x="-646" y="-142"/>
      <point x="-685" y="-142" type="curve" smooth="yes"/>
      <point x="-796" y="-142"/>
      <point x="-848" y="-322"/>
    </contour>
  </outline>
</glyph>
<glyph name="CombXAbv" format="2">
  <unicode hex="033D"/>
  <anchor x="-344" y="1320" name="U"/>
  <anchor x="-388" y="1000" name="_U"/>
  <outline>
    <contour>
      <point x="-85" y="1070" type="curve"/>
      <point x="-274" y="1275" type="line"/>
      <point x="-428" y="1275" type="line"/>
      <point x="-668" y="1070" type="line"/>
      <point x="-659" y="1049"/>
      <point x="-633" y="1011"/>
      <point x="-618" y="996" type="curve"/>
      <point x="-377" y="1121" type="line"/>
      <point x="-150" y="996" type="line"/>
      <point x="-131" y="1012"/>
      <point x="-98" y="1048"/>
    </contour>
    <contour>
      <point x="-53" y="1357" type="line"/>
      <point x="-59" y="1380"/>
      <point x="-89" y="1420"/>
      <point x="-102" y="1433" type="curve"/>
      <point x="-340" y="1305" type="line"/>
      <point x="-568" y="1433" type="line"/>
      <point x="-584" y="1419"/>
      <point x="-623" y="1376"/>
      <point x="-635" y="1357" type="curve"/>
      <point x="-444" y="1154" type="line"/>
      <point x="-290" y="1154" type="line"/>
    </contour>
  </outline>
</glyph>
<glyph name="CombBridgeAbv" format="2">
  <unicode hex="0346"/>
  <anchor x="-343" y="1320" name="U"/>
  <anchor x="-387" y="1000" name="_U"/>
  <outline>
    <contour>
      <point x="-536" y="1022" type="curve"/>
      <point x="-512" y="1199" type="line"/>
      <point x="-211" y="1198" type="line"/>
      <point x="-237" y="1013" type="line"/>
      <point x="-202" y="969" type="line"/>
      <point x="-178" y="974"/>
      <point x="-120" y="1008"/>
      <point x="-96" y="1022" type="curve"/>
      <point x="-59" y="1302" type="line"/>
      <point x="-87" y="1334" type="line"/>
      <point x="-568" y="1334" type="line"/>
      <point x="-592" y="1317"/>
      <point x="-634" y="1288"/>
      <point x="-641" y="1275" type="curve"/>
      <point x="-677" y="1013" type="line"/>
      <point x="-642" y="969" type="line"/>
      <point x="-618" y="974"/>
      <point x="-560" y="1008"/>
    </contour>
  </outline>
</glyph>
<glyph name="CombLftHalfRingAbv" format="2">
  <unicode hex="0351"/>
  <anchor x="-340" y="1353" name="U"/>
  <anchor x="-389" y="1000" name="_U"/>
  <outline>
    <contour>
      <point x="-278" y="1147" type="line"/>
      <point x="-340" y="1142"/>
      <point x="-419" y="1165"/>
      <point x="-404" y="1260" type="curve" smooth="yes"/>
      <point x="-391" y="1342"/>
      <point x="-313" y="1362"/>
      <point x="-256" y="1354" type="curve"/>
      <point x="-231" y="1473" type="line"/>
      <point x="-391" y="1494"/>
      <point x="-514" y="1376"/>
      <point x="-530" y="1260" type="curve" smooth="yes"/>
      <point x="-550" y="1116"/>
      <point x="-441" y="1013"/>
      <point x="-299" y="1031" type="curve"/>
    </contour>
  </outline>
</glyph>
